<svg width="339" height="339" viewBox="0 0 339 339" fill="none" xmlns="http://www.w3.org/2000/svg">
<g opacity="0.0492001">
<path fill-rule="evenodd" clip-rule="evenodd" d="M51.5513 100.8C48.9046 92.6272 48.6384 91.1603 49.488 88.7304C50.866 84.6661 52.5422 83.7822 62.2101 81.616C70.0116 79.8925 72.0448 79.0435 74.8063 76.2037C77.9269 73.0831 78.8568 71.0514 80.496 63.7261C82.4634 54.8884 82.9096 53.7325 85.1067 52.01C88.144 49.5255 90.2481 49.5506 98.7757 52.2343C107.539 54.9953 111.514 55.126 116.06 52.8702C118.333 51.7038 119.572 50.5425 124.338 45.3022C130.705 38.3039 132.38 37.2601 136.391 37.9078C138.377 38.212 138.813 38.5684 144.811 44.8049C152.189 52.5047 154.288 53.8011 159.65 54.1217C162.193 54.2643 165.018 53.6467 170.875 51.7392C179.436 48.9387 181.545 48.8848 184.548 51.3279C186.722 53.0206 187.152 54.1705 188.884 62.4657C190.54 70.3625 191.281 72.2249 194.281 75.2247C197.281 78.2246 199.143 78.9659 207.04 80.6215C215.335 82.3533 216.485 82.7837 218.178 84.9575C220.621 87.9611 220.567 90.0657 217.766 98.6308C214.846 107.473 214.7 111.41 216.894 115.926C218.029 118.182 219.173 119.485 224.349 124.18C230.037 129.307 230.509 129.863 231.249 132.122C231.753 133.747 231.742 135.417 231.216 137.049C230.446 139.321 229.965 139.881 224.206 145.086C218.926 149.892 217.806 151.169 216.638 153.443C214.382 157.91 214.553 162.084 217.313 171.006C219.415 177.668 219.64 179.177 219.071 181.247C217.767 185.787 216.25 186.672 206.3 188.886C198.379 190.649 196.507 191.416 193.466 194.457C190.424 197.498 189.658 199.371 187.894 207.291C185.68 217.242 184.795 218.758 180.256 220.063C178.187 220.634 176.678 220.405 170.014 218.305C161.09 215.543 156.918 215.374 152.451 217.629C150.179 218.8 148.858 219.96 143.973 225.319C138.409 231.358 138.089 231.678 135.739 232.291C131.321 233.474 129.856 232.649 123.308 225.46C118.456 220.207 117.151 218.982 114.934 217.886C110.377 215.651 106.402 215.838 97.6391 218.758C89.1571 221.558 87.0483 221.612 83.9657 219.169C81.79 217.475 81.4395 216.484 79.5541 207.554C77.9344 200.175 77.0735 198.192 73.9952 195.114C71.2703 192.31 69.2506 191.491 61.4719 189.874C53.1767 188.142 52.0289 187.714 50.3341 185.538C47.8916 182.455 47.9454 180.351 50.7455 171.864C53.6678 163.103 53.8529 159.126 51.6198 154.571C50.4845 152.315 49.3399 151.091 44.1643 146.396C37.2525 140.125 36.2294 138.462 36.9341 134.443C37.2655 132.453 37.6258 132.015 43.9867 125.889C51.749 118.366 53.1134 116.292 53.4682 110.882C53.6456 108.336 53.146 105.758 51.5513 100.8ZM123.499 75.7441C117.329 76.937 109.002 80.1348 103.494 83.4317C97.9893 86.7286 89.3514 94.4175 85.8623 99.1733C76.4326 112.073 72.1066 128.638 74.1079 144.004C74.9364 150.438 78.4827 160.707 81.9005 166.685C84.4937 171.119 85.5175 172.381 91.3212 178.184C97.1228 183.986 98.3871 185.012 102.821 187.605C108.801 191.021 119.069 194.567 125.501 195.398C131.18 196.115 139.528 195.9 145.02 194.749C151.068 193.594 159.437 190.359 165.064 187.101C169.454 184.526 170.772 183.443 176.614 177.601C182.458 171.757 183.538 170.441 186.113 166.051C189.371 160.424 192.607 152.056 193.762 146.007C194.91 140.513 195.127 132.167 194.41 126.489C193.582 120.055 190.035 109.786 186.618 103.808C184.024 99.3746 182.999 98.1103 177.197 92.3087C171.395 86.5071 170.131 85.4812 165.697 82.888C159.717 79.4723 149.449 75.926 143.017 75.0954C137.338 74.3781 128.99 74.5931 123.499 75.7441Z" fill="#F1F1F1"/>
<path d="M96.0136 108.045C90.2753 116.073 87.4323 125.073 87.3606 135.567C87.2709 148.684 91.7636 159.978 100.646 168.86C109.527 177.742 120.822 182.235 133.939 182.145C148.166 182.046 160.045 176.72 169.298 166.283C185.198 148.249 185.381 121.542 169.726 103.725C163.732 96.9315 155.855 92.0954 146.773 89.5734C140.464 87.828 128.702 87.9085 122.368 89.7403C111.737 92.796 102.194 99.4171 96.0136 108.045Z" fill="#F1F1F1"/>
<path d="M159.355 231.489C166.805 251.987 191.68 316.715 192.351 317.385C193.496 318.53 194.925 318.521 196.046 317.399C196.525 316.92 199.108 311.656 201.81 305.715C204.513 299.776 207.213 294.39 207.893 293.71C209.493 292.11 212.363 290.977 214.59 291.041C215.582 291.076 221.172 293.223 226.998 295.765C239.758 301.322 241.663 301.624 241.848 297.969C241.892 297.294 234.596 277.352 225.696 253.728C216.755 230.141 209.536 210.758 209.657 210.637C209.779 210.515 229.003 217.658 252.351 226.52C275.739 235.342 295.562 242.679 296.473 242.791C298.499 242.977 299.538 242.016 299.473 240.026C299.439 239.273 297.33 233.801 294.786 227.977C292.242 222.153 290.094 216.563 290.062 215.569C289.998 213.342 291.129 210.474 292.729 208.874C293.409 208.194 298.795 205.494 304.734 202.791C310.672 200.087 315.937 197.508 316.418 197.027C317.539 195.906 317.549 194.477 316.404 193.332C315.141 192.069 229.001 159.553 228.681 160.27C228.519 160.51 229.45 164.159 230.653 168.324C233.256 177.168 233.424 181.34 231.441 186.798C230.185 190.266 229.702 190.984 226.262 194.424C221.819 198.867 219.946 199.712 209.756 201.93C206.373 202.709 203.308 203.563 202.948 203.923C202.588 204.283 201.732 207.35 200.953 210.733C198.737 220.921 197.89 222.796 193.447 227.239C190.006 230.679 189.289 231.162 185.821 232.418C180.363 234.401 176.191 234.233 167.347 231.63C163.182 230.427 159.533 229.496 159.293 229.658C159.007 229.782 159.043 230.617 159.355 231.489Z" fill="#F1F1F1"/>
</g>
</svg>
