<svg width="23" height="29" viewBox="0 0 23 29" fill="none" xmlns="http://www.w3.org/2000/svg">
    <path fill-rule="evenodd" clip-rule="evenodd" d="M16.913 17.6626C16.7563 17.8742 16.5063 17.9995 16.241 17.9995C16.065 17.9995 15.8944 17.945 15.7524 17.8436L11.5008 14.801L7.25074 17.8436C6.95999 18.0521 6.56567 18.0521 6.27467 17.8436C5.98315 17.6355 5.86114 17.2658 5.97276 16.9289L7.59652 12.0066L3.34283 8.96455C3.0513 8.7562 2.92929 8.38706 3.04092 8.04988C3.15202 7.7127 3.47132 7.48467 3.83112 7.48467H9.08684L10.7122 2.5624C10.8246 2.22675 11.1426 2 11.5013 2C11.8606 2 12.1786 2.22675 12.291 2.5624L13.9148 7.48467H19.1705C19.5303 7.48518 19.8488 7.71346 19.9596 8.05065C20.0702 8.38732 19.9485 8.75646 19.6572 8.96455L15.4051 12.0066L17.0306 16.9289C17.1129 17.1781 17.0691 17.4506 16.913 17.6626ZM8.34414 15.04L11.0125 13.1291C11.3035 12.9205 11.6981 12.9205 11.9891 13.1291L14.6574 15.04L13.6398 11.9471C13.5285 11.6101 13.6502 11.241 13.9412 11.0324L16.6135 9.12074H13.3117C12.9517 9.12074 12.6329 8.89271 12.5215 8.55553L11.5008 5.46233L10.4801 8.55553C10.3687 8.89271 10.0499 9.12074 9.68987 9.12074H6.38811L9.06348 11.0324C9.35448 11.241 9.47623 11.6101 9.36538 11.9471L8.34414 15.04Z" fill="#03B5CB"/>
    <path fill-rule="evenodd" clip-rule="evenodd" d="M11.687 0C17.9349 0 23 5.03268 23 11.2406C23 14.3328 21.7096 17.2859 19.4369 19.3981L22.4533 24.5858C22.6058 24.8488 22.596 25.1754 22.428 25.4291C22.2596 25.6828 21.9616 25.8203 21.6578 25.7841L18.2511 25.3827L16.9046 28.5142C16.7844 28.7935 16.5157 28.9817 16.2107 29H16.1614C15.8726 29 15.6059 28.8467 15.4617 28.5986L11.8981 22.4714C11.8684 22.4722 11.8396 22.4738 11.8109 22.4753C11.7693 22.4775 11.728 22.4797 11.6845 22.4797C11.3395 22.4797 11.0049 22.4589 10.6817 22.4283L7.09995 28.5978C6.95525 28.8462 6.68859 28.9992 6.3997 28.9992H6.35122C6.04592 28.9812 5.77673 28.793 5.65653 28.5135L4.31034 25.3819L0.903057 25.7834C0.599778 25.8195 0.301297 25.6818 0.133622 25.4281C-0.0350624 25.1747 -0.0446582 24.8478 0.10837 24.5851L3.42146 18.8882C1.45734 16.8205 0.366953 14.0834 0.374023 11.2406C0.374023 5.03268 5.43911 0 11.687 0ZM5.56184 24.1972L6.51056 26.4051L8.97896 22.1472C7.38858 21.7641 5.90299 21.0365 4.62877 20.0163L2.31339 23.9994L4.72296 23.7154C5.07901 23.673 5.42093 23.8692 5.56184 24.1972ZM10.3552 20.7781C5.56335 20.1164 1.99496 16.0475 1.99016 11.2406C1.98461 6.77071 5.07447 2.88392 9.45219 1.8537C13.8299 0.823224 18.346 2.92005 20.3591 6.91749C22.3717 10.9157 21.3536 15.7639 17.8988 18.6273C16.321 19.9483 14.3567 20.7279 12.2969 20.8506C11.6491 20.899 10.9976 20.8749 10.3552 20.7781ZM17.0041 24.1972C17.145 23.8692 17.4869 23.673 17.843 23.7154L20.2526 23.9994L18.1794 20.4393C16.8319 21.3835 15.2902 22.0183 13.6663 22.298L16.0544 26.4066L17.0041 24.1972Z" fill="#03B5CB"/>
</svg>
