<svg width="146" height="149" viewBox="0 0 146 149" fill="none" xmlns="http://www.w3.org/2000/svg">
<path fill-rule="evenodd" clip-rule="evenodd" d="M33 94.2349H41V96.4898H35.2059V100.166H40.6683V102.421H35.2059V108.235H33V94.2349Z" fill="#555759"/>
<path fill-rule="evenodd" clip-rule="evenodd" d="M50.0747 102.896L47.9623 97.2011L45.8087 102.896H50.0747ZM46.9727 94.2349H49.0851L55 108.235H52.2086L50.9281 105.032H44.9749L43.7346 108.235H41L46.9727 94.2349Z" fill="#555759"/>
<path fill-rule="evenodd" clip-rule="evenodd" d="M66.3517 96.9555C65.8357 96.4015 65.3377 96.0325 64.8577 95.8475C64.3747 95.6625 63.8907 95.5705 63.4027 95.5705C62.6757 95.5705 62.0197 95.6985 61.4317 95.9565C60.8457 96.2135 60.3397 96.5695 59.9177 97.0245C59.4967 97.4795 59.1697 98.0115 58.9397 98.6185C58.7067 99.2255 58.5917 99.8785 58.5917 100.577C58.5917 101.329 58.7067 102.022 58.9397 102.655C59.1697 103.289 59.4967 103.837 59.9177 104.298C60.3397 104.76 60.8457 105.123 61.4317 105.387C62.0197 105.65 62.6757 105.782 63.4027 105.782C63.9687 105.782 64.5197 105.647 65.0547 105.377C65.5877 105.106 66.0857 104.674 66.5487 104.08L68.6077 105.545C67.9747 106.416 67.2017 107.049 66.2907 107.445C65.3807 107.841 64.4127 108.039 63.3827 108.039C62.3007 108.039 61.3067 107.864 60.4047 107.515C59.4997 107.165 58.7207 106.67 58.0687 106.03C57.4137 105.391 56.9047 104.622 56.5337 103.725C56.1637 102.827 55.9807 101.831 55.9807 100.735C55.9807 99.6145 56.1637 98.5955 56.5337 97.6785C56.9047 96.7615 57.4137 95.9795 58.0687 95.3325C58.7207 94.6865 59.4997 94.1885 60.4047 93.8385C61.3067 93.4895 62.3007 93.3135 63.3827 93.3135C64.3317 93.3135 65.2127 93.4825 66.0237 93.8185C66.8357 94.1555 67.5917 94.7265 68.2907 95.5305L66.3517 96.9555Z" fill="#555759"/>
<path fill-rule="evenodd" clip-rule="evenodd" d="M70.229 107.684H72.723V93.6709H70.229V107.684Z" fill="#555759"/>
<path fill-rule="evenodd" clip-rule="evenodd" d="M75.791 93.6704H78.285V105.427H84.242V107.683H75.791V93.6704Z" fill="#555759"/>
<path fill-rule="evenodd" clip-rule="evenodd" d="M86.0039 107.684H88.4979V93.6709H86.0039V107.684Z" fill="#555759"/>
<path fill-rule="evenodd" clip-rule="evenodd" d="M94.4356 95.9272H90.1406V93.6702H101.223V95.9272H96.9276V107.683H94.4356V95.9272Z" fill="#555759"/>
<path fill-rule="evenodd" clip-rule="evenodd" d="M106.35 101.686L101.084 93.6699H104.211L107.657 99.2509L111.139 93.6699H114.108L108.844 101.686V107.683H106.35V101.686Z" fill="#555759"/>
<path fill-rule="evenodd" clip-rule="evenodd" d="M0 117.42H3.799L7.541 127.236L11.32 117.42H15.08V131.433H12.705V119.795H12.666L8.41 131.433H6.67L2.414 119.795H2.375V131.433H0V117.42Z" fill="#555759"/>
<path fill-rule="evenodd" clip-rule="evenodd" d="M25.9669 126.089L23.8089 120.389L21.6119 126.089H25.9669ZM22.7989 117.42H24.9569L30.9939 131.433H28.1429L26.8379 128.227H20.7619L19.4939 131.433H16.7029L22.7989 117.42Z" fill="#555759"/>
<path fill-rule="evenodd" clip-rule="evenodd" d="M32.5566 117.42H35.8616L42.6506 127.83H42.6896V117.42H45.1836V131.433H42.0176L35.0896 120.686H35.0506V131.433H32.5566V117.42Z" fill="#555759"/>
<path fill-rule="evenodd" clip-rule="evenodd" d="M56.0098 126.089L53.8518 120.389L51.6548 126.089H56.0098ZM52.8418 117.42H54.9998L61.0368 131.433H58.1858L56.8808 128.227H50.8048L49.5368 131.433H46.7458L52.8418 117.42Z" fill="#555759"/>
<path fill-rule="evenodd" clip-rule="evenodd" d="M75.0489 130.404C73.3199 131.328 71.3889 131.79 69.2499 131.79C68.1679 131.79 67.1759 131.615 66.2719 131.265C65.3669 130.916 64.5899 130.421 63.9359 129.781C63.2829 129.141 62.7719 128.373 62.4029 127.475C62.0329 126.578 61.8479 125.582 61.8479 124.486C61.8479 123.365 62.0329 122.345 62.4029 121.428C62.7719 120.511 63.2829 119.73 63.9359 119.083C64.5899 118.437 65.3669 117.939 66.2719 117.589C67.1759 117.24 68.1679 117.064 69.2499 117.064C70.3189 117.064 71.3219 117.193 72.2579 117.45C73.1949 117.708 74.0329 118.167 74.7719 118.826L72.9319 120.686C72.4829 120.251 71.9399 119.915 71.2989 119.677C70.6579 119.439 69.9829 119.321 69.2699 119.321C68.5449 119.321 67.8869 119.449 67.3009 119.707C66.7129 119.964 66.2089 120.32 65.7869 120.775C65.3629 121.23 65.0369 121.761 64.8069 122.369C64.5759 122.975 64.4609 123.629 64.4609 124.328C64.4609 125.08 64.5759 125.773 64.8069 126.406C65.0369 127.04 65.3629 127.588 65.7869 128.049C66.2089 128.51 66.7129 128.874 67.3009 129.137C67.8869 129.401 68.5449 129.533 69.2699 129.533C69.9039 129.533 70.4999 129.474 71.0609 129.355C71.6209 129.236 72.1189 129.051 72.5549 128.801V125.496H69.6859V123.24H75.0489V130.404Z" fill="#555759"/>
<path fill-rule="evenodd" clip-rule="evenodd" d="M77.998 117.42H87.279V119.677H80.492V123.12H86.924V125.376H80.492V129.177H87.637V131.433H77.998V117.42Z" fill="#555759"/>
<path fill-rule="evenodd" clip-rule="evenodd" d="M90.1504 117.42H93.9494L97.6914 127.236L101.47 117.42H105.23V131.433H102.855V119.795H102.816L98.5604 131.433H96.8204L92.5644 119.795H92.5254V131.433H90.1504V117.42Z" fill="#555759"/>
<path fill-rule="evenodd" clip-rule="evenodd" d="M108.418 117.42H117.699V119.677H110.912V123.12H117.344V125.376H110.912V129.177H118.057V131.433H108.418V117.42Z" fill="#555759"/>
<path fill-rule="evenodd" clip-rule="evenodd" d="M120.51 117.42H123.817L130.604 127.83H130.645V117.42H133.137V131.433H129.971L123.043 120.686H123.004V131.433H120.51V117.42Z" fill="#555759"/>
<path fill-rule="evenodd" clip-rule="evenodd" d="M139.135 119.677H134.84V117.42H145.922V119.677H141.627V131.433H139.135V119.677Z" fill="#555759"/>
<path fill-rule="evenodd" clip-rule="evenodd" d="M28.4025 145.945C28.6405 146.304 28.9475 146.569 29.3185 146.739C29.6915 146.909 30.0765 146.994 30.4705 146.994C30.6915 146.994 30.9165 146.96 31.1465 146.89C31.3775 146.821 31.5865 146.717 31.7755 146.58C31.9635 146.442 32.1175 146.272 32.2365 146.07C32.3555 145.868 32.4165 145.633 32.4165 145.366C32.4165 144.989 32.2975 144.702 32.0565 144.504C31.8185 144.306 31.5215 144.14 31.1685 144.008C30.8145 143.874 30.4275 143.745 30.0095 143.621C29.5895 143.497 29.2055 143.325 28.8495 143.104C28.4965 142.883 28.1995 142.587 27.9615 142.215C27.7205 141.841 27.6015 141.339 27.6015 140.704C27.6015 140.419 27.6645 140.115 27.7875 139.794C27.9125 139.471 28.1075 139.177 28.3755 138.911C28.6405 138.643 28.9845 138.421 29.4025 138.241C29.8205 138.062 30.3245 137.972 30.9125 137.972C31.4455 137.972 31.9575 138.046 32.4435 138.193C32.9315 138.341 33.3595 138.639 33.7265 139.09L32.6505 140.069C32.4845 139.812 32.2505 139.605 31.9475 139.448C31.6445 139.292 31.2985 139.214 30.9125 139.214C30.5455 139.214 30.2385 139.262 29.9965 139.359C29.7525 139.455 29.5565 139.58 29.4085 139.731C29.2615 139.883 29.1585 140.047 29.0975 140.22C29.0395 140.395 29.0095 140.556 29.0095 140.704C29.0095 141.118 29.1295 141.434 29.3675 141.655C29.6075 141.876 29.9025 142.055 30.2575 142.193C30.6115 142.332 30.9985 142.456 31.4165 142.566C31.8345 142.676 32.2205 142.831 32.5745 143.028C32.9275 143.226 33.2245 143.493 33.4655 143.828C33.7035 144.164 33.8225 144.626 33.8225 145.215C33.8225 145.683 33.7325 146.106 33.5545 146.483C33.3755 146.861 33.1325 147.177 32.8305 147.435C32.5275 147.693 32.1685 147.89 31.7545 148.028C31.3405 148.167 30.8985 148.235 30.4295 148.235C29.8045 148.235 29.2115 148.125 28.6505 147.904C28.0905 147.683 27.6425 147.343 27.3125 146.883L28.4025 145.945Z" fill="#555759"/>
<path fill-rule="evenodd" clip-rule="evenodd" d="M35.7812 138.22H42.0862V139.462H37.1053V142.372H41.7422V143.614H37.1053V146.745H42.3342V147.987H35.7812V138.22Z" fill="#555759"/>
<path fill-rule="evenodd" clip-rule="evenodd" d="M45.5332 142.524H47.2712C47.5292 142.524 47.7852 142.503 48.0372 142.462C48.2912 142.42 48.5152 142.345 48.7132 142.235C48.9122 142.125 49.0702 141.965 49.1892 141.758C49.3082 141.552 49.3692 141.283 49.3692 140.952C49.3692 140.621 49.3082 140.352 49.1892 140.145C49.0702 139.938 48.9122 139.779 48.7132 139.669C48.5152 139.558 48.2912 139.483 48.0372 139.441C47.7852 139.4 47.5292 139.379 47.2712 139.379H45.5332V142.524ZM44.2092 138.22H47.6442C48.2692 138.22 48.7852 138.305 49.1892 138.476C49.5942 138.646 49.9142 138.862 50.1482 139.124C50.3832 139.386 50.5472 139.68 50.6382 140.006C50.7302 140.334 50.7752 140.648 50.7752 140.952C50.7752 141.264 50.7202 141.566 50.6112 141.855C50.5002 142.145 50.3422 142.407 50.1352 142.641C49.9282 142.877 49.6742 143.074 49.3752 143.235C49.0762 143.396 48.7442 143.495 48.3752 143.532L51.1482 147.987H49.4922L47.0102 143.683H45.5332V147.987H44.2092V138.22Z" fill="#555759"/>
<path fill-rule="evenodd" clip-rule="evenodd" d="M51.3008 138.22H52.8318L55.7008 146.165H55.7288L58.7088 138.22H60.1558L56.3088 147.987H55.0668L51.3008 138.22Z" fill="#555759"/>
<path fill-rule="evenodd" clip-rule="evenodd" d="M61.3279 147.987H62.6519V138.22H61.3279V147.987Z" fill="#555759"/>
<path fill-rule="evenodd" clip-rule="evenodd" d="M71.9629 140.331C71.6879 139.973 71.3379 139.697 70.9159 139.504C70.4919 139.31 70.0549 139.214 69.6059 139.214C69.0529 139.214 68.5549 139.317 68.1079 139.524C67.6619 139.731 67.2809 140.015 66.9629 140.373C66.6469 140.731 66.4009 141.152 66.2249 141.635C66.0509 142.118 65.9629 142.635 65.9629 143.186C65.9629 143.702 66.0449 144.189 66.2109 144.649C66.3769 145.109 66.6149 145.514 66.9279 145.863C67.2399 146.213 67.6229 146.488 68.0739 146.69C68.5239 146.893 69.0349 146.994 69.6059 146.994C70.1659 146.994 70.6579 146.879 71.0799 146.649C71.5039 146.42 71.8609 146.098 72.1559 145.684L73.2739 146.525C73.2009 146.626 73.0719 146.771 72.8889 146.96C72.7029 147.148 72.4609 147.337 72.1559 147.525C71.8539 147.714 71.4879 147.879 71.0609 148.021C70.6329 148.164 70.1389 148.235 69.5779 148.235C68.8049 148.235 68.1079 148.089 67.4879 147.794C66.8669 147.5 66.3379 147.113 65.9009 146.636C65.4649 146.157 65.1309 145.617 64.9009 145.015C64.6719 144.412 64.5569 143.803 64.5569 143.186C64.5569 142.433 64.6799 141.736 64.9279 141.097C65.1779 140.458 65.5239 139.906 65.9709 139.441C66.4159 138.977 66.9509 138.616 67.5759 138.358C68.2029 138.102 68.8929 137.973 69.6469 137.973C70.2889 137.973 70.9219 138.097 71.5429 138.345C72.1639 138.594 72.6719 138.976 73.0669 139.49L71.9629 140.331Z" fill="#555759"/>
<path fill-rule="evenodd" clip-rule="evenodd" d="M74.873 138.22H81.178V139.462H76.197V142.372H80.834V143.614H76.197V146.745H81.426V147.987H74.873V138.22Z" fill="#555759"/>
<path fill-rule="evenodd" clip-rule="evenodd" d="M83.5917 145.945C83.8317 146.304 84.1367 146.569 84.5097 146.739C84.8827 146.909 85.2657 146.994 85.6617 146.994C85.8827 146.994 86.1077 146.96 86.3377 146.89C86.5667 146.821 86.7777 146.717 86.9647 146.58C87.1547 146.442 87.3067 146.272 87.4277 146.07C87.5467 145.868 87.6077 145.633 87.6077 145.366C87.6077 144.989 87.4867 144.702 87.2477 144.504C87.0077 144.306 86.7127 144.14 86.3577 144.008C86.0037 143.874 85.6167 143.745 85.1987 143.621C84.7807 143.497 84.3947 143.325 84.0407 143.104C83.6857 142.883 83.3907 142.587 83.1507 142.215C82.9117 141.841 82.7927 141.339 82.7927 140.704C82.7927 140.419 82.8537 140.115 82.9787 139.794C83.1037 139.471 83.2987 139.177 83.5647 138.911C83.8317 138.643 84.1737 138.421 84.5917 138.241C85.0117 138.062 85.5137 137.972 86.1037 137.972C86.6367 137.972 87.1467 138.046 87.6347 138.193C88.1207 138.341 88.5487 138.639 88.9157 139.09L87.8417 140.069C87.6757 139.812 87.4417 139.605 87.1367 139.448C86.8337 139.292 86.4877 139.214 86.1037 139.214C85.7347 139.214 85.4297 139.262 85.1857 139.359C84.9417 139.455 84.7457 139.58 84.5997 139.731C84.4507 139.883 84.3497 140.047 84.2887 140.22C84.2287 140.395 84.1987 140.556 84.1987 140.704C84.1987 141.118 84.3187 141.434 84.5587 141.655C84.7967 141.876 85.0937 142.055 85.4467 142.193C85.8007 142.332 86.1877 142.456 86.6057 142.566C87.0257 142.676 87.4097 142.831 87.7657 143.028C88.1187 143.226 88.4157 143.493 88.6537 143.828C88.8947 144.164 89.0137 144.626 89.0137 145.215C89.0137 145.683 88.9237 146.106 88.7437 146.483C88.5647 146.861 88.3237 147.177 88.0197 147.435C87.7167 147.693 87.3577 147.89 86.9457 148.028C86.5307 148.167 86.0897 148.235 85.6187 148.235C84.9937 148.235 84.4027 148.125 83.8397 147.904C83.2797 147.683 82.8337 147.343 82.5017 146.883L83.5917 145.945Z" fill="#555759"/>
<path fill-rule="evenodd" clip-rule="evenodd" d="M94.8066 138.22H96.1306V146.745H100.616V147.987H94.8066V138.22Z" fill="#555759"/>
<path fill-rule="evenodd" clip-rule="evenodd" d="M102.738 139.462H99.5933V138.22H107.209V139.462H104.062V147.986H102.738V139.462Z" fill="#555759"/>
<path fill-rule="evenodd" clip-rule="evenodd" d="M109.719 146.746H111.389C111.949 146.746 112.481 146.67 112.981 146.518C113.483 146.366 113.922 146.139 114.299 145.835C114.676 145.532 114.975 145.152 115.196 144.697C115.416 144.242 115.526 143.711 115.526 143.104C115.526 142.792 115.475 142.426 115.375 142.008C115.274 141.589 115.082 141.191 114.803 140.814C114.522 140.437 114.133 140.117 113.637 139.855C113.141 139.594 112.496 139.463 111.705 139.463H109.719V146.746ZM108.395 138.221H111.801C112.492 138.221 113.096 138.299 113.615 138.455C114.135 138.612 114.586 138.821 114.967 139.083C115.35 139.345 115.666 139.646 115.92 139.986C116.172 140.327 116.371 140.677 116.52 141.035C116.666 141.393 116.772 141.752 116.836 142.111C116.901 142.47 116.934 142.801 116.934 143.104C116.934 143.729 116.819 144.334 116.588 144.918C116.358 145.502 116.018 146.021 115.569 146.476C115.117 146.932 114.559 147.298 113.891 147.573C113.225 147.85 112.455 147.987 111.58 147.987H108.395V138.221Z" fill="#555759"/>
<path fill-rule="evenodd" clip-rule="evenodd" d="M31.2441 53.7271C36.1701 71.7631 52.6231 85.0371 72.2261 85.0371C91.8201 85.0371 108.273 71.7631 113.195 53.7271H31.2441Z" fill="#00ABC8"/>
<path fill-rule="evenodd" clip-rule="evenodd" d="M113.191 53.727C114.17 50.153 114.738 46.403 114.738 42.515C114.738 19.033 95.7015 0 72.2265 0C48.7385 0 29.6995 19.033 29.6995 42.515C29.6995 46.403 30.2695 50.153 31.2445 53.727H113.191Z" fill="#555759"/>
<path fill-rule="evenodd" clip-rule="evenodd" d="M107.063 42.515C107.063 61.763 91.4625 77.363 72.2265 77.363C52.9785 77.363 37.3745 61.763 37.3745 42.515C37.3745 23.278 52.9785 7.677 72.2265 7.677C91.4625 7.677 107.063 23.278 107.063 42.515Z" fill="#FEFEFE"/>
<path fill-rule="evenodd" clip-rule="evenodd" d="M46.5645 34.4839H52.3595V37.9579H52.4355C53.0565 36.7999 53.7895 35.9269 54.6365 35.3489C55.4905 34.7729 56.5585 34.4839 57.8475 34.4839H59.7775V39.9699C59.3695 39.8389 58.9575 39.7449 58.5605 39.6809C58.1645 39.6129 57.7485 39.5809 57.3045 39.5809C56.1915 39.5809 55.3185 39.7359 54.6795 40.0499C54.0355 40.3529 53.5375 40.7849 53.1955 41.3429C52.8455 41.8959 52.6175 42.5549 52.5175 43.3299C52.4085 44.1089 52.3595 44.9569 52.3595 45.8799V53.7269H46.5645V34.4839Z" fill="#555759"/>
<path fill-rule="evenodd" clip-rule="evenodd" d="M67.3867 43.3052C67.3867 44.7202 67.7927 45.8652 68.6157 46.7432C69.4197 47.6242 70.5567 48.0562 72.0257 48.0562C73.4887 48.0562 74.6327 47.6242 75.4497 46.7432C76.2657 45.8652 76.6677 44.7202 76.6677 43.3052C76.6677 41.8882 76.2657 40.7422 75.4497 39.8652C74.6327 38.9902 73.4887 38.5542 72.0257 38.5542C70.5567 38.5542 69.4197 38.9902 68.6157 39.8652C67.7927 40.7422 67.3867 41.8882 67.3867 43.3052ZM62.0627 34.4842H67.3867V36.3872H67.4687C67.6977 36.0502 68.0057 35.7082 68.3707 35.3652C68.7497 35.0152 69.1897 34.7062 69.6877 34.4132C70.1977 34.1332 70.7387 33.9042 71.3257 33.7202C71.9177 33.5402 72.5507 33.4512 73.2267 33.4512C74.6167 33.4512 75.8807 33.6902 77.0057 34.1622C78.1467 34.6442 79.1157 35.3112 79.9337 36.1712C80.7387 37.0382 81.3637 38.0622 81.8067 39.2452C82.2417 40.4312 82.4587 41.7372 82.4587 43.1542C82.4587 44.4622 82.2657 45.7202 81.8657 46.9152C81.4587 48.1142 80.8987 49.1792 80.1697 50.1052C79.4297 51.0332 78.5297 51.7752 77.4747 52.3262C76.4197 52.8822 75.2207 53.1592 73.8827 53.1592C72.6697 53.1592 71.5487 52.9722 70.4997 52.5952C69.4547 52.2262 68.6017 51.5832 67.9217 50.6872H67.8557V61.5002H62.0627V34.4842Z" fill="#555759"/>
<path fill-rule="evenodd" clip-rule="evenodd" d="M97.8769 39.5836H92.7769V44.8126C92.7769 45.3236 92.8049 45.7946 92.8519 46.2196C92.9059 46.6456 93.0249 47.0116 93.2009 47.3196C93.3789 47.6296 93.6639 47.8706 94.0289 48.0366C94.4059 48.2046 94.8969 48.2846 95.5199 48.2846C95.8259 48.2846 96.2359 48.2606 96.7379 48.1966C97.2419 48.1266 97.6229 47.9816 97.8769 47.7476V52.5756C97.2269 52.8116 96.5679 52.9666 95.8689 53.0446C95.1679 53.1186 94.4879 53.1586 93.8159 53.1586C92.8419 53.1586 91.9379 53.0566 91.1109 52.8476C90.2889 52.6466 89.5699 52.3116 88.9449 51.8636C88.3379 51.4176 87.8459 50.8296 87.5019 50.1046C87.1539 49.3846 86.9769 48.5086 86.9769 47.4796V39.5836H83.2749V34.4836H86.9769V28.3506H92.7769V34.4836H97.8769V39.5836Z" fill="#555759"/>
</svg>
