<svg width="227" height="60" viewBox="0 0 227 60" fill="none" xmlns="http://www.w3.org/2000/svg">
<path fill-rule="evenodd" clip-rule="evenodd" d="M28.1263 13.5022C28.1263 14.7122 28.3133 15.8182 28.6883 16.8222C29.0633 17.8272 29.6023 18.6972 30.3043 19.4362C31.0053 20.1742 31.8463 20.7482 32.8263 21.1602C33.8063 21.5712 34.9003 21.7772 36.1113 21.7772C37.3203 21.7772 38.4163 21.5712 39.3953 21.1602C40.3753 20.7482 41.2153 20.1742 41.9183 19.4362C42.6193 18.6972 43.1573 17.8272 43.5333 16.8222C43.9083 15.8182 44.0953 14.7122 44.0953 13.5022C44.0953 12.3162 43.9083 11.2152 43.5333 10.1992C43.1573 9.18424 42.6193 8.30724 41.9183 7.56824C41.2153 6.83024 40.3753 6.25624 39.3953 5.84424C38.4163 5.43324 37.3203 5.22724 36.1113 5.22724C34.9003 5.22724 33.8063 5.43324 32.8263 5.84424C31.8463 6.25624 31.0053 6.83024 30.3043 7.56824C29.6023 8.30724 29.0633 9.18424 28.6883 10.1992C28.3133 11.2152 28.1263 12.3162 28.1263 13.5022ZM22.2473 13.5022C22.2473 11.4452 22.5913 9.58224 23.2813 7.91224C23.9713 6.24324 24.9323 4.82224 26.1673 3.64824C27.4003 2.47524 28.8643 1.57424 30.5583 0.944244C32.2513 0.315244 34.1023 0.000244141 36.1113 0.000244141C38.1193 0.000244141 39.9703 0.315244 41.6643 0.944244C43.3573 1.57424 44.8213 2.47524 46.0553 3.64824C47.2893 4.82224 48.2513 6.24324 48.9403 7.91224C49.6303 9.58224 49.9753 11.4452 49.9753 13.5022C49.9753 15.5592 49.6303 17.4222 48.9403 19.0912C48.2513 20.7602 47.2893 22.1822 46.0553 23.3562C44.8213 24.5292 43.3573 25.4302 41.6643 26.0592C39.9703 26.6882 38.1193 27.0032 36.1113 27.0032C34.1023 27.0032 32.2513 26.6882 30.5583 26.0592C28.8643 25.4302 27.4003 24.5292 26.1673 23.3562C24.9323 22.1822 23.9713 20.7602 23.2813 19.0912C22.5913 17.4222 22.2473 15.5592 22.2473 13.5022Z" fill="#53585A"/>
<path fill-rule="evenodd" clip-rule="evenodd" d="M81.4409 24.5355C79.7719 25.4065 78.0289 26.0355 76.2149 26.4225C74.3999 26.8085 72.5489 27.0035 70.6619 27.0035C68.6529 27.0035 66.8019 26.6875 65.1089 26.0585C63.4149 25.4305 61.9519 24.5295 60.7179 23.3555C59.4829 22.1815 58.5219 20.7605 57.8329 19.0915C57.1429 17.4225 56.7979 15.5585 56.7979 13.5025C56.7979 11.4455 57.1429 9.58249 57.8329 7.91249C58.5219 6.24349 59.4829 4.82249 60.7179 3.64849C61.9519 2.47449 63.4149 1.57449 65.1089 0.944488C66.8019 0.315488 68.6529 0.000488281 70.6619 0.000488281C72.7179 0.000488281 74.6119 0.249488 76.3419 0.744488C78.0709 1.24049 79.5899 2.09449 80.8969 3.30349L76.9039 7.65849C76.1299 6.86049 75.2589 6.25649 74.2919 5.84449C73.3229 5.43249 72.1139 5.22649 70.6619 5.22649C69.4519 5.22649 68.3579 5.43249 67.3779 5.84449C66.3979 6.25649 65.5569 6.83049 64.8549 7.56849C64.1529 8.30649 63.6149 9.18349 63.2399 10.1995C62.8649 11.2155 62.6769 12.3165 62.6769 13.5025C62.6769 14.7125 62.8649 15.8185 63.2399 16.8225C63.6149 17.8275 64.1529 18.6975 64.8549 19.4355C65.5569 20.1745 66.3979 20.7485 67.3779 21.1605C68.3579 21.5715 69.4519 21.7775 70.6619 21.7775C71.8959 21.7775 72.9609 21.6385 73.8559 21.3595C74.7509 21.0825 75.4639 20.7975 75.9969 20.5065V16.3325H71.3879V11.1065H81.4409V24.5355Z" fill="#53585A"/>
<path fill-rule="evenodd" clip-rule="evenodd" d="M90.696 26.35H96.358V0.655029H90.696V26.35Z" fill="#53585A"/>
<path fill-rule="evenodd" clip-rule="evenodd" d="M118.568 6.933C118.109 6.352 117.486 5.923 116.699 5.645C115.914 5.367 115.17 5.227 114.468 5.227C114.056 5.227 113.633 5.276 113.197 5.372C112.762 5.469 112.35 5.621 111.964 5.827C111.576 6.032 111.261 6.304 111.02 6.643C110.777 6.982 110.657 7.393 110.657 7.877C110.657 8.651 110.947 9.245 111.528 9.655C112.109 10.067 112.84 10.417 113.724 10.707C114.607 10.998 115.556 11.288 116.572 11.579C117.589 11.87 118.539 12.281 119.422 12.813C120.304 13.345 121.037 14.059 121.617 14.954C122.199 15.85 122.488 17.047 122.488 18.547C122.488 19.975 122.222 21.221 121.689 22.286C121.158 23.35 120.437 24.233 119.531 24.934C118.623 25.637 117.57 26.157 116.373 26.495C115.175 26.834 113.911 27.003 112.58 27.003C110.911 27.003 109.362 26.749 107.935 26.241C106.507 25.733 105.176 24.911 103.943 23.774L107.971 19.346C108.552 20.12 109.283 20.719 110.167 21.142C111.05 21.565 111.964 21.778 112.907 21.778C113.366 21.778 113.833 21.723 114.304 21.614C114.776 21.504 115.199 21.342 115.574 21.123C115.949 20.907 116.252 20.628 116.482 20.289C116.713 19.951 116.826 19.551 116.826 19.091C116.826 18.317 116.531 17.706 115.937 17.258C115.345 16.811 114.6 16.43 113.706 16.116C112.81 15.801 111.842 15.487 110.802 15.172C109.761 14.858 108.794 14.434 107.899 13.901C107.003 13.37 106.259 12.667 105.667 11.796C105.073 10.925 104.777 9.776 104.777 8.348C104.777 6.969 105.049 5.76 105.594 4.719C106.138 3.679 106.864 2.808 107.772 2.106C108.679 1.405 109.725 0.878 110.911 0.528C112.096 0.176 113.318 0 114.577 0C116.029 0 117.431 0.207 118.787 0.618C120.142 1.03 121.363 1.719 122.453 2.687L118.568 6.933Z" fill="#53585A"/>
<path fill-rule="evenodd" clip-rule="evenodd" d="M136.025 5.66254H128.694V0.654541H149.018V5.66254H141.687V26.3495H136.025V5.66254Z" fill="#53585A"/>
<path fill-rule="evenodd" clip-rule="evenodd" d="M156.168 26.35H161.829V0.655029H156.168V26.35Z" fill="#53585A"/>
<path fill-rule="evenodd" clip-rule="evenodd" d="M188.142 7.33249C187.585 6.65449 186.902 6.13549 186.091 5.77149C185.281 5.40849 184.343 5.22749 183.279 5.22749C182.213 5.22749 181.228 5.43349 180.321 5.84449C179.413 6.25649 178.626 6.83049 177.961 7.56849C177.296 8.30749 176.776 9.18449 176.401 10.1995C176.026 11.2155 175.838 12.3165 175.838 13.5025C175.838 14.7125 176.026 15.8185 176.401 16.8225C176.776 17.8275 177.29 18.6975 177.944 19.4365C178.597 20.1745 179.365 20.7485 180.248 21.1605C181.131 21.5715 182.08 21.7775 183.097 21.7775C184.258 21.7775 185.287 21.5355 186.182 21.0515C187.077 20.5665 187.815 19.8905 188.396 19.0195L193.114 22.5395C192.025 24.0625 190.646 25.1875 188.977 25.9145C187.307 26.6415 185.589 27.0035 183.823 27.0035C181.815 27.0035 179.963 26.6875 178.27 26.0595C176.577 25.4305 175.113 24.5295 173.878 23.3555C172.645 22.1825 171.683 20.7605 170.994 19.0915C170.304 17.4225 169.959 15.5595 169.959 13.5025C169.959 11.4455 170.304 9.58249 170.994 7.91249C171.683 6.24349 172.645 4.82249 173.878 3.64849C175.113 2.47549 176.577 1.57449 178.27 0.944488C179.963 0.315488 181.815 0.000488281 183.823 0.000488281C184.549 0.000488281 185.305 0.0674883 186.091 0.200488C186.877 0.334488 187.652 0.545488 188.414 0.836488C189.176 1.12649 189.908 1.51449 190.61 1.99749C191.311 2.48049 191.94 3.07449 192.497 3.77549L188.142 7.33249Z" fill="#53585A"/>
<path fill-rule="evenodd" clip-rule="evenodd" d="M205.054 13.5022C205.054 14.7122 205.241 15.8182 205.616 16.8222C205.991 17.8272 206.53 18.6972 207.232 19.4362C207.933 20.1742 208.775 20.7482 209.754 21.1602C210.734 21.5712 211.828 21.7772 213.038 21.7772C214.248 21.7772 215.343 21.5712 216.324 21.1602C217.303 20.7482 218.144 20.1742 218.846 19.4362C219.547 18.6972 220.085 17.8272 220.46 16.8222C220.835 15.8182 221.023 14.7122 221.023 13.5022C221.023 12.3162 220.835 11.2152 220.46 10.1992C220.085 9.18424 219.547 8.30724 218.846 7.56824C218.144 6.83024 217.303 6.25624 216.324 5.84424C215.343 5.43324 214.248 5.22724 213.038 5.22724C211.828 5.22724 210.734 5.43324 209.754 5.84424C208.775 6.25624 207.933 6.83024 207.232 7.56824C206.53 8.30724 205.991 9.18424 205.616 10.1992C205.241 11.2152 205.054 12.3162 205.054 13.5022ZM199.175 13.5022C199.175 11.4452 199.52 9.58224 200.209 7.91224C200.899 6.24324 201.861 4.82224 203.094 3.64824C204.328 2.47524 205.792 1.57424 207.486 0.944244C209.179 0.315244 211.031 0.000244141 213.038 0.000244141C215.047 0.000244141 216.898 0.315244 218.591 0.944244C220.284 1.57424 221.749 2.47524 222.983 3.64824C224.217 4.82224 225.179 6.24324 225.868 7.91224C226.558 9.58224 226.903 11.4452 226.903 13.5022C226.903 15.5592 226.558 17.4222 225.868 19.0912C225.179 20.7602 224.217 22.1822 222.983 23.3562C221.749 24.5292 220.284 25.4302 218.591 26.0592C216.898 26.6882 215.047 27.0032 213.038 27.0032C211.031 27.0032 209.179 26.6882 207.486 26.0592C205.792 25.4302 204.328 24.5292 203.094 23.3562C201.861 22.1822 200.899 20.7602 200.209 19.0912C199.52 17.4222 199.175 15.5592 199.175 13.5022Z" fill="#53585A"/>
<path fill-rule="evenodd" clip-rule="evenodd" d="M76.7642 48.4612H79.6672C80.0582 48.4612 80.4352 48.4242 80.7982 48.3502C81.1612 48.2752 81.4872 48.1492 81.7752 47.9732C82.0642 47.7952 82.2962 47.5532 82.4732 47.2462C82.6502 46.9402 82.7392 46.5532 82.7392 46.0882C82.7392 45.5852 82.6222 45.1802 82.3892 44.8732C82.1572 44.5662 81.8592 44.3282 81.4962 44.1612C81.1332 43.9942 80.7282 43.8872 80.2822 43.8402C79.8352 43.7942 79.4072 43.7712 78.9972 43.7712H76.7642V48.4612ZM72.4092 40.0862H79.7512C80.7752 40.0862 81.7432 40.1792 82.6552 40.3642C83.5662 40.5512 84.3622 40.8712 85.0422 41.3282C85.7212 41.7832 86.2612 42.3992 86.6612 43.1702C87.0612 43.9432 87.2612 44.9152 87.2612 46.0882C87.2612 47.2422 87.0752 48.2092 86.7032 48.9912C86.3302 49.7732 85.8192 50.3972 85.1672 50.8612C84.5152 51.3272 83.7432 51.6572 82.8502 51.8532C81.9572 52.0482 80.9892 52.1462 79.9472 52.1462H76.7642V59.8522H72.4092V40.0862Z" fill="#C49A6B"/>
<path fill-rule="evenodd" clip-rule="evenodd" d="M99.4614 45.8362L97.0604 51.9792H101.89L99.4614 45.8362ZM97.7864 40.0862H101.387L109.986 59.8522H105.073L103.37 55.6642H95.6924L94.0454 59.8522H89.2434L97.7864 40.0862Z" fill="#C49A6B"/>
<path fill-rule="evenodd" clip-rule="evenodd" d="M119.673 48.2659H122.241C122.632 48.2659 123.046 48.2509 123.484 48.2229C123.921 48.1959 124.318 48.1119 124.671 47.9729C125.025 47.8319 125.318 47.6139 125.55 47.3169C125.782 47.0189 125.9 46.5999 125.9 46.0599C125.9 45.5569 125.796 45.1579 125.593 44.8599C125.388 44.5619 125.126 44.3339 124.81 44.1759C124.493 44.0179 124.13 43.9109 123.722 43.8539C123.312 43.7989 122.911 43.7709 122.521 43.7709H119.673V48.2659ZM115.318 40.0859H122.968C123.974 40.0859 124.927 40.1839 125.829 40.3789C126.732 40.5749 127.523 40.8999 128.202 41.3559C128.882 41.8119 129.421 42.4259 129.821 43.1989C130.222 43.9709 130.421 44.9339 130.421 46.0879C130.421 47.4839 130.06 48.6699 129.333 49.6469C128.607 50.6239 127.546 51.2439 126.15 51.5039L131.175 59.8519H125.954L121.823 51.9509H119.673V59.8519H115.318V40.0859Z" fill="#C49A6B"/>
<path fill-rule="evenodd" clip-rule="evenodd" d="M136.927 40.0862H141.282V48.2932L148.959 40.0862H154.655L145.861 49.2702L155.408 59.8522H149.323L141.282 50.4712V59.8522H136.927V40.0862Z" fill="#C49A6B"/>
<path fill-rule="evenodd" clip-rule="evenodd" d="M0 0.654541V26.3505H16.15V21.1235H5.662V0.654541H0Z" fill="#53585A"/>
</svg>
