<svg width="102" height="125" viewBox="0 0 102 125" fill="none" xmlns="http://www.w3.org/2000/svg">
<path fill-rule="evenodd" clip-rule="evenodd" d="M4.22693 99.8414C4.58693 99.8414 4.96093 99.8274 5.34893 99.8014C5.73593 99.7744 6.09293 99.6944 6.41993 99.5604C6.74793 99.4274 7.01393 99.2274 7.22193 98.9594C7.42793 98.6934 7.53193 98.3194 7.53193 97.8374C7.53193 97.3974 7.43893 97.0464 7.25093 96.7854C7.06493 96.5264 6.82393 96.3254 6.53093 96.1854C6.23693 96.0454 5.90993 95.9544 5.54893 95.9144C5.18893 95.8744 4.84093 95.8554 4.50693 95.8554H2.70493V99.8414H4.22693ZM0.179932 93.6914H4.94793C5.62893 93.6914 6.28693 93.7584 6.92093 93.8914C7.55493 94.0254 8.11293 94.2484 8.59393 94.5634C9.07493 94.8764 9.45793 95.2974 9.74593 95.8244C10.0329 96.3524 10.1759 97.0104 10.1759 97.7974C10.1759 98.6934 10.0229 99.4134 9.71493 99.9614C9.40893 100.509 8.99493 100.933 8.47393 101.233C7.95293 101.533 7.34793 101.737 6.66093 101.844C5.97293 101.95 5.25493 102.004 4.50693 102.004H2.70493V107.873H0.179932V93.6914Z" fill="#6D6E6D"/>
<path fill-rule="evenodd" clip-rule="evenodd" d="M16.9067 99.7009C17.2667 99.7009 17.6287 99.6839 17.9887 99.6509C18.3487 99.6179 18.6797 99.5379 18.9797 99.4109C19.2807 99.2839 19.5237 99.0899 19.7117 98.8299C19.8977 98.5689 19.9917 98.2059 19.9917 97.7379C19.9917 97.3239 19.9047 96.9899 19.7307 96.7359C19.5577 96.4829 19.3307 96.2929 19.0507 96.1659C18.7697 96.0389 18.4597 95.9549 18.1187 95.9149C17.7777 95.8749 17.4477 95.8549 17.1277 95.8549H14.9437V99.7009H16.9067ZM12.4197 93.6909H17.3467C18.0287 93.6909 18.6857 93.7549 19.3207 93.8819C19.9547 94.0089 20.5187 94.2249 21.0127 94.5329C21.5077 94.8409 21.9007 95.2539 22.1947 95.7749C22.4887 96.2959 22.6357 96.9569 22.6357 97.7579C22.6357 98.7859 22.3517 99.6479 21.7847 100.342C21.2177 101.037 20.4057 101.457 19.3507 101.604L23.1167 107.874H20.0717L16.7867 101.864H14.9437V107.874H12.4197V93.6909Z" fill="#6D6E6D"/>
<path fill-rule="evenodd" clip-rule="evenodd" d="M26.9221 100.682C26.9221 101.444 27.0381 102.145 27.2731 102.786C27.5061 103.426 27.8361 103.981 28.2641 104.448C28.6911 104.915 29.2011 105.283 29.7961 105.55C30.3901 105.817 31.0551 105.951 31.7891 105.951C32.5241 105.951 33.1921 105.817 33.7921 105.55C34.3941 105.283 34.9071 104.915 35.3351 104.448C35.7621 103.981 36.0931 103.426 36.3261 102.786C36.5601 102.145 36.6771 101.444 36.6771 100.682C36.6771 99.9742 36.5601 99.3142 36.3261 98.6992C36.0931 98.0852 35.7621 97.5472 35.3351 97.0862C34.9071 96.6252 34.3941 96.2652 33.7921 96.0042C33.1921 95.7452 32.5241 95.6152 31.7891 95.6152C31.0551 95.6152 30.3901 95.7452 29.7961 96.0042C29.2011 96.2652 28.6911 96.6252 28.2641 97.0862C27.8361 97.5472 27.5061 98.0852 27.2731 98.6992C27.0381 99.3142 26.9221 99.9742 26.9221 100.682ZM24.2771 100.842C24.2771 99.7072 24.4641 98.6762 24.8381 97.7472C25.2121 96.8202 25.7301 96.0292 26.3911 95.3732C27.0521 94.7202 27.8401 94.2152 28.7541 93.8622C29.6691 93.5082 30.6741 93.3302 31.7701 93.3302C32.8771 93.3182 33.8931 93.4812 34.8141 93.8222C35.7351 94.1612 36.5291 94.6602 37.1971 95.3142C37.8651 95.9682 38.3861 96.7562 38.7601 97.6772C39.1341 98.5992 39.3211 99.6272 39.3211 100.762C39.3211 101.87 39.1341 102.879 38.7601 103.787C38.3861 104.696 37.8651 105.477 37.1971 106.13C36.5291 106.786 35.7351 107.296 34.8141 107.663C33.8931 108.031 32.8771 108.22 31.7701 108.234C30.6741 108.234 29.6691 108.057 28.7541 107.703C27.8401 107.349 27.0521 106.849 26.3911 106.201C25.7301 105.553 25.2121 104.776 24.8381 103.868C24.4641 102.959 24.2771 101.951 24.2771 100.842Z" fill="#6D6E6D"/>
<path fill-rule="evenodd" clip-rule="evenodd" d="M45.7719 99.8414C46.1319 99.8414 46.5059 99.8274 46.8939 99.8014C47.2809 99.7744 47.6379 99.6944 47.9649 99.5604C48.2929 99.4274 48.5589 99.2274 48.7669 98.9594C48.9729 98.6934 49.0769 98.3194 49.0769 97.8374C49.0769 97.3974 48.9839 97.0464 48.7959 96.7854C48.6099 96.5264 48.3689 96.3254 48.0759 96.1854C47.7819 96.0454 47.4549 95.9544 47.0939 95.9144C46.7339 95.8744 46.3859 95.8554 46.0519 95.8554H44.2499V99.8414H45.7719ZM41.7249 93.6914H46.4929C47.1739 93.6914 47.8319 93.7584 48.4659 93.8914C49.0999 94.0254 49.6579 94.2484 50.1389 94.5634C50.6199 94.8764 51.0029 95.2974 51.2909 95.8244C51.5779 96.3524 51.7209 97.0104 51.7209 97.7974C51.7209 98.6934 51.5679 99.4134 51.2599 99.9614C50.9539 100.509 50.5399 100.933 50.0189 101.233C49.4979 101.533 48.8929 101.737 48.2059 101.844C47.5179 101.95 46.7999 102.004 46.0519 102.004H44.2499V107.873H41.7249V93.6914Z" fill="#6D6E6D"/>
<path fill-rule="evenodd" clip-rule="evenodd" d="M53.9641 93.6912H63.3601V95.9752H56.4881V99.4612H62.9981V101.744H56.4881V105.59H63.7201V107.874H53.9641V93.6912Z" fill="#6D6E6D"/>
<path fill-rule="evenodd" clip-rule="evenodd" d="M70.6899 99.7009C71.0499 99.7009 71.4119 99.6839 71.7719 99.6509C72.1319 99.6179 72.4629 99.5379 72.7629 99.4109C73.0639 99.2839 73.3069 99.0899 73.4949 98.8299C73.6809 98.5689 73.7749 98.2059 73.7749 97.7379C73.7749 97.3239 73.6879 96.9899 73.5139 96.7359C73.3409 96.4829 73.1139 96.2929 72.8339 96.1659C72.5529 96.0389 72.2429 95.9549 71.9019 95.9149C71.5609 95.8749 71.2309 95.8549 70.9109 95.8549H68.7269V99.7009H70.6899ZM66.2029 93.6909H71.1299C71.8119 93.6909 72.4689 93.7549 73.1039 93.8819C73.7379 94.0089 74.3019 94.2249 74.7959 94.5329C75.2909 94.8409 75.6839 95.2539 75.9779 95.7749C76.2719 96.2959 76.4189 96.9569 76.4189 97.7579C76.4189 98.7859 76.1349 99.6479 75.5679 100.342C75.0009 101.037 74.1889 101.457 73.1339 101.604L76.8999 107.874H73.8549L70.5699 101.864H68.7269V107.874H66.2029V93.6909Z" fill="#6D6E6D"/>
<path fill-rule="evenodd" clip-rule="evenodd" d="M81.3675 95.9754H77.0205V93.6914H88.2375V95.9754H83.8905V107.873H81.3675V95.9754Z" fill="#6D6E6D"/>
<path fill-rule="evenodd" clip-rule="evenodd" d="M93.4261 101.804L88.0981 93.6914H91.2631L94.7481 99.3404L98.2741 93.6914H101.279L95.9501 101.804V107.873H93.4261V101.804Z" fill="#6D6E6D"/>
<path fill-rule="evenodd" clip-rule="evenodd" d="M7.348 117.1C6.983 116.707 6.63 116.446 6.289 116.315C5.948 116.184 5.604 116.119 5.258 116.119C4.744 116.119 4.279 116.209 3.863 116.392C3.447 116.574 3.089 116.827 2.79 117.149C2.492 117.471 2.26 117.848 2.096 118.278C1.933 118.707 1.851 119.17 1.851 119.665C1.851 120.199 1.933 120.689 2.096 121.138C2.26 121.586 2.492 121.975 2.79 122.302C3.089 122.629 3.447 122.886 3.863 123.073C4.279 123.26 4.744 123.354 5.258 123.354C5.661 123.354 6.05 123.258 6.429 123.066C6.808 122.874 7.161 122.568 7.488 122.148L8.946 123.185C8.497 123.802 7.951 124.251 7.306 124.532C6.661 124.812 5.973 124.952 5.244 124.952C4.478 124.952 3.774 124.828 3.134 124.58C2.494 124.332 1.942 123.982 1.48 123.529C1.017 123.076 0.655 122.531 0.393 121.895C0.131 121.259 0 120.554 0 119.778C0 118.984 0.131 118.261 0.393 117.612C0.655 116.962 1.017 116.408 1.48 115.95C1.942 115.492 2.494 115.139 3.134 114.891C3.774 114.644 4.478 114.52 5.244 114.52C5.917 114.52 6.541 114.639 7.117 114.877C7.691 115.116 8.226 115.52 8.722 116.09L7.348 117.1Z" fill="#6D6E6D"/>
<path fill-rule="evenodd" clip-rule="evenodd" d="M11.4565 119.666C11.4565 120.199 11.5385 120.689 11.7015 121.139C11.8655 121.587 12.0975 121.976 12.3955 122.303C12.6945 122.63 13.0525 122.887 13.4685 123.073C13.8845 123.261 14.3505 123.354 14.8635 123.354C15.3775 123.354 15.8455 123.261 16.2665 123.073C16.6865 122.887 17.0465 122.63 17.3465 122.303C17.6445 121.976 17.8765 121.587 18.0395 121.139C18.2035 120.689 18.2855 120.199 18.2855 119.666C18.2855 119.171 18.2035 118.708 18.0395 118.278C17.8765 117.849 17.6445 117.472 17.3465 117.149C17.0465 116.827 16.6865 116.574 16.2665 116.393C15.8455 116.21 15.3775 116.119 14.8635 116.119C14.3505 116.119 13.8845 116.21 13.4685 116.393C13.0525 116.574 12.6945 116.827 12.3955 117.149C12.0975 117.472 11.8655 117.849 11.7015 118.278C11.5385 118.708 11.4565 119.171 11.4565 119.666ZM9.60547 119.778C9.60547 118.984 9.73647 118.262 9.99847 117.612C10.2605 116.963 10.6225 116.408 11.0855 115.95C11.5475 115.492 12.0995 115.14 12.7395 114.892C13.3795 114.645 14.0835 114.52 14.8505 114.52C15.6255 114.511 16.3365 114.625 16.9805 114.863C17.6265 115.103 18.1825 115.45 18.6495 115.908C19.1175 116.366 19.4815 116.918 19.7435 117.562C20.0055 118.208 20.1365 118.928 20.1365 119.723C20.1365 120.498 20.0055 121.204 19.7435 121.84C19.4815 122.476 19.1175 123.022 18.6495 123.48C18.1825 123.938 17.6265 124.296 16.9805 124.553C16.3365 124.81 15.6255 124.943 14.8505 124.952C14.0835 124.952 13.3795 124.828 12.7395 124.581C12.0995 124.333 11.5475 123.982 11.0855 123.529C10.6225 123.076 10.2605 122.531 9.99847 121.895C9.73647 121.26 9.60547 120.555 9.60547 119.778Z" fill="#6D6E6D"/>
<path fill-rule="evenodd" clip-rule="evenodd" d="M21.8176 114.772H24.1596L28.9686 122.148H28.9976V114.772H30.7636V124.7H28.5206L23.6126 117.085H23.5856V124.7H21.8176V114.772Z" fill="#6D6E6D"/>
<path fill-rule="evenodd" clip-rule="evenodd" d="M37.8449 116.904C37.6579 116.633 37.4079 116.434 37.0949 116.307C36.7819 116.181 36.4509 116.119 36.1059 116.119C35.9009 116.119 35.7009 116.142 35.5099 116.188C35.3189 116.235 35.1459 116.31 34.9909 116.413C34.8369 116.516 34.7129 116.649 34.6189 116.812C34.5259 116.976 34.4799 117.17 34.4799 117.394C34.4799 117.731 34.5959 117.988 34.8299 118.166C35.0639 118.343 35.3539 118.498 35.6989 118.629C36.0449 118.759 36.4239 118.885 36.8349 119.007C37.2459 119.129 37.6249 119.297 37.9709 119.511C38.3169 119.727 38.6069 120.012 38.8399 120.367C39.0739 120.722 39.1909 121.194 39.1909 121.783C39.1909 122.316 39.0929 122.781 38.8969 123.178C38.6999 123.576 38.4359 123.905 38.1039 124.167C37.7719 124.428 37.3869 124.625 36.9479 124.756C36.5079 124.886 36.0449 124.952 35.5589 124.952C34.9429 124.952 34.3489 124.849 33.7789 124.644C33.2079 124.438 32.7169 124.092 32.3059 123.606L33.6379 122.316C33.8529 122.643 34.1359 122.898 34.4869 123.081C34.8369 123.262 35.2079 123.354 35.6009 123.354C35.8069 123.354 36.0119 123.326 36.2179 123.269C36.4239 123.214 36.6109 123.13 36.7789 123.017C36.9479 122.905 37.0819 122.762 37.1859 122.59C37.2879 122.417 37.3399 122.218 37.3399 121.994C37.3399 121.629 37.2229 121.348 36.9899 121.152C36.7549 120.956 36.4659 120.79 36.1199 120.655C35.7739 120.519 35.3959 120.39 34.9849 120.269C34.5729 120.147 34.1949 119.981 33.8489 119.771C33.5019 119.561 33.2119 119.28 32.9789 118.929C32.7449 118.579 32.6279 118.109 32.6279 117.52C32.6279 117.007 32.7339 116.562 32.9439 116.188C33.1549 115.815 33.4299 115.504 33.7719 115.257C34.1129 115.008 34.5019 114.824 34.9429 114.702C35.3809 114.581 35.8299 114.52 36.2879 114.52C36.8119 114.52 37.3189 114.599 37.8099 114.758C38.2999 114.918 38.7419 115.179 39.1349 115.544L37.8449 116.904Z" fill="#6D6E6D"/>
<path fill-rule="evenodd" clip-rule="evenodd" d="M48.9788 121.054C48.9788 121.652 48.8748 122.192 48.6698 122.673C48.4638 123.155 48.1838 123.564 47.8288 123.901C47.4728 124.237 47.0528 124.496 46.5668 124.678C46.0808 124.861 45.5518 124.951 44.9818 124.951C44.4118 124.951 43.8838 124.861 43.3978 124.678C42.9118 124.496 42.4888 124.237 42.1278 123.901C41.7688 123.564 41.4888 123.155 41.2878 122.673C41.0858 122.192 40.9858 121.652 40.9858 121.054V114.772H42.7518V120.997C42.7518 121.241 42.7908 121.495 42.8648 121.762C42.9398 122.029 43.0638 122.274 43.2368 122.498C43.4098 122.722 43.6378 122.908 43.9228 123.052C44.2078 123.197 44.5618 123.269 44.9818 123.269C45.4028 123.269 45.7548 123.197 46.0408 123.052C46.3258 122.908 46.5548 122.722 46.7278 122.498C46.9008 122.274 47.0248 122.029 47.0998 121.762C47.1738 121.495 47.2108 121.241 47.2108 120.997V114.772H48.9788V121.054Z" fill="#6D6E6D"/>
<path fill-rule="evenodd" clip-rule="evenodd" d="M51.1516 114.772H52.9196V123.101H57.1386V124.7H51.1516V114.772Z" fill="#6D6E6D"/>
<path fill-rule="evenodd" clip-rule="evenodd" d="M59.1721 116.371H56.1301V114.772H63.9821V116.371H60.9391V124.7H59.1721V116.371Z" fill="#6D6E6D"/>
<path fill-rule="evenodd" clip-rule="evenodd" d="M69.353 120.914L67.825 116.876L66.268 120.914H69.353ZM67.109 114.772H68.638L72.915 124.7H70.895L69.97 122.429H65.665L64.768 124.7H62.791L67.109 114.772Z" fill="#6D6E6D"/>
<path fill-rule="evenodd" clip-rule="evenodd" d="M74.0208 114.772H76.3628L81.1718 122.148H81.2008V114.772H82.9668V124.7H80.7238L75.8158 117.085H75.7888V124.7H74.0208V114.772Z" fill="#6D6E6D"/>
<path fill-rule="evenodd" clip-rule="evenodd" d="M87.2161 116.371H84.1741V114.772H92.0261V116.371H88.9831V124.7H87.2161V116.371Z" fill="#6D6E6D"/>
<path fill-rule="evenodd" clip-rule="evenodd" d="M98.0971 116.904C97.9101 116.633 97.6601 116.434 97.3471 116.307C97.0341 116.181 96.7031 116.119 96.3581 116.119C96.1531 116.119 95.9531 116.142 95.7621 116.188C95.5711 116.235 95.3981 116.31 95.2431 116.413C95.0891 116.516 94.9651 116.649 94.8711 116.812C94.7781 116.976 94.7321 117.17 94.7321 117.394C94.7321 117.731 94.8481 117.988 95.0821 118.166C95.3161 118.343 95.6061 118.498 95.9511 118.629C96.2971 118.759 96.6761 118.885 97.0871 119.007C97.4981 119.129 97.8771 119.297 98.2231 119.511C98.5691 119.727 98.8591 120.012 99.0921 120.367C99.3261 120.722 99.4431 121.194 99.4431 121.783C99.4431 122.316 99.3451 122.781 99.1491 123.178C98.9521 123.576 98.6881 123.905 98.3561 124.167C98.0241 124.428 97.6391 124.625 97.2001 124.756C96.7601 124.886 96.2971 124.952 95.8111 124.952C95.1951 124.952 94.6011 124.849 94.0311 124.644C93.4601 124.438 92.9691 124.092 92.5581 123.606L93.8901 122.316C94.1051 122.643 94.3881 122.898 94.7391 123.081C95.0891 123.262 95.4601 123.354 95.8531 123.354C96.0591 123.354 96.2641 123.326 96.4701 123.269C96.6761 123.214 96.8631 123.13 97.0311 123.017C97.2001 122.905 97.3341 122.762 97.4381 122.59C97.5401 122.417 97.5921 122.218 97.5921 121.994C97.5921 121.629 97.4751 121.348 97.2421 121.152C97.0071 120.956 96.7181 120.79 96.3721 120.655C96.0261 120.519 95.6481 120.39 95.2371 120.269C94.8251 120.147 94.4471 119.981 94.1011 119.771C93.7541 119.561 93.4641 119.28 93.2311 118.929C92.9971 118.579 92.8801 118.109 92.8801 117.52C92.8801 117.007 92.9861 116.562 93.1961 116.188C93.4071 115.815 93.6821 115.504 94.0241 115.257C94.3651 115.008 94.7541 114.824 95.1951 114.702C95.6331 114.581 96.0821 114.52 96.5401 114.52C97.0641 114.52 97.5711 114.599 98.0621 114.758C98.5521 114.918 98.9941 115.179 99.3871 115.544L98.0971 116.904Z" fill="#6D6E6D"/>
<path fill-rule="evenodd" clip-rule="evenodd" d="M8.75757 53.8091C13.6916 71.8751 30.1706 85.1651 49.8026 85.1651C69.4276 85.1651 85.9066 71.8751 90.8356 53.8091H8.75757Z" fill="#00ACBB"/>
<path fill-rule="evenodd" clip-rule="evenodd" d="M90.8357 53.809C91.8137 50.229 92.3847 46.475 92.3847 42.58C92.3847 19.061 73.3157 0 49.8027 0C26.2817 0 7.21167 19.061 7.21167 42.58C7.21167 46.475 7.77967 50.229 8.75767 53.809H90.8357Z" fill="#064B8D"/>
<path fill-rule="evenodd" clip-rule="evenodd" d="M84.6931 42.5805C84.6931 61.8565 69.0711 77.4815 49.8021 77.4815C30.5221 77.4815 14.9001 61.8565 14.9001 42.5805C14.9001 23.3145 30.5221 7.6875 49.8021 7.6875C69.0711 7.6875 84.6931 23.3145 84.6931 42.5805Z" fill="#FFFFFE"/>
<path fill-rule="evenodd" clip-rule="evenodd" d="M24.1021 34.5344H29.9041V38.0144H29.9821C30.6041 36.8584 31.3401 35.9824 32.1891 35.4034C33.0461 34.8244 34.1101 34.5344 35.4011 34.5344H37.3341V40.0294C36.9271 39.8984 36.5161 39.8024 36.1131 39.7404C35.7181 39.6734 35.3031 39.6424 34.8611 39.6424C33.7461 39.6424 32.8701 39.7964 32.2281 40.1094C31.5831 40.4144 31.0861 40.8474 30.7411 41.4064C30.3931 41.9584 30.1661 42.6194 30.0641 43.3944C29.9511 44.1744 29.9041 45.0234 29.9041 45.9474V53.8084H24.1021V34.5344Z" fill="#672749"/>
<path fill-rule="evenodd" clip-rule="evenodd" d="M44.9591 43.3707C44.9591 44.7887 45.3621 45.9347 46.1841 46.8157C46.9901 47.6957 48.1321 48.1257 49.6031 48.1257C51.0701 48.1257 52.2161 47.6957 53.0301 46.8157C53.8481 45.9347 54.2511 44.7887 54.2511 43.3707C54.2511 41.9547 53.8481 40.8037 53.0301 39.9277C52.2161 39.0497 51.0701 38.6137 49.6031 38.6137C48.1321 38.6137 46.9901 39.0497 46.1841 39.9277C45.3621 40.8037 44.9591 41.9547 44.9591 43.3707ZM39.6221 34.5347H44.9591V36.4397H45.0371C45.2641 36.1037 45.5731 35.7607 45.9411 35.4167C46.3171 35.0667 46.7631 34.7577 47.2591 34.4637C47.7721 34.1827 48.3121 33.9537 48.9031 33.7717C49.4971 33.5917 50.1311 33.5017 50.8041 33.5017C52.1971 33.5017 53.4651 33.7397 54.5911 34.2137C55.7301 34.6947 56.7041 35.3617 57.5221 36.2247C58.3241 37.0957 58.9541 38.1207 59.4001 39.3037C59.8381 40.4907 60.0531 41.8017 60.0531 43.2197C60.0531 44.5307 59.8611 45.7907 59.4581 46.9877C59.0481 48.1887 58.4881 49.2527 57.7571 50.1827C57.0171 51.1117 56.1171 51.8547 55.0571 52.4067C54.0041 52.9637 52.8031 53.2397 51.4611 53.2397C50.2491 53.2397 49.1221 53.0517 48.0731 52.6767C47.0291 52.3047 46.1721 51.6607 45.4911 50.7627H45.4291V61.5947H39.6221V34.5347Z" fill="#672749"/>
<path fill-rule="evenodd" clip-rule="evenodd" d="M75.4951 39.6441H70.3851V44.8791C70.3851 45.3951 70.4131 45.8651 70.4601 46.2891C70.5151 46.7181 70.6321 47.0831 70.8081 47.3951C70.9881 47.7021 71.2701 47.9401 71.6371 48.1111C72.0171 48.2791 72.5101 48.3571 73.1321 48.3571C73.4411 48.3571 73.8481 48.3331 74.3531 48.2711C74.8571 48.1981 75.2371 48.0561 75.4951 47.8191V52.6551C74.8421 52.8911 74.1811 53.0461 73.4801 53.1221C72.7801 53.2011 72.0991 53.2401 71.4261 53.2401C70.4521 53.2401 69.5481 53.1361 68.7191 52.9301C67.8931 52.7271 67.1731 52.3931 66.5471 51.9431C65.9371 51.4951 65.4441 50.9081 65.1001 50.1821C64.7521 49.4561 64.5791 48.5801 64.5791 47.5511V39.6441H60.8701V34.5341H64.5791V28.3921H70.3851V34.5341H75.4951V39.6441Z" fill="#672749"/>
<path fill-rule="evenodd" clip-rule="evenodd" d="M8.75757 53.8091C13.6916 71.8751 30.1706 85.1651 49.8026 85.1651C69.4276 85.1651 85.9066 71.8751 90.8356 53.8091H8.75757Z" fill="#C49A6B"/>
<path fill-rule="evenodd" clip-rule="evenodd" d="M90.8357 53.809C91.8137 50.229 92.3847 46.475 92.3847 42.58C92.3847 19.061 73.3157 0 49.8027 0C26.2817 0 7.21167 19.061 7.21167 42.58C7.21167 46.475 7.77967 50.229 8.75767 53.809H90.8357Z" fill="#6D6E6D"/>
<path fill-rule="evenodd" clip-rule="evenodd" d="M84.6931 42.5805C84.6931 61.8565 69.0711 77.4815 49.8021 77.4815C30.5221 77.4815 14.9001 61.8565 14.9001 42.5805C14.9001 23.3145 30.5221 7.6875 49.8021 7.6875C69.0711 7.6875 84.6931 23.3145 84.6931 42.5805Z" fill="#FFFFFE"/>
<path fill-rule="evenodd" clip-rule="evenodd" d="M24.1021 34.5344H29.9041V38.0144H29.9821C30.6041 36.8584 31.3401 35.9824 32.1891 35.4034C33.0461 34.8244 34.1101 34.5344 35.4011 34.5344H37.3341V40.0294C36.9271 39.8984 36.5161 39.8024 36.1131 39.7404C35.7181 39.6734 35.3031 39.6424 34.8611 39.6424C33.7461 39.6424 32.8701 39.7964 32.2281 40.1094C31.5831 40.4144 31.0861 40.8474 30.7411 41.4064C30.3931 41.9584 30.1661 42.6194 30.0641 43.3944C29.9511 44.1744 29.9041 45.0234 29.9041 45.9474V53.8084H24.1021V34.5344Z" fill="#6D6E6D"/>
<path fill-rule="evenodd" clip-rule="evenodd" d="M44.9591 43.3707C44.9591 44.7887 45.3621 45.9347 46.1841 46.8157C46.9901 47.6957 48.1321 48.1257 49.6031 48.1257C51.0701 48.1257 52.2161 47.6957 53.0301 46.8157C53.8481 45.9347 54.2511 44.7887 54.2511 43.3707C54.2511 41.9547 53.8481 40.8037 53.0301 39.9277C52.2161 39.0497 51.0701 38.6137 49.6031 38.6137C48.1321 38.6137 46.9901 39.0497 46.1841 39.9277C45.3621 40.8037 44.9591 41.9547 44.9591 43.3707ZM39.6221 34.5347H44.9591V36.4397H45.0371C45.2641 36.1037 45.5731 35.7607 45.9411 35.4167C46.3171 35.0667 46.7631 34.7577 47.2591 34.4637C47.7721 34.1827 48.3121 33.9537 48.9031 33.7717C49.4971 33.5917 50.1311 33.5017 50.8041 33.5017C52.1971 33.5017 53.4651 33.7397 54.5911 34.2137C55.7301 34.6947 56.7041 35.3617 57.5221 36.2247C58.3241 37.0957 58.9541 38.1207 59.4001 39.3037C59.8381 40.4907 60.0531 41.8017 60.0531 43.2197C60.0531 44.5307 59.8611 45.7907 59.4581 46.9877C59.0481 48.1887 58.4881 49.2527 57.7571 50.1827C57.0171 51.1117 56.1171 51.8547 55.0571 52.4067C54.0041 52.9637 52.8031 53.2397 51.4611 53.2397C50.2491 53.2397 49.1221 53.0517 48.0731 52.6767C47.0291 52.3047 46.1721 51.6607 45.4911 50.7627H45.4291V61.5947H39.6221V34.5347Z" fill="#6D6E6D"/>
<path fill-rule="evenodd" clip-rule="evenodd" d="M75.4951 39.6441H70.3851V44.8791C70.3851 45.3951 70.4131 45.8651 70.4601 46.2891C70.5151 46.7181 70.6321 47.0831 70.8081 47.3951C70.9881 47.7021 71.2701 47.9401 71.6371 48.1111C72.0171 48.2791 72.5101 48.3571 73.1321 48.3571C73.4411 48.3571 73.8481 48.3331 74.3531 48.2711C74.8571 48.1981 75.2371 48.0561 75.4951 47.8191V52.6551C74.8421 52.8911 74.1811 53.0461 73.4801 53.1221C72.7801 53.2011 72.0991 53.2401 71.4261 53.2401C70.4521 53.2401 69.5481 53.1361 68.7191 52.9301C67.8931 52.7271 67.1731 52.3931 66.5471 51.9431C65.9371 51.4951 65.4441 50.9081 65.1001 50.1821C64.7521 49.4561 64.5791 48.5801 64.5791 47.5511V39.6441H60.8701V34.5341H64.5791V28.3921H70.3851V34.5341H75.4951V39.6441Z" fill="#6D6E6D"/>
</svg>
