<svg width="243" height="82" viewBox="0 0 243 82" fill="none" xmlns="http://www.w3.org/2000/svg">
<mask id="mask0" mask-type="alpha" maskUnits="userSpaceOnUse" x="0" y="0" width="59" height="80">
<path fill-rule="evenodd" clip-rule="evenodd" d="M0 0H58.6152V79.5735H0V0Z" fill="white"/>
</mask>
<g mask="url(#mask0)">
<path fill-rule="evenodd" clip-rule="evenodd" d="M58.6152 3.84257C38.0102 -5.6918 13.5005 3.12688 3.87964 23.5451C-5.74606 43.9619 3.15665 68.2378 23.7617 77.7707C33.4207 82.243 44.9088 78.1075 49.4233 68.5386C53.931 58.9698 49.7594 47.5949 40.1003 43.1216V43.1235C29.1558 38.0529 24.4252 25.1556 29.535 14.3068C34.6515 3.46652 47.6673 -1.21995 58.6152 3.84257Z" fill="#B45103"/>
</g>
<path fill-rule="evenodd" clip-rule="evenodd" d="M36.2247 0.58374C22.6009 2.17974 10.0942 10.5258 3.86136 23.7606C-5.71923 44.1029 3.14175 68.2897 23.655 77.7893C33.264 82.2418 44.6982 78.1229 49.1915 68.5909C53.68 59.0559 49.526 47.7207 39.9122 43.2663V43.2677C34.8014 40.8995 23.1953 40.6207 17.9439 28.8903C10.7532 12.8162 27.4749 1.45333 36.2247 0.58374Z" fill="#EB6608"/>
<path fill-rule="evenodd" clip-rule="evenodd" d="M23 77.7201C43.3898 87.306 67.6393 78.4411 77.1622 57.9163C86.685 37.3945 77.8761 12.9777 57.4863 3.39512C47.9309 -1.09898 36.562 3.0575 32.1003 12.6766C27.6334 22.3001 31.7611 33.7437 41.3217 38.2393H41.3231C52.1542 43.3354 56.8345 56.2976 51.7724 67.1998C46.715 78.1015 33.8325 82.8123 23 77.7201Z" fill="#005791"/>
<path fill-rule="evenodd" clip-rule="evenodd" d="M44.7754 80.5837C58.4024 78.9858 70.9041 70.6451 77.1383 57.4121C86.7188 37.0718 77.8599 12.8768 57.3464 3.37679C47.7341 -1.07301 36.2986 3.04412 31.8102 12.5771C27.3203 22.112 31.4694 33.4558 41.0864 37.9104C46.1972 40.2792 57.8085 40.557 63.0545 52.2836C70.2437 68.3512 53.5236 79.716 44.7754 80.5837Z" fill="#0070BA"/>
<path fill-rule="evenodd" clip-rule="evenodd" d="M105.052 53.5837H99.0432L91 30.5837H97.1507L102.024 46.1372L106.85 30.5837H113L105.052 53.5837Z" fill="#575756"/>
<path fill-rule="evenodd" clip-rule="evenodd" d="M126.047 53.5837C122.843 53.5837 119.639 52.686 117 51.2213L118.838 46.6858C121.288 48.0563 124.068 48.8119 126.094 48.8119C128.309 48.8119 129.393 48.1509 129.393 46.8751C129.393 45.5522 128.121 44.8912 125.717 44.0881C119.686 42.1979 117.613 40.5921 117.613 36.4346C117.613 32.0408 120.723 29.5837 126.141 29.5837C129.299 29.5837 131.749 30.3398 134.341 31.6152L132.55 36.2453C130.1 34.9224 128.074 34.3085 125.953 34.3085C124.068 34.3085 123.315 34.9224 123.315 36.009C123.315 37.0014 123.879 37.6624 126.66 38.6077C132.455 40.4974 135 41.962 135 46.3549C135 51.5052 131.136 53.5837 126.047 53.5837Z" fill="#575756"/>
<path fill-rule="evenodd" clip-rule="evenodd" d="M147.047 53.5837C143.843 53.5837 140.639 52.686 138 51.2213L139.837 46.6858C142.288 48.0563 145.068 48.8119 147.095 48.8119C149.309 48.8119 150.393 48.1509 150.393 46.8751C150.393 45.5522 149.121 44.8912 146.717 44.0881C140.686 42.1979 138.613 40.5921 138.613 36.4346C138.613 32.0408 141.723 29.5837 147.141 29.5837C150.299 29.5837 152.749 30.3398 155.34 31.6152L153.55 36.2453C151.1 34.9224 149.074 34.3085 146.953 34.3085C145.068 34.3085 144.314 34.9224 144.314 36.009C144.314 37.0014 144.879 37.6624 147.66 38.6077C153.455 40.4974 156 41.962 156 46.3549C156 51.5052 152.136 53.5837 147.047 53.5837Z" fill="#575756"/>
<path fill-rule="evenodd" clip-rule="evenodd" d="M184.907 34.5445C182.535 34.5445 181.139 36.1033 180.814 39.1742H189.326C189 36.3867 187.838 34.5445 184.907 34.5445ZM180.768 43.4735C181.139 47.0642 183.14 48.5289 185.512 48.5289C187.512 48.5289 188.721 47.7257 189.977 46.3552L193.465 49.8989C190.721 52.7806 188.674 53.5837 185.186 53.5837C179.093 53.5837 175 48.7176 175 41.5837C175 34.1664 179.233 29.5837 185.186 29.5837C191.466 29.5837 195 34.7333 195 41.6784C195 42.3869 194.954 42.9537 194.907 43.4735H180.768Z" fill="#575756"/>
<path fill-rule="evenodd" clip-rule="evenodd" d="M204.957 47.0266C205.903 48.0974 206.849 49.1696 208.692 49.1696C211.341 49.1696 213.09 47.3988 213.09 42.7879C213.09 37.5707 211.246 35.6612 208.598 35.6612C206.896 35.6612 205.95 36.6392 204.957 37.7568V47.0266ZM204.957 32.9129C206.612 31.4689 207.983 30.5837 210.395 30.5837C214.886 30.5837 219 33.9842 219 42.5549C219 50.5657 214.886 54.2461 210.111 54.2461C207.794 54.2461 206.423 53.2681 204.957 51.9169V59.9288L199 62.5837V31.0962H204.957V32.9129Z" fill="#575756"/>
<path fill-rule="evenodd" clip-rule="evenodd" d="M232.907 34.5445C230.535 34.5445 229.14 36.1033 228.814 39.1742H237.326C237 36.3867 235.838 34.5445 232.907 34.5445ZM228.768 43.4735C229.14 47.0642 231.14 48.5289 233.512 48.5289C235.512 48.5289 236.721 47.7257 237.977 46.3552L241.465 49.8989C238.721 52.7806 236.675 53.5837 233.186 53.5837C227.093 53.5837 223 48.7176 223 41.5837C223 34.1664 227.233 29.5837 233.186 29.5837C239.466 29.5837 243 34.7333 243 41.6784C243 42.3869 242.954 42.9537 242.907 43.4735H228.768Z" fill="#575756"/>
</svg>
