<svg width="128" height="120" viewBox="0 0 128 120" fill="none" xmlns="http://www.w3.org/2000/svg">
<path fill-rule="evenodd" clip-rule="evenodd" d="M25.7229 50.4204C30.3384 67.3368 45.7777 79.801 64.1722 79.801C82.5611 79.801 98.0041 67.3368 102.618 50.4204H25.7229Z" fill="#0090D5"/>
<mask id="mask0" mask-type="alpha" maskUnits="userSpaceOnUse" x="24" y="0" width="81" height="51">
<path fill-rule="evenodd" clip-rule="evenodd" d="M24.2676 0H104.076V50.4203H24.2676V0Z" fill="white"/>
</mask>
<g mask="url(#mask0)">
<path fill-rule="evenodd" clip-rule="evenodd" d="M102.634 50.4203C103.547 47.0642 104.076 43.5458 104.076 39.8988C104.076 17.8563 86.2047 -0.000488281 64.1725 -0.000488281C42.1356 -0.000488281 24.2676 17.8563 24.2676 39.8988C24.2676 43.5458 24.8025 47.0642 25.7176 50.4203H102.634Z" fill="#004A99"/>
</g>
<path fill-rule="evenodd" clip-rule="evenodd" d="M96.8691 39.8988C96.8691 57.9574 82.2239 72.5876 64.1719 72.5876C46.1095 72.5876 31.4746 57.9574 31.4746 39.8988C31.4746 21.844 46.1095 7.19873 64.1719 7.19873C82.2239 7.19873 96.8691 21.844 96.8691 39.8988Z" fill="#FEFEFE"/>
<path fill-rule="evenodd" clip-rule="evenodd" d="M68.1826 25.6638H62.4615V31.5463H53.7363V31.6439L49.438 44.2836H49.361L44.7276 31.6439H38.6143L46.1992 50.2571H52.2046L57.448 36.7672H62.4615V44.5652C62.4615 45.5703 62.6248 46.4375 62.9673 47.1582C63.3108 47.8621 63.7923 48.4487 64.4032 48.8907C65.0208 49.3412 65.7246 49.6603 66.5346 49.8733C67.3576 50.0723 68.2576 50.1689 69.213 50.1689C69.8728 50.1689 70.5523 50.138 71.2346 50.0563C71.9272 49.9887 72.5869 49.8339 73.2232 49.5918V44.8364C72.9633 45.0616 72.5869 45.193 72.0961 45.2718C71.6015 45.331 71.2036 45.3591 70.8864 45.3591C70.2885 45.3591 69.794 45.284 69.4233 45.1085C69.0535 44.9481 68.7729 44.7116 68.5964 44.4141C68.4191 44.1044 68.3036 43.744 68.2633 43.3198C68.2135 42.8984 68.1826 42.4442 68.1826 41.9308V36.7672H73.2232V31.5463H68.1826V25.6638Z" fill="#004A99"/>
<path fill-rule="evenodd" clip-rule="evenodd" d="M89.4124 41.6465C88.9647 40.9717 88.3913 40.4536 87.7062 40.0632C87.0061 39.6737 86.2637 39.3762 85.4716 39.1998C84.6889 39.0159 83.9409 38.8441 83.2587 38.693C82.5567 38.5194 81.9776 38.3429 81.5252 38.143C81.0851 37.9328 80.8505 37.6109 80.8505 37.1755C80.8505 36.6349 81.0851 36.2585 81.5121 36.0352C81.9504 35.824 82.399 35.7105 82.8598 35.7105C84.1681 35.7105 85.2389 36.2126 86.0357 37.2158L89.3974 33.8907C88.5677 33.0095 87.5607 32.4013 86.3585 32.0644C85.1676 31.7153 83.9963 31.5454 82.8194 31.5454C81.9025 31.5454 80.9828 31.6552 80.0828 31.9002C79.195 32.1245 78.3832 32.4877 77.6905 32.971C77.0026 33.4712 76.4386 34.0747 76.0097 34.8339C75.5808 35.5922 75.3696 36.4838 75.3696 37.5377C75.3696 38.6583 75.6024 39.5499 76.0557 40.219C76.5024 40.8863 77.0758 41.4062 77.7619 41.7703C78.4639 42.1401 79.2025 42.4038 79.9927 42.5868C80.7829 42.7727 81.5252 42.9538 82.2272 43.0946C82.9123 43.2616 83.483 43.4596 83.9409 43.683C84.3867 43.9223 84.6138 44.263 84.6138 44.7247C84.6138 45.2184 84.3605 45.5572 83.8415 45.727C83.3337 45.9194 82.7622 46.003 82.1278 46.003C81.3028 46.003 80.5699 45.8528 79.9561 45.5149C79.3385 45.1855 78.7717 44.7116 78.2583 44.0781L74.9426 47.7645C75.8098 48.6617 76.8787 49.2943 78.1373 49.6359C79.4099 49.9888 80.6712 50.169 81.9138 50.169C82.8598 50.169 83.8274 50.0826 84.7969 49.8874C85.7795 49.7157 86.6448 49.3938 87.4275 48.9564C88.1952 48.5031 88.839 47.9025 89.3448 47.1583C89.8432 46.4112 90.089 45.4821 90.089 44.3287C90.089 43.2081 89.86 42.3194 89.4124 41.6465Z" fill="#004A99"/>
<path fill-rule="evenodd" clip-rule="evenodd" d="M18.8328 89.2654H21.7487L25.6312 100.026L29.633 89.2654H32.3697L26.6157 103.506H24.4234L18.8328 89.2654Z" fill="#004A99"/>
<path fill-rule="evenodd" clip-rule="evenodd" d="M40.616 98.0746L38.4236 92.2822L36.191 98.0746H40.616ZM37.3969 89.2649H39.5893L45.7242 103.506H42.828L41.4991 100.246H35.3257L34.0371 103.506H31.2019L37.3969 89.2649Z" fill="#004A99"/>
<path fill-rule="evenodd" clip-rule="evenodd" d="M54.292 92.3227C54.0246 91.9342 53.6651 91.6479 53.2165 91.4677C52.767 91.2866 52.294 91.1956 51.7994 91.1956C51.5038 91.1956 51.2185 91.2303 50.9435 91.296C50.6685 91.3645 50.4207 91.4706 50.1993 91.6188C49.9787 91.7652 49.7995 91.9567 49.6652 92.1913C49.532 92.426 49.4653 92.7037 49.4653 93.0266C49.4653 93.509 49.6324 93.8778 49.9684 94.1321C50.3034 94.3874 50.7192 94.6089 51.2147 94.7966C51.7112 94.9843 52.2536 95.1654 52.8439 95.34C53.4343 95.5136 53.9767 95.7548 54.4732 96.0636C54.9706 96.3714 55.3844 96.7806 55.7195 97.2902C56.0555 97.7998 56.2244 98.4774 56.2244 99.3211C56.2244 100.085 56.0827 100.752 55.8002 101.323C55.5205 101.893 55.1404 102.366 54.6637 102.742C54.1879 103.117 53.636 103.398 53.0054 103.587C52.3747 103.773 51.7112 103.867 51.0148 103.867C50.1289 103.867 49.2767 103.721 48.4593 103.425C47.6418 103.13 46.938 102.633 46.3477 101.937L48.2575 100.085C48.5672 100.555 48.9726 100.921 49.4747 101.181C49.9787 101.444 50.5108 101.573 51.0749 101.573C51.3686 101.573 51.6633 101.534 51.9589 101.453C52.2536 101.374 52.523 101.253 52.7632 101.092C53.0054 100.931 53.1996 100.727 53.3479 100.477C53.4943 100.23 53.5685 99.9452 53.5685 99.6233C53.5685 99.1015 53.4014 98.6979 53.0654 98.4164C52.7304 98.1348 52.3146 97.8965 51.8191 97.7022C51.3226 97.5079 50.7802 97.324 50.1899 97.1494C49.5996 96.9748 49.0552 96.7365 48.5606 96.4362C48.0632 96.134 47.6475 95.7323 47.3134 95.2283C46.9783 94.7262 46.8094 94.0524 46.8094 93.2068C46.8094 92.4691 46.9614 91.8338 47.2627 91.296C47.5649 90.7611 47.9591 90.3134 48.4499 89.9586C48.9398 89.6048 49.4991 89.3383 50.1289 89.1647C50.7595 88.9901 51.4033 88.9028 52.0594 88.9028C52.8111 88.9028 53.5384 89.0173 54.2423 89.2454C54.9462 89.4734 55.5806 89.8479 56.1437 90.3716L54.292 92.3227Z" fill="#004A99"/>
<path fill-rule="evenodd" clip-rule="evenodd" d="M58.7974 103.506H61.3322V89.2651H58.7974V103.506Z" fill="#004A99"/>
<path fill-rule="evenodd" clip-rule="evenodd" d="M64.4507 89.2654H66.9837V101.212H73.0379V103.506H64.4507V89.2654Z" fill="#004A99"/>
<path fill-rule="evenodd" clip-rule="evenodd" d="M74.8286 103.506H77.3616V89.2651H74.8286V103.506Z" fill="#004A99"/>
<path fill-rule="evenodd" clip-rule="evenodd" d="M80.4802 89.2654H83.0151V95.2999H83.1362L89.029 89.2654H92.4479L85.7902 95.8424L92.89 103.506H89.3303L83.1568 96.5059H83.0151V103.506H80.4802V89.2654Z" fill="#004A99"/>
<path fill-rule="evenodd" clip-rule="evenodd" d="M96.1487 96.2847C96.1487 97.0486 96.266 97.7525 96.5006 98.3963C96.7353 99.0411 97.0675 99.5967 97.4964 100.065C97.9253 100.535 98.4377 100.905 99.0355 101.172C99.6315 101.44 100.299 101.574 101.037 101.574C101.774 101.574 102.445 101.44 103.049 101.172C103.651 100.905 104.168 100.535 104.597 100.065C105.026 99.5967 105.358 99.0411 105.593 98.3963C105.827 97.7525 105.945 97.0486 105.945 96.2847C105.945 95.5743 105.827 94.9107 105.593 94.2932C105.358 93.6776 105.026 93.137 104.597 92.6743C104.168 92.2116 103.651 91.8494 103.049 91.5875C102.445 91.3266 101.774 91.1952 101.037 91.1952C100.299 91.1952 99.6315 91.3266 99.0355 91.5875C98.4377 91.8494 97.9253 92.2116 97.4964 92.6743C97.0675 93.137 96.7353 93.6776 96.5006 94.2932C96.266 94.9107 96.1487 95.5743 96.1487 96.2847ZM93.4946 96.4452C93.4946 95.3058 93.6814 94.2707 94.0568 93.3378C94.4331 92.4059 94.9521 91.6119 95.6156 90.954C96.2792 90.2971 97.0703 89.7912 97.9891 89.4355C98.9069 89.0808 99.9177 88.9034 101.017 88.9034C102.13 88.8893 103.149 89.0545 104.072 89.3952C104.999 89.7377 105.796 90.237 106.467 90.8949C107.138 91.5509 107.66 92.343 108.036 93.2674C108.411 94.1928 108.599 95.2261 108.599 96.3645C108.599 97.4785 108.411 98.4911 108.036 99.4015C107.66 100.315 107.138 101.099 106.467 101.755C105.796 102.412 104.999 102.926 104.072 103.294C103.149 103.663 102.13 103.854 101.017 103.867C99.9177 103.867 98.9069 103.689 97.9891 103.335C97.0703 102.98 96.2792 102.477 95.6156 101.826C94.9521 101.176 94.4331 100.395 94.0568 99.4822C93.6814 98.5718 93.4946 97.5582 93.4946 96.4452Z" fill="#004A99"/>
<path fill-rule="evenodd" clip-rule="evenodd" d="M2.79391 111.306H0V109.839H7.20954V111.306H4.41657V118.952H2.79391V111.306Z" fill="#004A99"/>
<path fill-rule="evenodd" clip-rule="evenodd" d="M8.31665 109.839H14.3549V111.306H9.93931V113.546H14.1222V115.014H9.93931V117.485H14.5858V118.953H8.31665V109.839Z" fill="#004A99"/>
<path fill-rule="evenodd" clip-rule="evenodd" d="M19.0654 113.701C19.2982 113.701 19.5291 113.69 19.7599 113.668C19.9927 113.647 20.2057 113.596 20.3981 113.514C20.5905 113.433 20.7482 113.308 20.8674 113.14C20.9884 112.974 21.0485 112.74 21.0485 112.439C21.0485 112.173 20.9922 111.958 20.8805 111.796C20.7679 111.633 20.6233 111.511 20.4441 111.428C20.262 111.347 20.0621 111.294 19.8444 111.268C19.6267 111.242 19.4136 111.229 19.2062 111.229H17.8041V113.701H19.0654ZM16.1824 109.839H19.3498C19.7862 109.839 20.2095 109.879 20.6158 109.962C21.025 110.043 21.3882 110.182 21.7054 110.38C22.0217 110.578 22.2751 110.843 22.4637 111.177C22.6524 111.512 22.7481 111.938 22.7481 112.452C22.7481 113.113 22.5651 113.666 22.2 114.112C21.8349 114.559 21.3141 114.829 20.6365 114.924L23.0559 118.953H21.1001L18.9885 115.09H17.8041V118.953H16.1824V109.839Z" fill="#004A99"/>
<path fill-rule="evenodd" clip-rule="evenodd" d="M24.3298 109.839H26.8009L29.2354 116.223L31.6933 109.839H34.1381V118.953H32.5952V111.384H32.5689L29.8013 118.953H28.6685L25.9009 111.384H25.8746V118.953H24.3298V109.839Z" fill="#004A99"/>
<path fill-rule="evenodd" clip-rule="evenodd" d="M36.1729 118.953H37.7955V109.839H36.1729V118.953Z" fill="#004A99"/>
<path fill-rule="evenodd" clip-rule="evenodd" d="M39.7913 109.839H41.9395L46.3551 116.61H46.3805V109.839H48.0031V118.953H45.9431L41.4374 111.964H41.412V118.953H39.7913V109.839Z" fill="#004A99"/>
<path fill-rule="evenodd" clip-rule="evenodd" d="M55.0435 115.477L53.6414 111.769L52.2112 115.477H55.0435ZM52.9854 109.839H54.3875L58.3133 118.953H56.4607L55.6104 116.866H51.6584L50.8353 118.953H49.0203L52.9854 109.839Z" fill="#004A99"/>
<path fill-rule="evenodd" clip-rule="evenodd" d="M59.3311 109.839H60.9537V117.485H64.8278V118.953H59.3311V109.839Z" fill="#004A99"/>
<path fill-rule="evenodd" clip-rule="evenodd" d="M74.2884 111.796C74.1176 111.547 73.8886 111.364 73.6014 111.248C73.3133 111.133 73.0111 111.074 72.6939 111.074C72.5052 111.074 72.3213 111.096 72.1458 111.139C71.9694 111.183 71.8117 111.25 71.669 111.345C71.5283 111.439 71.4138 111.562 71.3284 111.712C71.242 111.862 71.1998 112.04 71.1998 112.245C71.1998 112.556 71.3058 112.791 71.5226 112.954C71.7366 113.117 72.0022 113.26 72.3194 113.379C72.6366 113.499 72.9848 113.614 73.363 113.727C73.7403 113.839 74.0866 113.993 74.4057 114.19C74.7229 114.387 74.9885 114.649 75.2034 114.975C75.4174 115.301 75.5253 115.733 75.5253 116.274C75.5253 116.764 75.4343 117.191 75.2541 117.556C75.0749 117.92 74.8308 118.223 74.5268 118.463C74.2227 118.703 73.8689 118.884 73.4653 119.004C73.0618 119.124 72.6366 119.184 72.1918 119.184C71.6249 119.184 71.0787 119.09 70.556 118.901C70.0323 118.712 69.5809 118.395 69.2036 117.948L70.4284 116.764C70.6245 117.064 70.8845 117.298 71.2054 117.466C71.5283 117.633 71.8689 117.717 72.2303 117.717C72.4189 117.717 72.6075 117.691 72.7962 117.64C72.9848 117.588 73.1556 117.511 73.3114 117.407C73.4653 117.304 73.5902 117.174 73.6831 117.015C73.7788 116.857 73.8267 116.674 73.8267 116.468C73.8267 116.133 73.7187 115.876 73.5038 115.695C73.2898 115.516 73.0233 115.364 72.7061 115.239C72.3879 115.114 72.0407 114.997 71.6634 114.885C71.2861 114.773 70.938 114.621 70.6207 114.428C70.3035 114.235 70.0379 113.978 69.823 113.655C69.6072 113.334 69.5002 112.902 69.5002 112.362C69.5002 111.89 69.5978 111.482 69.7902 111.139C69.9826 110.796 70.236 110.51 70.5494 110.283C70.8629 110.056 71.2214 109.887 71.6249 109.775C72.0285 109.663 72.4386 109.607 72.8609 109.607C73.3405 109.607 73.806 109.679 74.2574 109.826C74.7079 109.972 75.1133 110.212 75.4747 110.546L74.2884 111.796Z" fill="#004A99"/>
<path fill-rule="evenodd" clip-rule="evenodd" d="M77.2119 109.839H83.2483V111.306H78.8327V113.546H83.0175V115.014H78.8327V117.485H83.4811V118.953H77.2119V109.839Z" fill="#004A99"/>
<path fill-rule="evenodd" clip-rule="evenodd" d="M87.9607 113.701C88.1916 113.701 88.4224 113.69 88.6552 113.668C88.8861 113.647 89.0991 113.596 89.2915 113.514C89.4858 113.433 89.6416 113.308 89.7626 113.14C89.8818 112.974 89.9419 112.74 89.9419 112.439C89.9419 112.173 89.8874 111.958 89.7758 111.796C89.6631 111.633 89.5167 111.511 89.3375 111.428C89.1573 111.347 88.9574 111.294 88.7378 111.268C88.52 111.242 88.307 111.229 88.1015 111.229H86.6975V113.701H87.9607ZM85.0776 109.839H88.2432C88.6815 109.839 89.1029 109.879 89.5111 109.962C89.9184 110.043 90.2816 110.182 90.5988 110.38C90.9151 110.578 91.1704 110.843 91.359 111.177C91.5476 111.512 91.6415 111.938 91.6415 112.452C91.6415 113.113 91.4604 113.666 91.0953 114.112C90.7302 114.559 90.2084 114.829 89.5299 114.924L91.9512 118.953H89.9935L87.8819 115.09H86.6975V118.953H85.0776V109.839Z" fill="#004A99"/>
<path fill-rule="evenodd" clip-rule="evenodd" d="M92.1309 109.839H93.9966L96.4808 116.726L99.0429 109.839H100.793L97.1115 118.953H95.7094L92.1309 109.839Z" fill="#004A99"/>
<path fill-rule="evenodd" clip-rule="evenodd" d="M101.732 118.953H103.354V109.839H101.732V118.953Z" fill="#004A99"/>
<path fill-rule="evenodd" clip-rule="evenodd" d="M111.606 111.976C111.271 111.615 110.948 111.375 110.635 111.254C110.322 111.135 110.006 111.074 109.689 111.074C109.216 111.074 108.789 111.159 108.408 111.326C108.027 111.492 107.697 111.725 107.423 112.02C107.148 112.317 106.935 112.661 106.785 113.056C106.635 113.452 106.56 113.877 106.56 114.332C106.56 114.821 106.635 115.271 106.785 115.682C106.935 116.095 107.148 116.451 107.423 116.751C107.697 117.052 108.027 117.288 108.408 117.459C108.789 117.631 109.216 117.717 109.689 117.717C110.058 117.717 110.414 117.629 110.764 117.453C111.112 117.277 111.434 116.996 111.735 116.61L113.074 117.562C112.662 118.129 112.16 118.54 111.568 118.799C110.976 119.055 110.345 119.185 109.676 119.185C108.972 119.185 108.325 119.07 107.739 118.842C107.15 118.615 106.644 118.294 106.219 117.877C105.794 117.462 105.462 116.961 105.222 116.378C104.981 115.794 104.861 115.147 104.861 114.434C104.861 113.705 104.981 113.042 105.222 112.445C105.462 111.849 105.794 111.34 106.219 110.92C106.644 110.5 107.15 110.176 107.739 109.949C108.325 109.722 108.972 109.607 109.676 109.607C110.294 109.607 110.866 109.716 111.393 109.935C111.922 110.155 112.412 110.525 112.868 111.049L111.606 111.976Z" fill="#004A99"/>
<path fill-rule="evenodd" clip-rule="evenodd" d="M114.169 109.839H120.205V111.306H115.79V113.546H119.974V115.014H115.79V117.485H120.438V118.953H114.169V109.839Z" fill="#004A99"/>
<path fill-rule="evenodd" clip-rule="evenodd" d="M126.5 111.796C126.329 111.547 126.1 111.364 125.813 111.248C125.524 111.133 125.222 111.074 124.905 111.074C124.716 111.074 124.532 111.096 124.357 111.139C124.181 111.183 124.023 111.25 123.88 111.345C123.739 111.439 123.625 111.562 123.54 111.712C123.453 111.862 123.411 112.04 123.411 112.245C123.411 112.556 123.517 112.791 123.734 112.954C123.948 113.117 124.213 113.26 124.531 113.379C124.848 113.499 125.196 113.614 125.574 113.727C125.951 113.839 126.298 113.993 126.617 114.19C126.934 114.387 127.2 114.649 127.415 114.975C127.629 115.301 127.737 115.733 127.737 116.274C127.737 116.764 127.645 117.191 127.465 117.556C127.286 117.92 127.042 118.223 126.738 118.463C126.434 118.703 126.08 118.884 125.677 119.004C125.273 119.124 124.848 119.184 124.403 119.184C123.836 119.184 123.29 119.09 122.767 118.901C122.243 118.712 121.792 118.395 121.415 117.948L122.64 116.764C122.836 117.064 123.096 117.298 123.417 117.466C123.739 117.633 124.08 117.717 124.441 117.717C124.63 117.717 124.819 117.691 125.007 117.64C125.196 117.588 125.367 117.511 125.523 117.407C125.677 117.304 125.801 117.174 125.894 117.015C125.99 116.857 126.038 116.674 126.038 116.468C126.038 116.133 125.93 115.876 125.715 115.695C125.501 115.516 125.234 115.364 124.917 115.239C124.599 115.114 124.252 114.997 123.875 114.885C123.497 114.773 123.149 114.621 122.832 114.428C122.515 114.235 122.249 113.978 122.034 113.655C121.818 113.334 121.711 112.902 121.711 112.362C121.711 111.89 121.809 111.482 122.001 111.139C122.194 110.796 122.447 110.51 122.761 110.283C123.074 110.056 123.433 109.887 123.836 109.775C124.24 109.663 124.65 109.607 125.072 109.607C125.552 109.607 126.017 109.679 126.469 109.826C126.919 109.972 127.325 110.212 127.686 110.546L126.5 111.796Z" fill="#004A99"/>
</svg>
