<svg width="129" height="110" viewBox="0 0 129 110" fill="none" xmlns="http://www.w3.org/2000/svg">
<path fill-rule="evenodd" clip-rule="evenodd" d="M8.33172 89.3837L9.30617 89.3933C9.36608 89.3933 9.47452 89.4261 9.47452 89.5522C9.47452 89.5703 9.46386 89.6116 9.46386 89.654C9.10768 91.0583 8.16337 91.9035 6.40524 91.9035C6.34532 91.9035 6.26482 91.8958 6.21667 91.8958C4.29093 91.811 3.02058 90.2162 3.02058 88.0045C3.02058 87.9335 3.02829 87.8394 3.02829 87.775C3.12901 85.0806 4.70703 83.849 6.12661 83.849H6.23468C7.36829 83.9246 8.37325 84.3703 8.98858 85.5394C9.06981 85.6917 9.10767 85.7777 9.22567 85.7777C9.27786 85.7777 9.38703 85.748 9.47452 85.7164C9.82298 85.662 10.2097 85.5772 10.46 85.381C10.5497 85.2865 10.5795 85.2028 10.5795 85.1215C10.5795 85.0509 10.5497 84.9865 10.5497 84.9865C10.0226 84.0075 8.67173 82.7787 6.22733 82.6846H5.99759C3.13747 82.6846 0.856642 85.0706 0.746 88.0592C0.746 88.1317 0.738281 88.2181 0.738281 88.2809C0.738281 91.2064 3.27715 92.8944 5.90092 93.0201H6.05751C8.21409 93.0201 10.9764 91.3321 11.0139 89.509C11.0455 89.1655 11.0739 88.9048 11.0739 88.7463C11.0739 88.3203 10.9242 88.3515 10.4714 88.3338L8.52065 88.3203C8.11448 88.3515 8.04537 88.4143 7.83732 88.7791C7.78586 88.8948 7.74763 88.9989 7.74763 89.0698C7.74763 89.3505 8.20417 89.3933 8.29569 89.3933C8.3001 89.3933 8.33172 89.3837 8.33172 89.3837Z" fill="#182E4D"/>
<path fill-rule="evenodd" clip-rule="evenodd" d="M24.6532 92.1376C22.8809 91.4987 20.466 89.3518 19.5608 87.1478C20.8631 87.0466 22.0796 86.3577 22.2725 84.8263V84.7339C22.2725 84.0328 21.4527 81.9463 17.8412 81.9463H17.7618C17.7618 81.9463 15.7101 81.9808 15.3333 82.0282C15.0821 82.0687 14.8152 82.1795 14.8152 82.8195C14.8152 82.8421 14.837 82.8814 14.837 82.91L14.776 90.924C14.776 90.9859 14.7651 91.0864 14.7651 91.1465C14.7651 92.2058 15.4172 92.5759 16.0659 92.5867H16.158C16.6664 92.5867 16.7567 92.3071 16.7567 92.1669V92.0772C16.6664 91.4898 16.6664 90.1939 16.6664 89.9518L16.654 87.1478C16.654 87.1374 16.6345 87.1271 16.6345 87.1085C16.6345 86.9576 16.7262 86.8912 16.786 86.8912C16.8292 86.8912 16.8778 86.9094 16.889 86.9383C17.8216 89.1327 20.4449 91.7739 23.4871 92.8499C23.5751 92.8885 23.8474 93.0201 24.1617 93.0201C24.4374 93.0201 24.7833 92.9185 25.0684 92.5867C25.0872 92.5566 25.1007 92.5169 25.1007 92.4995C25.1007 92.3753 24.9364 92.2648 24.6532 92.1376ZM18.2612 86.0681C18.2402 86.0681 18.2214 86.0558 18.2078 86.0558C17.4587 86.038 16.6957 85.5059 16.6957 84.8455L16.7059 84.8014L16.7262 83.329C16.7567 82.9619 17.074 82.91 17.074 82.91C17.235 82.8814 17.4587 82.8603 17.7024 82.8603C18.6685 82.8603 20.0892 83.2003 20.1723 84.5252V84.5645C20.1723 85.3346 19.0535 86.0681 18.2612 86.0681Z" fill="#182E4D"/>
<path fill-rule="evenodd" clip-rule="evenodd" d="M36.045 91.5411C34.4106 90.2197 32.5991 90.9916 29.1204 83.7179C28.9623 83.5602 28.7087 83.4229 28.4051 83.4229C28.3137 83.4229 28.194 83.4315 28.0616 83.4688C27.5887 83.5508 27.4197 83.9116 27.4197 84.3318C27.4197 85.0711 27.9214 86.0404 27.9214 86.0404C28.1037 86.2558 28.1642 86.502 28.1642 86.6987C28.1642 87.0838 27.8986 87.369 27.8986 87.369V87.3564L27.9214 87.3412L25.3911 91.0241C25.1879 91.2801 25.1006 91.5086 25.1006 91.6763C25.1006 91.9298 25.2695 92.0769 25.2695 92.0769C25.3911 92.2364 25.5448 92.2819 25.6559 92.2819C25.7361 92.2819 25.8256 92.274 25.8256 92.274H25.8365L29.8955 90.125C30.1584 89.9974 30.3315 89.9193 30.4605 89.9193C30.625 89.9193 30.763 90.0353 30.9864 90.27C32.3966 91.5675 34.5333 92.274 35.3979 92.274H35.4908C36.0062 92.274 36.1744 92.0357 36.1744 91.8528C36.1744 91.7353 36.1229 91.5954 36.045 91.5411ZM28.6975 87.7775L28.718 87.7873C28.7997 87.9041 29.2327 88.5209 29.4833 88.7685V88.7776C29.4833 88.8737 27.3667 90.1622 27.1254 90.1622L27.1161 90.1528V90.125L27.1068 90.1434C27.1068 90.1434 27.0766 90.1434 27.0766 90.125C27.0766 89.8896 28.5248 87.7775 28.6975 87.7775Z" fill="#182E4D"/>
<path fill-rule="evenodd" clip-rule="evenodd" d="M51.678 91.2712L51.6063 84.9873C51.6063 84.1293 51.4266 83.4868 50.72 83.4868H50.6151C49.4132 83.6012 49.7862 84.6586 49.3913 85.0914L45.1369 90.1683C45.0636 90.2467 44.9701 90.2931 44.8953 90.2931C44.7382 90.2931 44.6096 90.1063 44.6096 90.1063L40.5906 85.4611C39.6489 84.2621 39.9144 83.6406 39.5312 83.4764C39.4311 83.4424 39.2802 83.4229 39.1357 83.4229C38.8734 83.4229 38.5245 83.4868 38.3242 83.6946C38.072 83.9242 38.0288 84.1504 38.021 84.6257L37.9769 91.1618C37.9352 92.2471 37.6511 92.5353 37.6511 92.7289C37.6511 92.7726 37.6718 92.8334 37.7018 92.8878C37.7435 92.9478 37.9352 93.0202 38.2007 93.0202C38.885 93.0202 40.043 92.5743 40.043 90.8598V90.7749L40.0297 86.7665C40.0297 86.5904 40.0749 86.548 40.1155 86.548C40.1268 86.548 40.1806 86.5579 40.1919 86.5579L44.6096 91.6046C44.6096 91.6046 44.8017 91.8418 45.0403 91.8418C45.1369 91.8418 45.2737 91.781 45.3692 91.6581L49.2179 86.9532C49.2764 86.871 49.3613 86.8182 49.4354 86.8182C49.5005 86.8182 49.5702 86.8802 49.594 87.0872L49.6248 91.0994V91.3864C49.6248 91.9677 49.5067 92.4201 49.5067 92.6677C49.5067 92.7913 49.5402 92.877 49.6353 92.877C49.7706 92.9069 49.9389 92.9409 50.066 92.9409C50.2262 92.9409 50.393 92.8973 50.4347 92.8878C51.3631 92.6574 51.678 92.2219 51.678 91.3447V91.2712Z" fill="#182E4D"/>
<path fill-rule="evenodd" clip-rule="evenodd" d="M67.9194 91.2712L67.8415 84.9873C67.8415 84.1293 67.6619 83.4868 66.9585 83.4868H66.8537C65.652 83.6012 66.0191 84.6586 65.6345 85.0914L61.3787 90.1683C61.3035 90.2467 61.208 90.2931 61.1351 90.2931C60.975 90.2931 60.8511 90.1063 60.8511 90.1063L56.8282 85.4611C55.8935 84.2621 56.1557 83.6406 55.7789 83.4764C55.6721 83.4424 55.5233 83.4229 55.3752 83.4229C55.113 83.4229 54.7674 83.4868 54.5655 83.6946C54.3118 83.9242 54.2733 84.1504 54.2596 84.6257L54.2179 91.1618C54.1782 92.2471 53.8926 92.5353 53.8926 92.7289C53.8926 92.7726 53.9132 92.8334 53.9464 92.8878C53.988 92.9478 54.1782 93.0202 54.4385 93.0202C55.1212 93.0202 56.2823 92.5743 56.2823 90.8598V90.7749L56.2742 86.7665C56.2742 86.5904 56.3162 86.548 56.3579 86.548C56.3692 86.548 56.4195 86.5579 56.4312 86.5579L60.8511 91.6046C60.8511 91.6046 61.0416 91.8418 61.2844 91.8418C61.3787 91.8418 61.5135 91.781 61.6086 91.6581L65.4517 86.9532C65.5172 86.871 65.601 86.8182 65.6738 86.8182C65.7373 86.8182 65.809 86.8802 65.8313 87.0872L65.8644 91.0994V91.3864C65.8644 91.9677 65.7506 92.4201 65.7506 92.6677C65.7506 92.7913 65.779 92.877 65.8726 92.877C66.0093 92.9069 66.1808 92.9409 66.3043 92.9409C66.4648 92.9409 66.6312 92.8973 66.6749 92.8878C67.6015 92.6574 67.9194 92.2219 67.9194 91.3447V91.2712Z" fill="#182E4D"/>
<path fill-rule="evenodd" clip-rule="evenodd" d="M79.7316 85.7576V85.596C79.6805 84.429 77.5942 83.5618 75.578 83.4229H75.5053C72.5689 83.4229 70.1343 85.4186 70.1343 88.2746C70.1343 90.8137 72.6125 93.0202 75.3357 93.0202C77.5817 93.0202 79.7127 92.014 79.7127 90.3605V90.2818C79.6915 89.9617 79.3722 89.7816 79.0666 89.7816H79.0249C77.0512 90.1705 78.4539 91.8709 75.3925 91.8709C73.3763 91.8709 72.6219 90.1705 72.4182 89.3732C72.3951 89.2863 72.3625 89.175 72.3625 89.1229C72.3625 88.9458 72.4765 88.8538 72.6723 88.8253L77.7699 88.8346C78.4448 88.8645 78.8186 89.0756 79.148 89.0756L79.1575 89.0848C79.3722 89.0848 79.5369 88.4867 79.5369 88.113C79.4972 87.8816 79.312 87.8343 78.6356 87.7803L73.0177 87.7951C72.4992 87.7951 72.4375 87.7049 72.4375 87.5049C72.4375 87.4669 72.447 87.4292 72.447 87.3874C72.6125 85.7483 73.8989 84.5192 75.5379 84.5192H75.6398C76.6301 84.5192 77.7271 84.8582 78.21 86.0182C78.4539 86.5649 78.7716 86.7039 79.0768 86.7039C79.1083 86.7039 79.1575 86.6943 79.1885 86.6943C79.5475 86.6277 79.7316 86.1882 79.7316 85.7576Z" fill="#182E4D"/>
<path fill-rule="evenodd" clip-rule="evenodd" d="M85.8943 83.5497C86.8698 83.5872 87.4381 84.1074 88.0329 84.4851C88.0748 84.4951 88.1113 84.5263 88.1525 84.5263C88.3702 84.5263 88.649 84.1261 88.649 83.9183V83.8675C88.649 82.9432 86.84 82.6846 85.7348 82.6846C83.7351 82.6846 81.6658 83.5118 81.6658 84.9328C81.6658 86.6609 82.5032 87.1976 83.8552 87.9528C85.6936 88.9658 87.5165 88.9272 87.5165 90.6259C87.5165 91.4612 86.6098 91.9869 85.1983 91.9869C85.1802 91.9869 85.129 91.9803 85.101 91.9803C83.1087 91.9302 83.0177 90.4254 82.3533 90.0899C82.3125 90.0807 82.2333 90.0679 82.202 90.0679C81.8046 90.0679 81.208 90.5593 81.208 90.8256L81.2176 90.8352C81.6153 92.6512 83.8235 93.0201 85.3087 93.0201C85.5956 93.0201 85.8641 93.0006 86.0836 92.9918C88.7094 92.713 89.2901 91.373 89.3288 90.3581V90.2864C89.3288 88.7072 87.2492 88.0926 85.6369 87.4944C84.1133 86.9202 83.4445 86.2817 83.4445 84.903C83.4445 84.3244 84.43 83.5497 85.7742 83.5497H85.8943Z" fill="#182E4D"/>
<path fill-rule="evenodd" clip-rule="evenodd" d="M106.947 91.1139L106.88 84.9236C106.88 84.0666 106.706 83.4425 106.042 83.4425H105.931C105.883 83.4425 105.789 83.4229 105.75 83.4229C105.109 83.4229 104.986 84.1696 104.986 84.7613C104.986 84.8591 104.997 84.9836 104.997 85.075V90.3981C104.997 90.7065 104.908 90.8311 104.824 90.8311C104.694 90.8311 104.526 90.5937 104.526 90.5937L100.254 85.4635C99.3594 84.281 99.6122 83.6686 99.2482 83.5025C99.1604 83.4636 99.009 83.4534 98.8692 83.4534C98.6171 83.4534 98.2865 83.5116 98.0953 83.7173C97.8606 83.9439 97.8119 84.1696 97.8034 84.6393L97.7621 91.0833C97.7193 92.1537 97.4497 92.4418 97.4497 92.6339C97.4497 92.6743 97.4709 92.7355 97.4981 92.7861C97.5408 92.8491 97.7193 92.9201 97.9726 92.9201C98.6286 92.9201 99.7305 92.4584 99.7305 90.7696V90.7065L99.7223 86.7472C99.7223 86.5758 99.774 86.5373 99.8019 86.5373C99.809 86.5373 99.8625 86.5467 99.874 86.5467L104.215 91.983C104.844 92.8397 105.509 93.0202 105.941 93.0202C106.243 93.0202 106.455 92.9492 106.485 92.9492C106.928 92.8295 107.047 92.6045 107.047 92.2768C107.047 91.9694 106.947 91.5632 106.947 91.1139Z" fill="#182E4D"/>
<path fill-rule="evenodd" clip-rule="evenodd" d="M111.309 91.5437C110.604 91.5737 110.081 91.8262 110.012 92.1767C110.012 92.1863 110 92.2239 110 92.2457C110 92.5064 110.315 93.0202 110.791 93.0202H110.851C111.485 93.0202 112.138 92.6981 112.17 92.5285C112.205 92.4226 112.215 92.3372 112.215 92.2712C112.215 91.7914 111.674 91.5437 111.317 91.5437H111.309Z" fill="#182E4D"/>
<path fill-rule="evenodd" clip-rule="evenodd" d="M123.288 85.7576V85.596C123.234 84.429 121.151 83.5618 119.135 83.4229H119.06C116.124 83.4229 113.691 85.4186 113.691 88.2746C113.691 90.8137 116.167 93.0202 118.888 93.0202C121.14 93.0202 123.265 92.014 123.265 90.3605V90.2818C123.247 89.9617 122.928 89.7816 122.62 89.7816H122.581C120.604 90.1705 122.006 91.8709 118.947 91.8709C116.93 91.8709 116.177 90.1705 115.974 89.3732C115.949 89.2863 115.918 89.175 115.918 89.1229C115.918 88.9458 116.035 88.8538 116.228 88.8253L121.327 88.8346C121.998 88.8645 122.374 89.0756 122.701 89.0756L122.714 89.0848C122.928 89.0848 123.095 88.4867 123.095 88.113C123.051 87.8816 122.869 87.8343 122.191 87.7803L116.574 87.7951C116.055 87.7951 115.992 87.7049 115.992 87.5049C115.992 87.4669 116.006 87.4292 116.006 87.3874C116.167 85.7483 117.454 84.5192 119.092 84.5192H119.194C120.184 84.5192 121.285 84.8582 121.759 86.0182C122.006 86.5649 122.325 86.7039 122.632 86.7039C122.664 86.7039 122.714 86.6943 122.745 86.6943C123.104 86.6277 123.288 86.1882 123.288 85.7576Z" fill="#182E4D"/>
<path fill-rule="evenodd" clip-rule="evenodd" d="M126.805 91.5437C126.109 91.5737 125.583 91.8262 125.515 92.1767C125.515 92.1863 125.503 92.2239 125.503 92.2457C125.503 92.5064 125.816 93.0202 126.294 93.0202H126.353C126.983 93.0202 127.637 92.6981 127.674 92.5285C127.705 92.4226 127.718 92.3372 127.718 92.2712C127.718 91.7914 127.174 91.5437 126.814 91.5437H126.805Z" fill="#182E4D"/>
<path fill-rule="evenodd" clip-rule="evenodd" d="M10.9422 76.7712C9.30874 75.4534 7.49741 76.2294 4.01759 68.9519C3.85648 68.7936 3.60587 68.6577 3.30231 68.6577C3.21243 68.6577 3.09347 68.6668 2.96182 68.7072C2.48783 68.7842 2.31851 69.1464 2.31851 69.566C2.31851 70.3087 2.81862 71.2762 2.81862 71.2762C3.00396 71.4883 3.06326 71.7312 3.06326 71.9311C3.06326 72.32 2.79922 72.6011 2.79922 72.6011V72.5921L2.81862 72.5733L0.290141 76.2558C0.0909953 76.5048 0 76.7433 0 76.9071C0 77.1611 0.17043 77.309 0.17043 77.309C0.290141 77.4676 0.443788 77.5168 0.55343 77.5168C0.636967 77.5168 0.724979 77.5077 0.724979 77.5077H0.735794L4.79553 75.3562C5.05546 75.2308 5.22701 75.1531 5.3594 75.1531C5.5205 75.1531 5.66296 75.2713 5.88337 75.5019C7.29342 76.799 9.43181 77.5077 10.2974 77.5077H10.3888C10.9041 77.5077 11.0738 77.2692 11.0738 77.0867C11.0738 76.9689 11.0209 76.8301 10.9422 76.7712ZM3.59319 73.0135L3.61371 73.0222C3.69687 73.1368 4.12984 73.7555 4.38232 73.9987V74.0078C4.38232 74.1061 2.26556 75.3963 2.02427 75.3963L2.01495 75.3841V75.3562L2.00563 75.3754C2.00563 75.3754 1.97206 75.3754 1.97206 75.3562C1.97206 75.1238 3.42687 73.0135 3.59319 73.0135Z" fill="#182E4D"/>
<path fill-rule="evenodd" clip-rule="evenodd" d="M21.6221 73.8771L22.5956 73.8875C22.6521 73.8875 22.7612 73.9237 22.7612 74.0475C22.7612 74.0668 22.755 74.1092 22.755 74.1481C22.3961 75.5548 21.4535 76.3985 19.6962 76.3985C19.6364 76.3985 19.5581 76.3873 19.5078 76.3873C17.5811 76.3044 16.3109 74.7092 16.3109 72.502C16.3109 72.4311 16.3208 72.3385 16.3208 72.2726C16.4215 69.5738 18.0006 68.3449 19.4182 68.3449H19.5284C20.6597 68.4185 21.6629 68.867 22.2764 70.0334C22.3531 70.1896 22.3961 70.2709 22.5159 70.2709C22.564 70.2709 22.6745 70.2409 22.7612 70.2131C23.1117 70.158 23.4959 70.0731 23.7442 69.878C23.8349 69.7855 23.8669 69.6995 23.8669 69.617C23.8669 69.5441 23.8349 69.4836 23.8349 69.4836C23.3064 68.5007 21.9605 67.2752 19.517 67.1812H19.2889C16.4292 67.1812 14.1451 69.5638 14.0346 72.5564C14.0346 72.6258 14.0269 72.7079 14.0269 72.7743C14.0269 75.7006 16.5695 77.3879 19.1886 77.5167H19.3473C21.5024 77.5167 24.2599 75.8263 24.3011 74.0024C24.3312 73.658 24.3624 73.3989 24.3624 73.2431C24.3624 72.8144 24.2115 72.8433 23.7567 72.824L21.811 72.8144C21.4036 72.8433 21.3323 72.9077 21.1266 73.2732C21.0745 73.3881 21.0355 73.4945 21.0355 73.564C21.0355 73.8474 21.491 73.8875 21.5806 73.8875C21.592 73.8875 21.6221 73.8771 21.6221 73.8771Z" fill="#182E4D"/>
<path fill-rule="evenodd" clip-rule="evenodd" d="M28.7603 69.2901C28.7603 68.3941 28.5282 67.9416 27.7167 67.9194H27.686C26.9109 67.9194 26.7006 68.469 26.6903 69.5103L26.6235 76.2306C26.6001 76.4037 26.5771 76.5868 26.5771 76.7373C26.5771 77.2915 26.7674 77.4517 27.262 77.5167H27.3083C28.2055 77.5167 28.7919 76.7642 28.7919 75.7657L28.7603 69.2901Z" fill="#182E4D"/>
<path fill-rule="evenodd" clip-rule="evenodd" d="M37.223 77.5167C40.0258 77.5167 42.6724 75.4146 42.8187 72.5199V72.3482C42.8187 70.0024 40.7719 67.356 37.4694 67.1812H37.1251C34.3613 67.1812 31.8919 69.0487 31.7449 72.0383V72.3363C31.7449 75.1572 34.0468 77.2956 36.7899 77.4949C36.9268 77.4949 37.0847 77.5167 37.223 77.5167ZM37.2125 68.4095H37.3711C39.268 68.4784 40.5771 70.6279 40.6441 72.3482V72.5008C40.6441 74.5256 39.2385 76.3435 37.4177 76.3435C37.3806 76.3435 37.3417 76.3339 37.3122 76.3339C35.3265 76.2639 33.9071 74.1438 33.9071 72.2533C33.9071 72.2005 33.9191 72.1519 33.9191 72.0892C33.9857 70.24 35.3057 68.4095 37.2125 68.4095Z" fill="#182E4D"/>
<path fill-rule="evenodd" clip-rule="evenodd" d="M54.9242 76.6371C53.1564 75.9949 50.7342 73.8498 49.8278 71.6453C51.1342 71.5433 52.3527 70.8488 52.5442 69.3162V69.2268C52.5442 68.526 51.7209 66.4429 48.1123 66.4429H48.0306C48.0306 66.4429 45.9809 66.4718 45.6009 66.5197C45.3461 66.5642 45.0831 66.6725 45.0831 67.3151C45.0831 67.3362 45.1012 67.3741 45.1012 67.4026L45.0383 75.4232C45.0383 75.4822 45.0334 75.5834 45.0334 75.6454C45.0334 76.7053 45.6822 77.0771 46.3335 77.0863H46.4242C46.9315 77.0863 47.0236 76.8048 47.0236 76.6686V76.5766C46.9315 75.9793 46.9315 74.6886 46.9315 74.4508L46.922 71.6453C46.922 71.6353 46.9025 71.626 46.9025 71.6038C46.9025 71.4509 46.9928 71.3827 47.0541 71.3827C47.0959 71.3827 47.1478 71.4038 47.1557 71.4324C48.0938 73.6276 50.7154 76.2713 53.7544 77.3472C53.8477 77.3868 54.1205 77.5167 54.4362 77.5167C54.7113 77.5167 55.0544 77.4184 55.3412 77.0863C55.3626 77.0585 55.369 77.0177 55.369 76.9966C55.369 76.8756 55.2095 76.7639 54.9242 76.6371ZM48.5296 70.5617C48.5077 70.5617 48.4882 70.5516 48.4769 70.5516C47.7258 70.5316 46.9604 69.9992 46.9604 69.3377L46.9732 69.2969L46.9928 67.8226C47.0236 67.4538 47.3427 67.4026 47.3427 67.4026C47.5019 67.3741 47.7258 67.354 47.9708 67.354C48.9356 67.354 50.3587 67.692 50.4426 69.0139V69.058C50.4426 69.8275 49.3232 70.5617 48.5296 70.5617Z" fill="#182E4D"/>
<path fill-rule="evenodd" clip-rule="evenodd" d="M66.443 70.2554V70.0972C66.3896 68.9255 64.3027 68.0599 62.2862 67.9194H62.2154C59.2787 67.9194 56.8457 69.915 56.8457 72.7739C56.8457 75.3094 59.3193 77.5167 62.0424 77.5167C64.2929 77.5167 66.4237 76.5029 66.4237 74.86V74.7805C66.4025 74.4582 66.0848 74.2808 65.7762 74.2808H65.7345C63.7642 74.6685 65.1619 76.3665 62.1037 76.3665C60.0891 76.3665 59.3302 74.6685 59.1246 73.8724C59.1045 73.7822 59.0739 73.6732 59.0739 73.6196C59.0739 73.4418 59.1879 73.3498 59.3821 73.3213L64.4743 73.3313C65.1525 73.359 65.5338 73.5715 65.861 73.5715L65.8705 73.5815C66.0848 73.5815 66.2453 72.9827 66.2453 72.612C66.2079 72.3814 66.0215 72.3337 65.3441 72.2816L59.7294 72.2945C59.2068 72.2945 59.1454 72.2036 59.1454 72.0077C59.1454 71.963 59.1557 71.9238 59.1557 71.8842C59.3193 70.2461 60.6106 69.0157 62.2476 69.0157H62.3464C63.3412 69.0157 64.4387 69.3576 64.9169 70.5152C65.1619 71.0656 65.4781 71.2034 65.7898 71.2034C65.8152 71.2034 65.8705 71.1946 65.9011 71.1946C66.2582 71.1243 66.443 70.6826 66.443 70.2554Z" fill="#182E4D"/>
<path fill-rule="evenodd" clip-rule="evenodd" d="M70.8405 69.2901C70.8405 68.3941 70.6089 67.9416 69.7963 67.9194H69.7647C68.9898 67.9194 68.7811 68.469 68.7688 69.5103L68.7004 76.2306C68.6794 76.4037 68.6577 76.5868 68.6577 76.7373C68.6577 77.2915 68.848 77.4517 69.3424 77.5167H69.3887C70.2858 77.5167 70.8725 76.7642 70.8725 75.7657L70.8405 69.2901Z" fill="#182E4D"/>
<path fill-rule="evenodd" clip-rule="evenodd" d="M80.7737 68.9932H80.7935H84.1693C85.3588 69.0126 85.7173 69.6489 86.3155 69.6489C86.3451 69.6489 86.391 69.6395 86.4105 69.6395C86.8958 69.6215 87.1142 69.2753 87.1142 68.9232C87.0508 68.3038 86.2641 67.9303 85.5888 67.9303L73.3791 67.9194C72.7497 67.9194 71.6108 68.2626 71.6108 68.9718H71.6237C71.6237 69.3364 71.9903 69.6489 72.3375 69.6489H72.4006C73.0654 69.6118 73.2324 69.083 74.2611 68.9322H77.7435C78.0814 68.952 78.1001 68.952 78.1001 69.1627C78.1966 70.0253 78.2464 72.4007 78.2464 74.3427C78.2464 75.5336 78.2164 76.5744 78.1966 77.0096C78.2164 77.4363 78.4367 77.5167 78.9135 77.5167C79.922 77.5167 80.4051 76.3929 80.4051 75.5336C80.4051 74.391 80.2486 72.1758 80.2486 70.5882C80.2486 70.1245 80.2587 69.6792 80.2766 69.3573C80.2766 69.3427 80.2696 69.3364 80.2696 69.3364C80.2696 69.144 80.4506 68.9932 80.7737 68.9932Z" fill="#182E4D"/>
<path fill-rule="evenodd" clip-rule="evenodd" d="M92.2479 69.2901C92.2479 68.3941 92.0161 67.9416 91.2054 67.9194H91.1735C90.3985 67.9194 90.1884 68.469 90.1773 69.5103L90.1138 76.2306C90.0901 76.4037 90.0671 76.5868 90.0671 76.7373C90.0671 77.2915 90.2568 77.4517 90.7528 77.5167H90.7967C91.6929 77.5167 92.2819 76.7642 92.2819 75.7657L92.2479 69.2901Z" fill="#182E4D"/>
<path fill-rule="evenodd" clip-rule="evenodd" d="M103.784 69.7861C103.784 69.606 103.755 69.3944 103.69 69.199C103.69 69.199 103.453 68.6577 102.791 68.6577C102.479 68.6577 102.046 68.7848 101.498 69.158L96.8843 72.8678L96.833 72.8867L96.8036 72.9161L96.7622 72.9426L96.7423 72.9161V72.8867L96.7098 72.8678V72.7981L96.7159 72.7774V72.7494L96.6971 69.6899C96.6971 69.0186 96.1462 68.962 95.8158 68.962H95.6539C95.023 68.9812 94.598 69.4314 94.598 69.8939L94.5869 76.3789C94.5869 76.8513 94.4966 77.0346 94.4966 77.1439C94.4966 77.2227 94.5475 77.2833 94.7129 77.3893C94.8159 77.4667 95.1344 77.5168 95.4648 77.5168C95.59 77.5168 95.7266 77.5077 95.8158 77.4946C96.482 77.4075 96.6554 76.9181 96.6554 76.3789V76.2417L96.7159 73.8161V73.6985L96.7488 73.6705L96.7622 73.6513V73.6233L96.7951 73.6081L96.8231 73.5801L101.308 76.9446C101.308 76.9446 101.81 77.3396 102.595 77.3396C102.943 77.3396 103.381 77.251 103.804 77.0158C104.012 76.9181 104.094 76.7892 104.094 76.6835C104.094 76.4548 103.798 76.2417 103.798 76.2417L99.2036 72.6503H99.1706L99.1396 72.6191L99.1197 72.5911V72.573L99.0883 72.545L99.0661 72.5229V72.4858L99.0462 72.4546V72.4063L99.1706 72.24L99.2231 72.1711L101.717 70.2479C101.779 70.2004 101.851 70.1691 101.912 70.1691C102.181 70.1691 102.559 70.5199 103.12 70.5199C103.587 70.5199 103.784 70.2004 103.784 69.7861Z" fill="#182E4D"/>
<path fill-rule="evenodd" clip-rule="evenodd" d="M115.168 70.2554V70.0972C115.117 68.9255 113.031 68.0599 111.015 67.9194H110.942C108.007 67.9194 105.571 69.915 105.571 72.7739C105.571 75.3094 108.048 77.5167 110.772 77.5167C113.017 77.5167 115.146 76.5029 115.146 74.86V74.7805C115.128 74.4582 114.81 74.2808 114.503 74.2808H114.461C112.489 74.6685 113.892 76.3665 110.828 76.3665C108.816 76.3665 108.056 74.6685 107.854 73.8724C107.831 73.7822 107.798 73.6732 107.798 73.6196C107.798 73.4418 107.915 73.3498 108.111 73.3213L113.204 73.3313C113.882 73.359 114.256 73.5715 114.583 73.5715L114.594 73.5815C114.81 73.5815 114.975 72.9827 114.975 72.612C114.934 72.3814 114.751 72.3337 114.077 72.2816L108.457 72.2945C107.935 72.2945 107.874 72.2036 107.874 72.0077C107.874 71.963 107.887 71.9238 107.887 71.8842C108.048 70.2461 109.337 69.0157 110.975 69.0157H111.076C112.067 69.0157 113.164 69.3576 113.644 70.5152C113.892 71.0656 114.208 71.2034 114.512 71.2034C114.543 71.2034 114.594 71.1946 114.624 71.1946C114.985 71.1243 115.168 70.6826 115.168 70.2554Z" fill="#182E4D"/>
<path fill-rule="evenodd" clip-rule="evenodd" d="M122.808 68.0412C123.784 68.0795 124.351 68.5998 124.947 68.9778C124.989 68.9885 125.028 69.0183 125.068 69.0183C125.287 69.0183 125.566 68.6179 125.566 68.4099V68.3599C125.566 67.4377 123.754 67.1812 122.651 67.1812C120.649 67.1812 118.578 68.0022 118.578 69.4249C118.578 71.1538 119.416 71.6933 120.769 72.4477C122.609 73.4624 124.43 73.4252 124.43 75.1206C124.43 75.9593 123.527 76.4822 122.114 76.4822C122.093 76.4822 122.043 76.4764 122.015 76.4764C120.021 76.4256 119.929 74.9241 119.266 74.5852C119.224 74.5752 119.146 74.566 119.114 74.566C118.72 74.566 118.121 75.0533 118.121 75.3204L118.127 75.3307C118.531 77.1509 120.737 77.5167 122.219 77.5167C122.51 77.5167 122.78 77.4991 122.998 77.4899C125.622 77.2109 126.202 75.8691 126.242 74.856V74.7835C126.242 73.2044 124.161 72.588 122.549 71.9903C121.028 71.4144 120.361 70.7773 120.361 69.3966C120.361 68.8203 121.345 68.0412 122.69 68.0412H122.808Z" fill="#182E4D"/>
<path fill-rule="evenodd" clip-rule="evenodd" d="M31.0066 64.9664H95.973V0H31.0066V64.9664Z" fill="#182E4D"/>
<path fill-rule="evenodd" clip-rule="evenodd" d="M56.3379 33.1793L56.4486 33.2317C56.8853 33.8874 59.219 37.3213 60.5827 38.6863V38.744C60.5827 39.287 49.1561 46.4851 47.8521 46.4851L47.8 46.427V46.2656L47.7418 46.3791C47.7418 46.3791 47.5786 46.3791 47.5786 46.2656C47.5786 44.9561 55.4113 33.1793 56.3379 33.1793ZM96.0062 54.1772C87.1926 46.815 77.396 51.1214 58.6244 10.4926C57.7488 9.6208 56.3961 8.85913 54.7616 8.85913C54.269 8.85913 53.6177 8.91154 52.9087 9.12722C50.3524 9.56424 49.4288 11.586 49.4288 13.9287C49.4288 18.0708 52.1483 23.4673 52.1483 23.4673C53.127 24.6716 53.4568 26.0325 53.4568 27.1274C53.4568 29.3076 52.0417 30.8868 52.0417 30.8868V30.8366L52.1483 30.7239L38.4933 51.2847C37.4047 52.7021 36.9128 54.0082 36.9128 54.9388C36.9128 56.3547 37.8417 57.1733 37.8417 57.1733C38.4933 58.047 39.3089 58.3222 39.9092 58.3222C40.3421 58.3222 40.8328 58.2608 40.8328 58.2608H40.8879L62.8144 46.2656C64.2276 45.5586 65.1569 45.1224 65.8617 45.1224C66.7355 45.1224 67.4891 45.7751 68.6847 47.0861C76.3054 54.3367 87.8431 58.2608 92.5249 58.2608H93.0099C95.7864 58.2608 96.7115 56.9554 96.7115 55.9211C96.7115 55.2665 96.4376 54.5014 96.0062 54.1772Z" fill="#8C734B"/>
<path fill-rule="evenodd" clip-rule="evenodd" d="M61.274 24.6376C61.274 24.6376 48.2322 25.3732 31.6149 30.5284C31.6149 30.5284 20.3671 33.4719 12.7631 39.7989C12.7631 39.7989 9.17173 43.7234 10.3662 47.4748C10.3662 47.4748 13.6587 54.8066 31.764 58.4092C31.764 58.4092 53.4462 62.0175 65.5206 61.1366C65.5206 61.1366 83.1784 61.0567 97.1879 58.7106L97.3377 60.404L117.383 52.8935L90.3293 52.7474L92.6398 54.6612C92.6398 54.6612 77.7429 56.7915 62.9887 56.6484C62.9887 56.6484 42.5692 56.8642 31.1694 54.5116C31.1694 54.5116 20.509 52.616 11.1981 47.9034C11.1981 47.9034 6.20858 45.5391 5.90601 42.6682C5.90601 42.6682 5.90601 38.4708 9.71162 35.1612C9.71162 35.1612 18.7286 27.6564 33.6315 24.491C33.6315 24.491 45.6942 20.6639 57.9181 19.1946L55.162 23.0922L61.274 24.6376Z" fill="#FEFEFE"/>
<path fill-rule="evenodd" clip-rule="evenodd" d="M98.1273 59.8684L97.9765 58.2472L97.7341 58.2888C83.849 60.5849 66.152 60.6842 65.9607 60.6842C54.0088 61.5514 32.3488 58.0324 32.1397 57.9987C17.5658 55.1373 12.5932 49.8486 11.2514 47.9909C11.2972 48.0115 11.3298 48.0261 11.3393 48.0325C20.6143 52.647 31.3479 54.5737 31.4517 54.5902C42.7857 56.8953 63.2304 56.7029 63.4335 56.6999C78.119 56.8649 93.088 54.7533 93.2407 54.7342L93.7548 54.6604L91.5355 52.8521L116.782 52.9807L98.1273 59.8684ZM10.2494 46.9186C8.78289 46.0349 6.55457 44.4197 6.36894 42.646C6.36894 42.6051 6.4235 38.5533 10.1016 35.3935C10.1941 35.3166 19.2854 27.9674 34.038 24.8848C34.1558 24.848 46.0396 21.1532 58.0309 19.6925L55.4222 23.3296L60.7255 24.6512C57.4153 24.9249 45.8619 26.1423 31.8896 30.41C31.7745 30.4381 20.4556 33.4026 12.8516 39.6477C12.7069 39.8022 9.51291 43.2972 10.2494 46.9186ZM118.045 52.5315L90.887 52.3906L90.7419 52.7929L92.6539 54.3522C89.8804 54.7185 76.5029 56.3621 63.4335 56.2433C63.2221 56.2433 42.8323 56.4375 31.5381 54.1418C31.4286 54.1212 20.759 52.2117 11.5427 47.6216C11.5276 47.6201 11.2389 47.4798 10.804 47.2391C9.74627 43.7261 13.1562 39.9945 13.1679 39.9788C20.6712 33.821 31.893 30.8779 32.0147 30.8483C48.4736 25.8195 61.5999 25.0404 61.7264 25.0344L61.7018 24.5781H61.6938L61.7329 24.4337L56.1912 23.0514L58.6408 19.6265L58.3506 19.4207L58.3195 19.1946C46.1718 20.6298 34.0198 24.4112 33.921 24.4435C19.0744 27.5448 9.89743 34.9657 9.8031 35.0433C5.95525 38.3505 5.90601 42.4709 5.90601 42.6703C6.13937 44.8614 8.95147 46.7221 10.4361 47.5574C10.8411 48.3635 14.6996 55.0394 32.0582 58.4463C32.2529 58.4797 49.4862 61.28 61.7264 61.2751C63.2334 61.2751 64.6651 61.2339 65.9819 61.139C66.155 61.139 83.6815 61.0445 97.5625 58.7789L97.7185 60.508L118.121 52.9713L118.045 52.5315Z" fill="#8C734B"/>
<path fill-rule="evenodd" clip-rule="evenodd" d="M0.843089 98.9262C0.377649 98.9262 0 98.5921 0 98.1878C0 97.7815 0.377649 97.4497 0.843089 97.4497H127.611C128.076 97.4497 128.456 97.7815 128.456 98.1878C128.456 98.5921 128.076 98.9262 127.611 98.9262H0.843089Z" fill="#8C734B"/>
<path fill-rule="evenodd" clip-rule="evenodd" d="M8.71859 102.02C8.81253 102.114 8.85911 102.232 8.85911 102.369V108.77C8.85911 108.909 8.81018 109.025 8.71115 109.12C8.61368 109.214 8.50016 109.262 8.36786 109.262C8.2289 109.262 8.11303 109.214 8.01713 109.12C7.92318 109.025 7.8766 108.909 7.8766 108.77V104.071L5.59333 108.731C5.48608 108.896 5.34399 108.978 5.16745 108.978C4.95959 108.978 4.80928 108.88 4.71533 108.684L2.45868 104.155V108.77C2.45868 108.909 2.41132 109.025 2.31659 109.12C2.22108 109.214 2.10482 109.262 1.96586 109.262C1.82886 109.262 1.71103 109.214 1.61709 109.12C1.52314 109.025 1.47656 108.909 1.47656 108.77V102.369C1.47656 102.232 1.52314 102.114 1.61709 102.02C1.71103 101.927 1.82886 101.879 1.96586 101.879C2.15571 101.879 2.30093 101.967 2.40153 102.142L5.20502 107.767L7.93414 102.142C8.03435 101.967 8.1784 101.879 8.36786 101.879C8.50682 101.879 8.62268 101.927 8.71859 102.02Z" fill="#182E4D"/>
<path fill-rule="evenodd" clip-rule="evenodd" d="M12.5826 105.266C12.2799 105.515 12.0895 105.848 12.009 106.263H15.3252C15.2666 105.848 15.1002 105.515 14.8285 105.266C14.5559 105.018 14.2 104.894 13.7619 104.894C13.2775 104.894 12.8844 105.018 12.5826 105.266ZM16.1139 106.892C16.0251 106.97 15.9157 107.009 15.7844 107.009H12.0008C12.0714 107.443 12.2832 107.793 12.6317 108.061C12.9798 108.329 13.4084 108.461 13.9122 108.461C14.112 108.461 14.3173 108.428 14.5345 108.359C14.75 108.291 14.9292 108.206 15.0676 108.107C15.1588 108.04 15.2682 108.005 15.3958 108.005C15.5234 108.005 15.6225 108.036 15.6952 108.098C15.8129 108.192 15.8736 108.296 15.8736 108.415C15.8736 108.527 15.8199 108.62 15.7138 108.694C15.4879 108.861 15.2088 108.999 14.8722 109.104C14.5361 109.208 14.2182 109.262 13.9122 109.262C13.3671 109.262 12.879 109.152 12.448 108.931C12.0169 108.713 11.6791 108.405 11.4383 108.015C11.1947 107.624 11.0737 107.18 11.0737 106.682C11.0737 106.186 11.1877 105.741 11.4169 105.346C11.6469 104.952 11.9652 104.645 12.3724 104.423C12.7824 104.205 13.2453 104.094 13.7619 104.094C14.2752 104.094 14.7149 104.197 15.0878 104.41C15.4594 104.621 15.7439 104.916 15.9442 105.296C16.1424 105.673 16.2415 106.108 16.2415 106.599C16.2415 106.716 16.1986 106.814 16.1139 106.892Z" fill="#182E4D"/>
<path fill-rule="evenodd" clip-rule="evenodd" d="M24.5875 104.626C24.9282 104.981 25.1006 105.475 25.1006 106.113V108.783C25.1006 108.922 25.0548 109.036 24.9656 109.125C24.8769 109.216 24.7571 109.262 24.611 109.262C24.4697 109.262 24.3515 109.216 24.2603 109.125C24.168 109.036 24.1206 108.922 24.1206 108.783V106.113C24.1206 105.731 24.0227 105.444 23.8273 105.247C23.6327 105.051 23.3716 104.955 23.046 104.955C22.712 104.955 22.4394 105.066 22.2248 105.29C22.0095 105.514 21.904 105.8 21.904 106.149V108.783C21.904 108.922 21.8587 109.036 21.7679 109.125C21.6788 109.216 21.5601 109.262 21.4129 109.262C21.2732 109.262 21.1561 109.216 21.0622 109.125C20.9703 109.036 20.9241 108.922 20.9241 108.783V106.113C20.9241 105.731 20.827 105.444 20.6312 105.247C20.4349 105.051 20.1758 104.955 19.849 104.955C19.5091 104.955 19.2333 105.066 19.0188 105.29C18.8034 105.514 18.6964 105.8 18.6964 106.149V108.783C18.6964 108.922 18.6522 109.036 18.5634 109.125C18.4727 109.216 18.3557 109.262 18.2068 109.262C18.0655 109.262 17.9501 109.216 17.8577 109.125C17.7638 109.036 17.718 108.922 17.718 108.783V104.626C17.718 104.484 17.7638 104.367 17.8577 104.281C17.9501 104.194 18.0655 104.151 18.2068 104.151C18.3481 104.151 18.4627 104.192 18.5535 104.277C18.6414 104.361 18.6896 104.471 18.6964 104.608C18.8635 104.447 19.0613 104.321 19.293 104.23C19.5215 104.138 19.7718 104.094 20.0409 104.094C20.3669 104.094 20.6602 104.159 20.9193 104.285C21.178 104.414 21.3914 104.596 21.557 104.832C21.7504 104.602 21.9896 104.421 22.2774 104.292C22.5656 104.159 22.8856 104.094 23.237 104.094C23.7947 104.094 24.2428 104.271 24.5875 104.626Z" fill="#182E4D"/>
<path fill-rule="evenodd" clip-rule="evenodd" d="M30.7423 108.186C30.9955 108.032 31.1954 107.821 31.3439 107.551C31.4901 107.28 31.5632 106.98 31.5632 106.648C31.5632 106.316 31.4901 106.015 31.3439 105.749C31.1954 105.483 30.9955 105.273 30.7423 105.119C30.49 104.965 30.2065 104.889 29.8931 104.889C29.582 104.889 29.2989 104.965 29.0454 105.119C28.7931 105.273 28.594 105.483 28.4513 105.749C28.3066 106.015 28.2343 106.316 28.2343 106.648C28.2343 106.98 28.3066 107.28 28.4513 107.551C28.594 107.821 28.7931 108.032 29.0454 108.186C29.2989 108.34 29.582 108.417 29.8931 108.417C30.2065 108.417 30.49 108.34 30.7423 108.186ZM31.305 104.381C31.6721 104.605 31.9583 104.919 32.1679 105.317C32.3774 105.714 32.4832 106.158 32.4832 106.648C32.4832 107.137 32.3708 107.581 32.1441 107.979C31.9194 108.376 31.6087 108.69 31.2125 108.919C30.8162 109.148 30.376 109.262 29.8931 109.262C29.4133 109.262 28.9774 109.148 28.5858 108.919C28.1946 108.69 27.8851 108.376 27.6588 107.979C27.429 107.581 27.3154 107.137 27.3154 106.648V102.357C27.3154 102.213 27.3609 102.098 27.4519 102.009C27.5417 101.922 27.6557 101.879 27.7937 101.879C27.938 101.879 28.0531 101.922 28.1417 102.009C28.2281 102.098 28.2716 102.213 28.2716 102.357V104.899C28.4909 104.628 28.7573 104.418 29.0691 104.268C29.3822 104.117 29.7201 104.042 30.0832 104.042C30.5328 104.042 30.9387 104.154 31.305 104.381Z" fill="#182E4D"/>
<path fill-rule="evenodd" clip-rule="evenodd" d="M36.2078 105.266C35.9052 105.515 35.7141 105.848 35.6349 106.263H38.9508C38.8905 105.848 38.7242 105.515 38.4526 105.266C38.1802 105.018 37.8244 104.894 37.3882 104.894C36.9024 104.894 36.5078 105.018 36.2078 105.266ZM39.7358 106.892C39.6503 106.97 39.541 107.009 39.4064 107.009H35.6242C35.6985 107.443 35.9085 107.793 36.2569 108.061C36.6048 108.329 37.0307 108.461 37.5368 108.461C37.7349 108.461 37.9433 108.428 38.1587 108.359C38.3742 108.291 38.5508 108.206 38.6903 108.107C38.7844 108.04 38.8938 108.005 39.0197 108.005C39.1456 108.005 39.2438 108.036 39.3177 108.098C39.4386 108.192 39.4989 108.296 39.4989 108.415C39.4989 108.527 39.4436 108.62 39.3375 108.694C39.1138 108.861 38.8319 108.999 38.4984 109.104C38.162 109.208 37.8409 109.262 37.5368 109.262C36.9919 109.262 36.5041 109.152 36.0732 108.931C35.6415 108.713 35.3064 108.405 35.0624 108.015C34.8206 107.624 34.698 107.18 34.698 106.682C34.698 106.186 34.8144 105.741 35.0426 105.346C35.2709 104.952 35.5891 104.645 35.9993 104.423C36.405 104.205 36.869 104.094 37.3882 104.094C37.8975 104.094 38.3391 104.197 38.7101 104.41C39.0816 104.621 39.3676 104.916 39.5661 105.296C39.7676 105.673 39.8658 106.108 39.8658 106.599C39.8658 106.716 39.822 106.814 39.7358 106.892Z" fill="#182E4D"/>
<path fill-rule="evenodd" clip-rule="evenodd" d="M44.0645 104.243C44.2182 104.343 44.2953 104.467 44.2953 104.617C44.2953 104.66 44.2927 104.691 44.2886 104.71C44.2416 104.911 44.1381 105.01 43.9787 105.01C43.9523 105.01 43.9141 105.004 43.8633 104.99C43.6553 104.947 43.4875 104.925 43.3577 104.925C42.9867 104.925 42.6859 105.026 42.4593 105.233C42.2301 105.438 42.1176 105.717 42.1176 106.065V108.793C42.1176 108.943 42.0848 109.059 42.0218 109.14C41.9553 109.222 41.8592 109.262 41.7296 109.262C41.6055 109.262 41.511 109.222 41.4432 109.145C41.3773 109.066 41.3423 108.95 41.3423 108.793V104.617C41.3423 104.467 41.3773 104.353 41.4432 104.27C41.511 104.19 41.6055 104.15 41.7296 104.15C41.988 104.15 42.1176 104.304 42.1176 104.617V104.794C42.2719 104.575 42.4644 104.406 42.6913 104.28C42.9189 104.156 43.161 104.094 43.4204 104.094C43.6942 104.094 43.9089 104.144 44.0645 104.243Z" fill="#182E4D"/>
<path fill-rule="evenodd" clip-rule="evenodd" d="M53.6484 108.2C53.9007 108.051 54.0998 107.846 54.2409 107.582C54.3805 107.317 54.4505 107.017 54.4505 106.682C54.4505 106.348 54.3805 106.048 54.2409 105.779C54.0998 105.513 53.9007 105.305 53.6484 105.156C53.3953 105.005 53.1084 104.932 52.7904 104.932C52.4731 104.932 52.1862 105.005 51.9331 105.156C51.68 105.305 51.4801 105.513 51.3375 105.779C51.1936 106.048 51.1205 106.348 51.1205 106.682C51.1205 107.017 51.1936 107.317 51.3375 107.582C51.4801 107.846 51.68 108.051 51.9331 108.2C52.1862 108.349 52.4731 108.425 52.7904 108.425C53.1084 108.425 53.3953 108.349 53.6484 108.2ZM51.4502 108.932C51.0556 108.713 50.7496 108.405 50.5311 108.015C50.3114 107.625 50.2014 107.18 50.2014 106.682C50.2014 106.18 50.3114 105.733 50.5311 105.343C50.7496 104.951 51.0556 104.645 51.4502 104.423C51.8429 104.205 52.2896 104.094 52.7904 104.094C53.2845 104.094 53.7281 104.205 54.1177 104.423C54.5073 104.645 54.8132 104.951 55.0364 105.343C55.258 105.733 55.3692 106.18 55.3692 106.682C55.3692 107.18 55.26 107.625 55.0415 108.015C54.8237 108.405 54.517 108.713 54.1274 108.932C53.7359 109.153 53.2919 109.262 52.7904 109.262C52.2896 109.262 51.8429 109.153 51.4502 108.932Z" fill="#182E4D"/>
<path fill-rule="evenodd" clip-rule="evenodd" d="M58.6644 103.097C58.4812 103.331 58.3901 103.64 58.3901 104.024V104.28H59.2099C59.324 104.28 59.4157 104.316 59.4841 104.394C59.5545 104.468 59.5899 104.568 59.5899 104.696C59.5899 104.809 59.5545 104.904 59.4841 104.977C59.4157 105.055 59.324 105.092 59.2099 105.092H58.3901V108.78C58.3901 108.923 58.3527 109.04 58.2787 109.129C58.2009 109.217 58.0988 109.262 57.9641 109.262C57.8556 109.262 57.7645 109.217 57.6868 109.129C57.6081 109.04 57.57 108.923 57.57 108.78V105.092H57.2244C57.1096 105.092 57.0195 105.055 56.9498 104.977C56.8794 104.904 56.8457 104.809 56.8457 104.696C56.8457 104.568 56.8794 104.468 56.9498 104.394C57.0195 104.316 57.1096 104.28 57.2244 104.28H57.57V104.118C57.57 103.672 57.6451 103.279 57.7982 102.941C57.9514 102.604 58.1669 102.342 58.4428 102.158C58.7184 101.972 59.0327 101.879 59.3873 101.879C59.5055 101.879 59.6039 101.919 59.6816 102C59.7584 102.083 59.7987 102.188 59.7987 102.312C59.7987 102.439 59.7584 102.544 59.6816 102.625C59.6039 102.706 59.5055 102.749 59.3873 102.749C59.0874 102.749 58.8475 102.864 58.6644 103.097Z" fill="#182E4D"/>
<path fill-rule="evenodd" clip-rule="evenodd" d="M68.5264 104.281C68.5264 104.585 68.4192 104.824 68.196 105.014C67.9672 105.208 67.6695 105.305 67.3102 105.305H66.3482V103.149H67.3102C67.6714 103.149 67.9595 103.253 68.1896 103.467C68.4173 103.676 68.5264 103.944 68.5264 104.281ZM68.7295 106.228C69.0454 106.051 69.3059 105.813 69.5036 105.519C69.7458 105.16 69.8693 104.744 69.8693 104.281C69.8693 103.817 69.7591 103.398 69.5424 103.034C69.3241 102.669 69.0142 102.382 68.6238 102.178C68.2363 101.981 67.7934 101.879 67.3102 101.879H65.6589C65.4669 101.879 65.3027 101.942 65.1692 102.069C65.0373 102.195 64.9666 102.361 64.9666 102.549V108.59C64.9666 108.775 65.0346 108.936 65.1692 109.068C65.4407 109.332 65.8969 109.322 66.1577 109.064C66.2832 108.934 66.3482 108.774 66.3482 108.59V106.577H67.3554L68.8732 108.942C69.0097 109.151 69.2154 109.262 69.4644 109.262C69.6595 109.262 69.8275 109.198 69.9461 109.082C70.0697 108.964 70.1343 108.81 70.1343 108.636C70.1343 108.494 70.0925 108.357 70.0115 108.232L68.7295 106.228Z" fill="#182E4D"/>
<path fill-rule="evenodd" clip-rule="evenodd" d="M75.4134 104.397C75.4134 104.745 75.3017 105.023 75.0683 105.245C74.8345 105.466 74.5439 105.572 74.176 105.572H73.014V103.15H74.176C74.5396 103.15 74.8295 103.263 75.0636 103.496C75.3001 103.733 75.4134 104.028 75.4134 104.397ZM75.5169 102.201C75.1239 101.989 74.6729 101.879 74.176 101.879H72.3114C72.1178 101.879 71.9451 101.945 71.8145 102.069C71.6804 102.195 71.6108 102.356 71.6108 102.55V108.591C71.6108 108.776 71.6789 108.937 71.8145 109.067C71.9467 109.194 72.1178 109.262 72.3114 109.262C72.5128 109.262 72.6878 109.194 72.8188 109.064C72.9479 108.933 73.014 108.774 73.014 108.591V106.844H74.176C74.6714 106.844 75.1204 106.74 75.5154 106.534C75.9122 106.327 76.2249 106.032 76.4467 105.659C76.6666 105.29 76.7786 104.866 76.7786 104.397C76.7786 103.917 76.6685 103.481 76.4482 103.103C76.2283 102.717 75.9138 102.414 75.5169 102.201Z" fill="#182E4D"/>
<path fill-rule="evenodd" clip-rule="evenodd" d="M83.4631 101.879H78.2173C78.0169 101.879 77.8478 101.941 77.7173 102.061C77.5864 102.179 77.5168 102.335 77.5168 102.515C77.5168 102.694 77.5864 102.851 77.7189 102.97C77.8494 103.087 78.0218 103.15 78.2173 103.15H80.1074V108.591C80.1074 108.776 80.179 108.937 80.3225 109.067C80.4615 109.194 80.6408 109.262 80.8445 109.262C81.0486 109.262 81.227 109.194 81.3665 109.067C81.5096 108.939 81.5828 108.777 81.5828 108.591V103.15H83.4631C83.6599 103.15 83.8322 103.087 83.9587 102.97C84.0912 102.852 84.1611 102.696 84.1611 102.515C84.1611 102.334 84.0912 102.177 83.9631 102.063C83.8339 101.942 83.6615 101.879 83.4631 101.879Z" fill="#182E4D"/>
<path fill-rule="evenodd" clip-rule="evenodd" d="M91.2432 103.586C91.6246 103.346 92.0466 103.226 92.4952 103.226C92.8559 103.226 93.1526 103.269 93.3769 103.36C93.602 103.448 93.8389 103.598 94.083 103.807C94.3808 104.054 94.7657 104.035 95.0209 103.802C95.1597 103.682 95.2349 103.513 95.2349 103.319C95.2349 103.204 95.2155 103.108 95.1803 103.019C95.1384 102.919 95.062 102.829 94.9611 102.754C94.5806 102.446 94.1981 102.22 93.8247 102.086C93.4525 101.949 93.0059 101.879 92.4952 101.879C91.7788 101.879 91.1127 102.063 90.5146 102.424C89.9201 102.787 89.4458 103.283 89.106 103.895C88.7634 104.512 88.5906 105.197 88.5906 105.935C88.5906 106.679 88.7634 107.369 89.106 107.987C89.4474 108.608 89.9224 109.103 90.5166 109.46C91.1091 109.818 91.7753 110 92.4952 110C93.4351 110 94.2709 109.702 94.9722 109.117C95.0786 109.03 95.2076 108.869 95.2076 108.59V106.299C95.2076 106.097 95.1368 105.919 95.0027 105.782C94.8706 105.65 94.6957 105.579 94.4971 105.579H92.7159C92.5142 105.579 92.3429 105.639 92.2076 105.76C92.07 105.886 91.9952 106.053 91.9952 106.242C91.9952 106.43 92.07 106.597 92.2076 106.723C92.3397 106.844 92.5106 106.905 92.7159 106.905H93.8085V108.266C92.975 108.768 92.0094 108.766 91.2432 108.285C90.8587 108.044 90.551 107.714 90.3287 107.303C90.0985 106.883 89.9885 106.436 89.9885 105.935C89.9885 105.448 90.1016 104.988 90.3287 104.571C90.551 104.159 90.8587 103.827 91.2432 103.586Z" fill="#182E4D"/>
<path fill-rule="evenodd" clip-rule="evenodd" d="M100.269 104.281C100.269 104.584 100.161 104.823 99.9382 105.014C99.7071 105.21 99.4177 105.305 99.0508 105.305H98.0916V103.15H99.0508C99.4143 103.15 99.7029 103.253 99.9318 103.465C100.158 103.677 100.269 103.945 100.269 104.281ZM100.474 106.227C100.788 106.051 101.049 105.813 101.247 105.517C101.49 105.157 101.613 104.741 101.613 104.281C101.613 103.817 101.501 103.398 101.285 103.034C101.066 102.669 100.756 102.38 100.365 102.18C99.9797 101.981 99.5383 101.879 99.0508 101.879H97.4004C97.2099 101.879 97.0399 101.945 96.9114 102.069C96.7795 102.195 96.7114 102.356 96.7114 102.549V108.59C96.7114 108.776 96.778 108.937 96.9114 109.067C97.1772 109.325 97.6475 109.319 97.9 109.064C98.0269 108.932 98.0916 108.774 98.0916 108.59V106.577H99.0984L100.615 108.942C100.752 109.151 100.956 109.262 101.207 109.262C101.401 109.262 101.563 109.201 101.692 109.08C101.814 108.963 101.879 108.809 101.879 108.636C101.879 108.499 101.837 108.363 101.754 108.232L100.474 106.227Z" fill="#182E4D"/>
<path fill-rule="evenodd" clip-rule="evenodd" d="M109.45 105.936C109.45 106.445 109.348 106.911 109.142 107.324C108.94 107.732 108.652 108.061 108.285 108.299C107.559 108.772 106.534 108.772 105.807 108.299C105.437 108.059 105.158 107.741 104.949 107.324C104.744 106.911 104.64 106.445 104.64 105.936C104.64 105.427 104.744 104.961 104.949 104.549C105.157 104.132 105.436 103.814 105.802 103.578C106.164 103.344 106.584 103.226 107.047 103.226C107.508 103.226 107.926 103.344 108.291 103.578C108.658 103.816 108.937 104.132 109.142 104.548C109.348 104.961 109.45 105.427 109.45 105.936ZM108.949 102.397C108.391 102.055 107.752 101.879 107.047 101.879C106.336 101.879 105.692 102.055 105.132 102.397C104.571 102.742 104.13 103.23 103.819 103.845C103.512 104.459 103.356 105.162 103.356 105.936C103.356 106.71 103.512 107.415 103.819 108.03C104.131 108.651 104.572 109.139 105.132 109.483C105.692 109.825 106.336 110 107.047 110C107.758 110 108.398 109.825 108.956 109.483C109.513 109.139 109.954 108.651 110.267 108.03C110.579 107.413 110.738 106.708 110.738 105.936C110.738 105.163 110.579 104.46 110.267 103.845C109.955 103.23 109.511 102.743 108.949 102.397Z" fill="#182E4D"/>
<path fill-rule="evenodd" clip-rule="evenodd" d="M118.371 102.081C118.233 102.218 118.16 102.397 118.16 102.601V107.098C118.16 107.398 118.086 107.659 117.933 107.892C117.778 108.129 117.566 108.309 117.29 108.442C116.711 108.717 115.877 108.707 115.304 108.44C115.018 108.309 114.793 108.124 114.635 107.89C114.476 107.654 114.399 107.395 114.399 107.098V102.601C114.399 102.394 114.331 102.221 114.194 102.083C113.93 101.816 113.448 101.807 113.165 102.081C113.026 102.218 112.953 102.397 112.953 102.601V107.098C112.953 107.66 113.1 108.168 113.389 108.609C113.678 109.048 114.084 109.391 114.595 109.635C115.098 109.876 115.678 110 116.318 110C116.941 110 117.505 109.876 117.996 109.634C118.495 109.39 118.892 109.042 119.171 108.601C119.455 108.16 119.597 107.654 119.597 107.098V102.601C119.597 102.396 119.528 102.221 119.392 102.083C119.125 101.816 118.643 101.81 118.371 102.081Z" fill="#182E4D"/>
<path fill-rule="evenodd" clip-rule="evenodd" d="M125.614 104.397C125.614 104.747 125.501 105.024 125.268 105.246C125.038 105.466 124.747 105.572 124.378 105.572H123.215V103.15H124.378C124.744 103.15 125.033 103.263 125.265 103.496C125.5 103.731 125.614 104.027 125.614 104.397ZM126.648 103.103C126.428 102.716 126.114 102.414 125.718 102.201C125.322 101.989 124.873 101.879 124.378 101.879H122.515C122.32 101.879 122.153 101.942 122.017 102.069C121.883 102.195 121.812 102.361 121.812 102.55V108.591C121.812 108.776 121.881 108.936 122.017 109.069C122.153 109.197 122.322 109.262 122.515 109.262C122.717 109.262 122.886 109.195 123.021 109.064C123.149 108.934 123.215 108.776 123.215 108.591V106.844H124.378C124.87 106.844 125.321 106.74 125.717 106.534C126.112 106.327 126.424 106.033 126.646 105.659C126.868 105.289 126.98 104.865 126.98 104.397C126.98 103.92 126.868 103.484 126.648 103.103Z" fill="#182E4D"/>
</svg>
