<svg width="150" height="140" viewBox="0 0 150 140" fill="none" xmlns="http://www.w3.org/2000/svg">
<path fill-rule="evenodd" clip-rule="evenodd" d="M9.17716 104.282H3.68066C3.86132 103.277 4.17644 102.199 4.63109 101.048C5.15921 99.672 5.78713 98.4504 6.51069 97.3775C7.34792 96.1249 8.2369 95.217 9.17716 94.6556V104.282ZM11.7997 111.286V93.9329C11.7997 93.4617 11.8344 93.0204 11.8977 92.6096C11.9679 92.1892 12.1075 91.7784 12.3168 91.3769C12.082 91.3372 11.9139 91.3159 11.8145 91.3159H11.4768C9.76119 91.3159 8.0068 92.1684 6.21221 93.8733C4.53406 95.4706 3.20013 97.5526 2.2169 100.127C1.24383 102.697 0.758218 105.284 0.758218 107.89V111.286C0.758218 111.72 0.693069 112.16 0.567855 112.612C0.448185 113.064 0.261056 113.502 0 113.935H3.79109C3.57208 113.483 3.42931 112.911 3.3563 112.223C3.28469 111.53 3.24772 110.692 3.24772 109.709C3.24772 109.409 3.25465 108.962 3.26205 108.371C3.27129 107.778 3.27683 107.347 3.27683 107.078H9.17716V111.286C9.17716 111.839 9.15406 112.265 9.10878 112.568C9.03809 113.08 8.87914 113.532 8.63472 113.935H12.3168C12.0978 113.495 11.9513 113.022 11.869 112.522C11.8233 112.223 11.7997 111.808 11.7997 111.286Z" fill="#3A4E71"/>
<path fill-rule="evenodd" clip-rule="evenodd" d="M46.5476 104.282H41.0516C41.2341 103.277 41.5497 102.199 42.0002 101.048C42.5334 99.672 43.159 98.4504 43.8821 97.3775C44.7198 96.1249 45.6087 95.217 46.5476 94.6556V104.282ZM49.1734 111.286V93.9329C49.1734 93.4617 49.2067 93.0204 49.27 92.6096C49.3412 92.1892 49.4816 91.7784 49.6858 91.3769C49.4539 91.3372 49.2862 91.3159 49.1864 91.3159H48.8482C47.1344 91.3159 45.3791 92.1684 43.5827 93.8733C41.9036 95.4706 40.5748 97.5526 39.592 100.127C38.6152 102.697 38.1296 105.284 38.1296 107.89V111.286C38.1296 111.72 38.0645 112.16 37.9406 112.612C37.8228 113.064 37.6324 113.502 37.3723 113.935H41.1625C40.9435 113.483 40.8021 112.911 40.7282 112.223C40.6533 111.53 40.62 110.692 40.62 109.709C40.62 109.409 40.626 108.962 40.6344 108.371C40.6441 107.778 40.6487 107.347 40.6487 107.078H46.5476V111.286C46.5476 111.839 46.5259 112.265 46.4806 112.568C46.4095 113.08 46.251 113.532 46.0075 113.935H49.6858C49.4742 113.495 49.3231 113.022 49.2409 112.522C49.1956 112.223 49.1734 111.808 49.1734 111.286Z" fill="#3A4E71"/>
<path fill-rule="evenodd" clip-rule="evenodd" d="M90.5281 104.282H85.0316C85.2145 103.277 85.5264 102.199 85.9806 101.048C86.5115 99.672 87.1394 98.4504 87.8607 97.3775C88.7007 96.1249 89.5906 95.217 90.5281 94.6556V104.282ZM93.153 111.286V93.9329C93.153 93.4617 93.1858 93.0204 93.2505 92.6096C93.3193 92.1892 93.4598 91.7784 93.6668 91.3769C93.4334 91.3372 93.262 91.3159 93.1668 91.3159H92.8291C91.1135 91.3159 89.36 92.1684 87.5654 93.8733C85.8854 95.4706 84.5529 97.5526 83.5683 100.127C82.5952 102.697 82.1096 105.284 82.1096 107.89V111.286C82.1096 111.72 82.0477 112.16 81.922 112.612C81.8028 113.064 81.6124 113.502 81.3481 113.935H85.1411C84.9244 113.483 84.7811 112.911 84.7054 112.223C84.6338 111.53 84.6009 110.692 84.6009 109.709C84.6009 109.409 84.6056 108.962 84.6148 108.371C84.6222 107.778 84.6291 107.347 84.6291 107.078H90.5281V111.286C90.5281 111.839 90.5064 112.265 90.4569 112.568C90.3876 113.08 90.2305 113.532 89.9829 113.935H93.6668C93.4501 113.495 93.3004 113.022 93.2167 112.522C93.1761 112.223 93.153 111.808 93.153 111.286Z" fill="#3A4E71"/>
<path fill-rule="evenodd" clip-rule="evenodd" d="M140.414 94.6556C141.354 95.2169 142.245 96.1249 143.077 97.3775C143.8 98.4503 144.429 99.672 144.962 101.048C145.411 102.199 145.728 103.277 145.911 104.282H140.414V94.6556ZM137.721 112.522C137.642 113.022 137.49 113.495 137.273 113.935H140.955C140.712 113.532 140.553 113.08 140.481 112.568C140.436 112.265 140.414 111.839 140.414 111.286V107.078H146.313C146.313 107.347 146.323 107.778 146.328 108.371C146.339 108.962 146.344 109.409 146.344 109.709C146.344 110.692 146.306 111.529 146.235 112.223C146.159 112.911 146.016 113.483 145.802 113.935H149.592C149.328 113.502 149.14 113.064 149.024 112.612C148.897 112.16 148.833 111.72 148.833 111.286V107.89C148.833 105.284 148.348 102.697 147.37 100.127C146.39 97.5526 145.059 95.4706 143.379 93.8733C141.583 92.1684 139.829 91.3154 138.114 91.3154H137.778C137.675 91.3154 137.511 91.3371 137.273 91.3769C137.48 91.7784 137.621 92.1892 137.692 92.6096C137.757 93.0204 137.79 93.4616 137.79 93.9329V111.286C137.79 111.808 137.768 112.223 137.721 112.522Z" fill="#3A4E71"/>
<path fill-rule="evenodd" clip-rule="evenodd" d="M27.7773 91.377C27.4534 91.5359 26.9765 91.924 26.3408 92.5358C25.9628 92.9049 25.5484 93.3425 25.0969 93.8424C24.8188 94.1636 24.3674 94.7212 23.7455 95.5127C23.1295 96.3033 22.7428 96.8106 22.5811 97.0296V111.287C22.5811 111.808 22.6037 112.222 22.6467 112.522C22.7285 113.022 22.8759 113.495 23.0949 113.935H19.4124C19.6563 113.533 19.8162 113.08 19.886 112.568C19.9322 112.265 19.9544 111.839 19.9544 111.287V97.1807C19.8292 97.0218 19.4262 96.5265 18.7475 95.6915C18.0438 94.8298 17.6178 94.3133 17.4639 94.1437C17.0416 93.623 16.6752 93.1909 16.3657 92.8504C15.7983 92.2091 15.2646 91.717 14.7563 91.377H19.7109C19.6933 91.468 19.685 91.5973 19.685 91.7678C19.685 92.2886 19.855 92.7594 20.1983 93.1836L21.1987 94.4445C21.2804 94.335 21.4371 94.1187 21.6727 93.7972C21.9079 93.4686 22.0895 93.2006 22.2258 93.0015C22.4448 92.6989 22.5982 92.4337 22.6888 92.2026C22.7775 91.9744 22.8218 91.6981 22.8218 91.377H27.7773Z" fill="#3A4E71"/>
<path fill-rule="evenodd" clip-rule="evenodd" d="M33.9532 113.935H30.2703C30.517 113.533 30.6736 113.08 30.7476 112.568C30.7924 112.265 30.815 111.839 30.815 111.287V94.0247C30.815 93.4823 30.7924 93.0618 30.7476 92.7596C30.6653 92.2287 30.5091 91.7676 30.2703 91.3772H33.9532C33.7485 91.7986 33.6062 92.2287 33.5355 92.6695C33.4709 93.1025 33.4394 93.552 33.4394 94.0247V111.287C33.4394 111.808 33.4616 112.222 33.5069 112.522C33.5891 113.022 33.737 113.495 33.9532 113.935Z" fill="#3A4E71"/>
<path fill-rule="evenodd" clip-rule="evenodd" d="M117.255 113.935H113.571C113.816 113.533 113.973 113.08 114.045 112.568C114.092 112.265 114.109 111.839 114.114 111.287V94.0247C114.114 93.4823 114.092 93.0618 114.045 92.7596C113.966 92.2287 113.807 91.7676 113.571 91.3772H117.255C117.045 91.7986 116.907 92.2287 116.834 92.6695C116.772 93.1025 116.738 93.552 116.738 94.0247V111.287C116.738 111.808 116.762 112.222 116.81 112.522C116.891 113.022 117.038 113.495 117.255 113.935Z" fill="#3A4E71"/>
<path fill-rule="evenodd" clip-rule="evenodd" d="M133.878 113.935H130.202C130.442 113.533 130.599 113.08 130.673 112.568C130.718 112.265 130.737 111.839 130.737 111.287V105.782L124.757 96.5216V111.287C124.757 111.808 124.781 112.222 124.826 112.522C124.907 113.022 125.052 113.495 125.271 113.935H121.588C121.833 113.533 121.99 113.08 122.064 112.568C122.109 112.265 122.128 111.839 122.128 111.287V94.0247C122.128 93.4823 122.109 93.0618 122.064 92.7596C121.983 92.2287 121.821 91.7676 121.588 91.3772H125.814C125.721 91.6489 125.678 91.9293 125.678 92.22C125.678 92.5097 125.711 92.774 125.785 93.017C125.856 93.2471 125.956 93.4615 126.085 93.662C126.644 94.5662 127.232 95.4913 127.843 96.4458C128.032 96.7355 128.602 97.6139 129.545 99.0777C129.944 99.6894 130.342 100.3 130.737 100.911V94.0247C130.737 93.4823 130.718 93.0618 130.673 92.7596C130.59 92.2287 130.435 91.7676 130.202 91.3772H133.878C133.673 91.7986 133.533 92.2287 133.462 92.6695C133.397 93.1025 133.364 93.552 133.364 94.0247V111.287C133.364 111.808 133.386 112.222 133.433 112.522C133.514 113.022 133.661 113.495 133.878 113.935Z" fill="#3A4E71"/>
<path fill-rule="evenodd" clip-rule="evenodd" d="M80.1557 114.04H75.934C76.1488 113.61 76.3004 113.172 76.3919 112.717C76.4792 112.258 76.5296 111.816 76.5296 111.396L75.3638 94.6113L70.9795 98.6436L66.7827 94.7009L65.6184 111.396C65.6184 111.846 65.6586 112.287 65.7403 112.717C65.8286 113.153 65.988 113.59 66.2116 114.04H61.9927C62.3083 113.529 62.5522 113.049 62.7232 112.598C62.9043 112.145 62.9921 111.737 62.9921 111.365C63.1455 109.54 63.3183 107.394 63.5086 104.929C63.6962 102.462 63.863 100.136 64.0058 97.9496C64.1615 95.7549 64.2364 94.4824 64.2364 94.1312C64.2364 93.5906 64.2151 93.1665 64.1703 92.868C64.0881 92.3362 63.9296 91.876 63.6962 91.4846H68.2164C68.27 91.7545 68.3555 92.0053 68.4743 92.2364C68.5907 92.4572 68.7312 92.6578 68.8919 92.838L70.9795 95.0317L73.2236 92.868C73.5651 92.5464 73.828 92.0834 74.0077 91.4846H78.5538C78.314 91.8871 78.1615 92.2914 78.0973 92.7026C78.0451 93.1027 78.0169 93.5782 78.0169 94.1312C78.0169 94.6113 78.0811 95.8962 78.2045 97.9819C78.2858 99.3754 78.4401 101.67 78.6656 104.866C78.856 107.636 79.0186 109.802 79.154 111.365C79.154 111.716 79.2441 112.122 79.4229 112.583C79.6063 113.043 79.8461 113.529 80.1557 114.04Z" fill="#3A4E71"/>
<path fill-rule="evenodd" clip-rule="evenodd" d="M105.379 95.363C105.279 95.6222 105.157 95.8704 105.012 96.0986C104.805 96.41 104.346 97.0957 103.632 98.1589C103.154 98.8607 102.678 99.5566 102.212 100.248C101.552 101.212 101.205 101.724 101.169 101.784V94.0545H104.498C104.905 94.0545 105.178 94.0896 105.312 94.1594C105.455 94.2306 105.526 94.3849 105.526 94.6256C105.526 94.8557 105.479 95.1015 105.379 95.363ZM106.233 113.935H110.456C110.038 113.252 109.747 112.747 109.574 112.417C109.257 111.796 109.003 111.187 108.803 110.597C108.332 109.171 107.887 107.789 107.463 106.444C107.254 105.793 106.845 104.474 106.233 102.491C105.952 101.578 105.726 100.841 105.552 100.281C105.987 99.637 106.378 99.052 106.73 98.5216C107.38 97.5388 107.863 96.7907 108.181 96.2788C108.541 95.7179 108.798 95.2466 108.95 94.8659C109.141 94.3946 109.236 93.9325 109.236 93.4825C109.236 92.7594 109.01 92.2197 108.545 91.8589C108.139 91.5359 107.565 91.377 106.828 91.377H98.002C98.2376 91.7678 98.3947 92.229 98.4732 92.7594C98.5208 93.062 98.5449 93.4825 98.5449 94.0249V111.287C98.5449 111.839 98.5208 112.265 98.4732 112.568C98.4016 113.08 98.2468 113.533 98.002 113.935H101.683C101.466 113.495 101.319 113.022 101.236 112.522C101.191 112.222 101.169 111.808 101.169 111.287V106.686L103.58 103.136C103.599 103.188 103.813 103.839 104.229 105.093C104.795 106.797 105.119 107.77 105.2 108.012C105.552 109.022 105.907 110.015 106.256 110.988C106.333 111.177 106.397 111.413 106.447 111.696C106.502 111.976 106.53 112.249 106.53 112.522C106.53 112.773 106.502 113.019 106.447 113.258C106.404 113.497 106.333 113.723 106.233 113.935Z" fill="#3A4E71"/>
<path fill-rule="evenodd" clip-rule="evenodd" d="M87.0798 57.2065H93.6806C93.2 56.4044 92.8193 55.6443 92.5384 54.9268C92.2575 54.2041 92.1147 53.5707 92.1147 53.0208C91.9054 50.5771 91.6531 47.1903 91.356 42.8641C90.9989 37.8639 90.7614 34.2761 90.6371 32.0966C90.4375 28.8387 90.3377 26.8311 90.3377 26.078C90.3377 25.2167 90.3806 24.4738 90.4684 23.8449C90.5659 23.2027 90.8039 22.5678 91.1897 21.9395H84.0769C83.7937 22.883 83.382 23.6024 82.8516 24.1051L79.3345 27.4882L76.0794 24.0561C75.9417 23.9068 75.8202 23.7479 75.7033 23.5816C75.6488 23.7692 75.6012 23.9563 75.5702 24.1466C75.482 24.7025 75.4395 25.3383 75.4395 26.0202V29.4713L79.3345 33.1311L86.195 26.8311L88.0103 53.0698C88.0103 53.7268 87.941 54.4171 87.8029 55.1365C87.6583 55.843 87.4198 56.5315 87.0798 57.2065Z" fill="#3A4E71"/>
<path fill-rule="evenodd" clip-rule="evenodd" d="M70.7317 42.7218H61.062C61.3092 41.0501 61.8165 39.189 62.6038 37.1398C63.5205 34.7335 64.6193 32.6197 65.8973 30.8061C67.4188 28.6493 69.0281 27.162 70.7317 26.3506V42.7218ZM74.3222 53.0911V26.0207C74.3222 25.2874 74.3703 24.6004 74.4692 23.9563C74.587 23.3011 74.8 22.6602 75.1285 22.0332C74.7579 21.9686 74.4973 21.9395 74.3439 21.9395H73.8158C71.1438 21.9395 68.4053 23.2683 65.6057 25.9288C62.9845 28.415 60.9123 31.6669 59.3773 35.6844C57.8595 39.689 57.0953 43.7235 57.0953 47.7909V53.0911C57.0953 53.7629 56.9992 54.4541 56.7982 55.1573C56.6208 55.8601 56.3218 56.5467 55.9143 57.2227H61.8225C61.4857 56.5171 61.2634 55.6226 61.1502 54.547C61.0361 53.4658 60.9825 52.1605 60.9825 50.6288C60.9825 50.1575 60.9885 49.464 61.0024 48.5395C61.0134 47.6191 61.025 46.9468 61.025 46.5226H70.2271V53.0911C70.2271 53.9523 70.1929 54.6167 70.1227 55.0839C70.0086 55.8846 69.7609 56.5948 69.3839 57.2227H75.1285C74.7866 56.5342 74.5523 55.7968 74.4271 55.0146C74.3587 54.547 74.3222 53.9047 74.3222 53.0911Z" fill="#3A4E71"/>
<path fill-rule="evenodd" clip-rule="evenodd" d="M74.795 0.596964C53.3025 0.596964 35.8145 18.0845 35.8145 39.5793C35.8145 61.076 53.3025 78.5636 74.795 78.5636C96.2931 78.5636 113.781 61.076 113.781 39.5793C113.781 18.0845 96.2931 0.596964 74.795 0.596964ZM74.795 79.161C52.9721 79.161 35.217 61.4046 35.217 39.5793C35.217 17.7564 52.9721 0 74.795 0C96.6216 0 114.375 17.7564 114.375 39.5793C114.375 61.4046 96.6216 79.161 74.795 79.161Z" fill="#AD936C"/>
<path fill-rule="evenodd" clip-rule="evenodd" d="M74.795 3.61891C54.9682 3.61891 38.8353 19.7508 38.8353 39.5795C38.8353 59.4091 54.9682 75.5429 74.795 75.5429C94.6302 75.5429 110.761 59.4091 110.761 39.5795C110.761 19.7508 94.6302 3.61891 74.795 3.61891ZM74.795 76.1385C54.6401 76.1385 38.2402 59.7377 38.2402 39.5795C38.2402 19.4223 54.6401 3.02148 74.795 3.02148C94.9541 3.02148 111.359 19.4223 111.359 39.5795C111.359 59.7377 94.9541 76.1385 74.795 76.1385Z" fill="#AD936C"/>
<path fill-rule="evenodd" clip-rule="evenodd" d="M48.5678 135.327C48.5678 136.531 48.1339 137.478 47.2629 138.164C46.3892 138.849 45.1897 139.191 43.6553 139.191C42.1255 139.191 40.8701 138.953 39.8933 138.478V136.383C40.512 136.674 41.1686 136.902 41.8635 137.07C42.5598 137.237 43.2066 137.319 43.8027 137.319C44.6833 137.319 45.3307 137.152 45.746 136.819C46.1633 136.486 46.3703 136.038 46.3703 135.477C46.3703 134.97 46.1799 134.54 45.7969 134.187C45.4138 133.835 44.6237 133.419 43.4257 132.936C42.1906 132.436 41.3187 131.865 40.8105 131.222C40.305 130.579 40.0527 129.808 40.0527 128.906C40.0527 127.774 40.4528 126.886 41.2568 126.237C42.0612 125.587 43.1392 125.264 44.4907 125.264C45.7886 125.264 47.0795 125.547 48.3645 126.116L47.6589 127.923C46.4562 127.418 45.3796 127.163 44.4334 127.163C43.7186 127.163 43.1725 127.32 42.8033 127.631C42.4323 127.944 42.2479 128.355 42.2479 128.868C42.2479 129.221 42.3204 129.524 42.4729 129.772C42.6203 130.022 42.8629 130.258 43.2011 130.48C43.5426 130.703 44.1525 130.997 45.0387 131.36C46.0325 131.775 46.7621 132.16 47.2246 132.519C47.6876 132.878 48.029 133.281 48.2443 133.733C48.4596 134.185 48.5678 134.716 48.5678 135.327Z" fill="#AD936C"/>
<path fill-rule="evenodd" clip-rule="evenodd" d="M63.7074 125.459V134.223C63.7074 135.225 63.4907 136.102 63.0624 136.851C62.6345 137.601 62.0135 138.18 61.2031 138.584C60.3881 138.989 59.4173 139.192 58.2871 139.192C56.6071 139.192 55.3009 138.747 54.3653 137.857C53.4352 136.966 52.969 135.744 52.969 134.188V125.459H55.1924V134.031C55.1924 135.149 55.4506 135.974 55.9695 136.504C56.4907 137.036 57.2854 137.302 58.3611 137.302C60.4477 137.302 61.4933 136.205 61.4933 134.011V125.459H63.7074Z" fill="#AD936C"/>
<path fill-rule="evenodd" clip-rule="evenodd" d="M69.0708 139.005H71.2849V125.459H69.0708V139.005Z" fill="#AD936C"/>
<path fill-rule="evenodd" clip-rule="evenodd" d="M81.44 139.006H79.2245V127.358H75.2407V125.459H85.4256V127.358H81.44V139.006Z" fill="#AD936C"/>
<path fill-rule="evenodd" clip-rule="evenodd" d="M97.0616 139.006H89.3972V125.459H97.0616V127.331H91.6123V131.017H96.7165V132.873H91.6123V137.125H97.0616V139.006Z" fill="#AD936C"/>
<path fill-rule="evenodd" clip-rule="evenodd" d="M109.699 135.327C109.699 136.531 109.266 137.478 108.393 138.164C107.522 138.849 106.323 139.191 104.785 139.191C103.258 139.191 102.004 138.953 101.026 138.478V136.383C101.644 136.674 102.301 136.902 102.996 137.07C103.691 137.237 104.338 137.319 104.937 137.319C105.816 137.319 106.46 137.152 106.877 136.819C107.296 136.486 107.505 136.038 107.505 135.477C107.505 134.97 107.315 134.54 106.929 134.187C106.549 133.835 105.754 133.419 104.557 132.936C103.322 132.436 102.451 131.865 101.944 131.222C101.435 130.579 101.183 129.808 101.183 128.906C101.183 127.774 101.585 126.886 102.389 126.237C103.194 125.587 104.272 125.264 105.623 125.264C106.92 125.264 108.212 125.547 109.499 126.116L108.792 127.923C107.586 127.418 106.513 127.163 105.568 127.163C104.85 127.163 104.307 127.32 103.936 127.631C103.567 127.944 103.379 128.355 103.379 128.868C103.379 129.221 103.457 129.524 103.603 129.772C103.75 130.022 103.995 130.258 104.336 130.48C104.674 130.703 105.285 130.997 106.17 131.36C107.163 131.775 107.893 132.16 108.355 132.519C108.819 132.878 109.159 133.281 109.376 133.733C109.59 134.185 109.699 134.716 109.699 135.327Z" fill="#AD936C"/>
</svg>
