<svg width="122" height="107" viewBox="0 0 122 107" fill="none" xmlns="http://www.w3.org/2000/svg">
<path fill-rule="evenodd" clip-rule="evenodd" d="M4.47553 103.746C5.27524 103.746 6.03179 103.656 6.74413 103.478C7.45544 103.302 8.0763 103.024 8.60568 102.648C9.13402 102.272 9.55033 101.785 9.85562 101.185C10.1609 100.585 10.3141 99.8567 10.3141 99.0005C10.3141 98.1563 10.1784 97.432 9.90701 96.8245C9.63667 96.2191 9.25943 95.7275 8.77837 95.3519C8.29628 94.9762 7.72681 94.6995 7.06895 94.5217C6.41109 94.3438 5.68949 94.2549 4.90211 94.2549H2.56361V103.746H4.47553ZM0 92H5.67613C6.62489 92 7.53973 92.1419 8.42271 92.4256C9.30363 92.7093 10.0828 93.1409 10.7612 93.7204C11.4396 94.3009 11.9824 95.0282 12.3894 95.9054C12.7965 96.7816 13 97.8146 13 99.0005C13 100.199 12.7656 101.237 12.2969 102.115C11.8292 102.991 11.2258 103.716 10.4878 104.29C9.74769 104.863 8.92741 105.292 8.02491 105.574C7.12343 105.858 6.2384 106 5.37084 106H0V92Z" fill="#56585A"/>
<path fill-rule="evenodd" clip-rule="evenodd" d="M15 92H23.6667V94.2549H17.3287V97.6947H23.3343V99.9486H17.3287V103.746H24V106H15V92Z" fill="#56585A"/>
<path fill-rule="evenodd" clip-rule="evenodd" d="M25 92H27.8011L31.5283 102.579L35.3727 92H38L32.475 106H30.3698L25 92Z" fill="#56585A"/>
<path fill-rule="evenodd" clip-rule="evenodd" d="M39 92H47.6667V94.2549H41.3287V97.6947H47.3343V99.9486H41.3287V103.746H48V106H39V92Z" fill="#56585A"/>
<path fill-rule="evenodd" clip-rule="evenodd" d="M51 92H53.656V103.746H60V106H51V92Z" fill="#56585A"/>
<path fill-rule="evenodd" clip-rule="evenodd" d="M62.6361 99.3995C62.6361 100.165 62.7521 100.871 62.9863 101.516C63.2184 102.162 63.5474 102.72 63.9743 103.19C64.4002 103.66 64.9098 104.03 65.5023 104.299C66.0947 104.567 66.7577 104.701 67.4904 104.701C68.2221 104.701 68.8882 104.567 69.4877 104.299C70.0871 104.03 70.5998 103.66 71.0257 103.19C71.4506 102.72 71.7816 102.162 72.0137 101.516C72.2469 100.871 72.3639 100.165 72.3639 99.3995C72.3639 98.6875 72.2469 98.0214 72.0137 97.4041C71.7816 96.7858 71.4506 96.244 71.0257 95.7805C70.5998 95.3171 70.0871 94.9545 69.4877 94.6927C68.8882 94.4299 68.2221 94.2995 67.4904 94.2995C66.7577 94.2995 66.0947 94.4299 65.5023 94.6927C64.9098 94.9545 64.4002 95.3171 63.9743 95.7805C63.5474 96.244 63.2184 96.7858 62.9863 97.4041C62.7521 98.0214 62.6361 98.6875 62.6361 99.3995ZM60 99.5604C60 98.4186 60.1857 97.3807 60.5581 96.4467C60.9325 95.5126 61.4472 94.7161 62.1072 94.0571C62.7663 93.3991 63.5514 92.8919 64.4648 92.5354C65.3761 92.1799 66.3783 92.0006 67.4702 92.0006C68.5753 91.9884 69.5876 92.1524 70.506 92.4957C71.4254 92.8379 72.2166 93.339 72.8827 93.997C73.5487 94.656 74.0675 95.4485 74.4409 96.3754C74.8133 97.3023 75 98.3381 75 99.4799C75 100.596 74.8133 101.611 74.4409 102.524C74.0675 103.439 73.5487 104.224 72.8827 104.883C72.2166 105.541 71.4254 106.056 70.506 106.425C69.5876 106.795 68.5753 106.986 67.4702 107C66.3783 107 65.3761 106.822 64.4648 106.465C63.5514 106.11 62.7663 105.606 62.1072 104.954C61.4472 104.302 60.9325 103.52 60.5581 102.605C60.1857 101.691 60 100.677 60 99.5604Z" fill="#56585A"/>
<path fill-rule="evenodd" clip-rule="evenodd" d="M81.6434 98.0704C81.9678 98.0704 82.305 98.0574 82.6531 98.0304C83.0021 98.0054 83.3238 97.9245 83.6182 97.7936C83.9125 97.6617 84.1531 97.4649 84.3399 97.2002C84.5258 96.9364 84.6197 96.5678 84.6197 96.0932C84.6197 95.6576 84.5349 95.3119 84.3663 95.0542C84.1987 94.7984 83.9818 94.5996 83.7175 94.4617C83.4523 94.3228 83.158 94.2339 82.8344 94.195C82.5091 94.155 82.1956 94.136 81.8958 94.136H80.2728V98.0704H81.6434ZM78 92H82.2931C82.9064 92 83.4979 92.0659 84.0693 92.1978C84.6397 92.3297 85.1428 92.5505 85.5747 92.8602C86.0085 93.1699 86.3539 93.5855 86.6118 94.105C86.8706 94.6266 87 95.276 87 96.0532C87 96.9364 86.8624 97.6488 86.5854 98.1893C86.3083 98.7298 85.9356 99.1484 85.4672 99.4451C84.9988 99.7418 84.4538 99.9426 83.8341 100.048C83.2154 100.153 82.5693 100.206 81.8958 100.206H80.2728V106H78V92Z" fill="#56585A"/>
<path fill-rule="evenodd" clip-rule="evenodd" d="M90 92H98.6667V94.2549H92.3287V97.6947H98.3343V99.9486H92.3287V103.746H99V106H90V92Z" fill="#56585A"/>
<path fill-rule="evenodd" clip-rule="evenodd" d="M106.195 97.9319C106.532 97.9319 106.868 97.9149 107.205 97.882C107.543 97.85 107.851 97.7711 108.132 97.6452C108.413 97.5203 108.641 97.3284 108.816 97.0727C108.991 96.8149 109.079 96.4552 109.079 95.9946C109.079 95.5849 108.997 95.2552 108.834 95.0054C108.673 94.7546 108.461 94.5678 108.198 94.4419C107.937 94.317 107.646 94.2341 107.327 94.1951C107.009 94.1552 106.7 94.1352 106.401 94.1352H104.36V97.9319H106.195ZM102 92H106.607C107.243 92 107.858 92.0619 108.451 92.1878C109.044 92.3127 109.571 92.5275 110.034 92.8303C110.495 93.133 110.864 93.5417 111.138 94.0562C111.412 94.5708 111.55 95.2232 111.55 96.0136C111.55 97.0297 111.285 97.879 110.754 98.5654C110.223 99.2498 109.465 99.6654 108.479 99.8103L112 106H109.153L106.082 100.068H104.36V106H102V92Z" fill="#56585A"/>
<path fill-rule="evenodd" clip-rule="evenodd" d="M120.241 95.4278C119.996 95.0377 119.67 94.7525 119.259 94.5701C118.851 94.3888 118.419 94.2992 117.968 94.2992C117.699 94.2992 117.439 94.3328 117.188 94.399C116.938 94.4672 116.711 94.5742 116.51 94.7219C116.308 94.8696 116.146 95.0621 116.024 95.2964C115.902 95.5317 115.842 95.8109 115.842 96.1328C115.842 96.6166 115.994 96.9864 116.299 97.2421C116.605 97.4968 116.984 97.7188 117.437 97.9073C117.889 98.0958 118.383 98.2771 118.92 98.4523C119.458 98.6265 119.953 98.8689 120.406 99.1776C120.858 99.4862 121.237 99.8968 121.542 100.408C121.847 100.919 122 101.597 122 102.443C122 103.211 121.872 103.879 121.616 104.449C121.359 105.021 121.014 105.495 120.58 105.871C120.146 106.247 119.643 106.529 119.068 106.718C118.492 106.906 117.889 107 117.252 107C116.446 107 115.669 106.852 114.925 106.557C114.179 106.261 113.538 105.763 113 105.065L114.742 103.211C115.022 103.681 115.392 104.047 115.851 104.309C116.308 104.571 116.795 104.702 117.308 104.702C117.576 104.702 117.845 104.661 118.115 104.581C118.383 104.5 118.628 104.379 118.847 104.218C119.068 104.057 119.245 103.852 119.379 103.603C119.514 103.354 119.581 103.069 119.581 102.747C119.581 102.222 119.428 101.818 119.122 101.536C118.818 101.255 118.439 101.015 117.986 100.821C117.534 100.626 117.039 100.441 116.501 100.267C115.964 100.091 115.468 99.853 115.016 99.5504C114.564 99.2479 114.186 98.8445 113.88 98.3402C113.574 97.837 113.421 97.1616 113.421 96.3141C113.421 95.5756 113.559 94.9379 113.834 94.399C114.109 93.8621 114.47 93.4139 114.915 93.0584C115.361 92.7019 115.871 92.436 116.446 92.2628C117.02 92.0876 117.607 92 118.206 92C118.891 92 119.554 92.1141 120.195 92.3433C120.837 92.5715 121.415 92.9474 121.927 93.472L120.241 95.4278Z" fill="#56585A"/>
<path fill-rule="evenodd" clip-rule="evenodd" d="M61.0074 0C37.8064 0 19 18.7745 19 41.9397C19 45.7741 19.563 49.4734 20.5261 53H28.4126C27.2322 49.5276 26.5812 45.8106 26.5812 41.9397C26.5812 22.962 41.9946 7.57312 61.0074 7.57312C80.0084 7.57312 95.4178 22.962 95.4178 41.9397C95.4178 45.8106 94.7678 49.5276 93.5864 53H101.472C102.438 49.4734 103 45.7741 103 41.9397C103 18.7745 84.1956 0 61.0074 0Z" fill="#56585A"/>
<path fill-rule="evenodd" clip-rule="evenodd" d="M36 34H41.7016V37.4301H41.7764C42.3873 36.2868 43.1085 35.4248 43.9419 34.8541C44.7821 34.2854 45.8329 34 47.1011 34H49V39.4167C48.5986 39.2874 48.1932 39.1946 47.8026 39.1314C47.413 39.0642 47.0037 39.0326 46.5669 39.0326C45.4718 39.0326 44.6129 39.1857 43.9842 39.4957C43.3506 39.7949 42.8606 40.2214 42.5241 40.7724C42.1797 41.3184 41.9554 41.9691 41.857 42.7343C41.7498 43.5035 41.7016 44.3407 41.7016 45.2521V53H36V34Z" fill="#56585A"/>
<path fill-rule="evenodd" clip-rule="evenodd" d="M56.2206 43.4855C56.2206 44.8476 56.6187 45.9497 57.4258 46.7949C58.2142 47.6429 59.3291 48.0588 60.7696 48.0588C62.2042 48.0588 63.3259 47.6429 64.1271 46.7949C64.9272 45.9497 65.3214 44.8476 65.3214 43.4855C65.3214 42.1215 64.9272 41.0183 64.1271 40.1741C63.3259 39.3318 62.2042 38.9122 60.7696 38.9122C59.3291 38.9122 58.2142 39.3318 57.4258 40.1741C56.6187 41.0183 56.2206 42.1215 56.2206 43.4855ZM51 34.9944H56.2206V36.8262H56.301C56.5256 36.5018 56.8276 36.1726 57.1855 35.8424C57.5572 35.5055 57.9886 35.2081 58.477 34.926C58.9771 34.6565 59.5076 34.4361 60.0832 34.2589C60.6637 34.0857 61.2844 34 61.9472 34C63.3103 34 64.5497 34.2301 65.6529 34.6844C66.7717 35.1484 67.7219 35.7904 68.524 36.6183C69.3134 37.4529 69.9263 38.4386 70.3607 39.5773C70.7872 40.719 71 41.9761 71 43.3401C71 44.5992 70.8107 45.8102 70.4185 46.9605C70.0194 48.1146 69.4703 49.1398 68.7554 50.0312C68.0298 50.9245 67.1473 51.6387 66.1128 52.1691C65.0783 52.7043 63.9025 52.9709 62.5905 52.9709C61.4011 52.9709 60.3018 52.7909 59.2732 52.428C58.2485 52.0728 57.412 51.4539 56.7452 50.5914H56.6805V61H51V34.9944Z" fill="#56585A"/>
<path fill-rule="evenodd" clip-rule="evenodd" d="M86 39.3199H80.761V44.5894C80.761 45.1044 80.7898 45.579 80.838 46.0073C80.8935 46.4366 81.0158 46.8054 81.1965 47.1158C81.3794 47.4282 81.6722 47.6711 82.0471 47.8384C82.4344 48.0077 82.9388 48.0883 83.5788 48.0883C83.8931 48.0883 84.3143 48.0641 84.83 47.9996C85.3477 47.9291 85.7391 47.7829 86 47.5471V52.4125C85.3323 52.6503 84.6553 52.8065 83.9373 52.8851C83.2172 52.9597 82.5186 53 81.8283 53C80.8278 53 79.8991 52.8972 79.0496 52.6866C78.2052 52.484 77.4666 52.1464 76.8245 51.695C76.201 51.2455 75.6956 50.653 75.3422 49.9224C74.9847 49.1968 74.8029 48.314 74.8029 47.277V39.3199H71V34.1805H74.8029V28H80.761V34.1805H86V39.3199Z" fill="#56585A"/>
<path fill-rule="evenodd" clip-rule="evenodd" d="M93.2041 53C88.6473 66.6079 75.9567 76.402 61.0073 76.402C46.0472 76.402 33.3527 66.6079 28.7949 53H21C25.8087 70.8574 41.87 84 61.0073 84C80.1339 84 96.1952 70.8574 101 53H93.2041Z" fill="#C49A6B"/>
</svg>
