<svg width="28" height="21" viewBox="0 0 28 21" fill="none" xmlns="http://www.w3.org/2000/svg">
<path fill-rule="evenodd" clip-rule="evenodd" d="M3.19149 0.293396H24.0426C25.8023 0.293396 27.234 1.7251 27.234 3.48489V17.1019C27.234 18.8617 25.8023 20.2934 24.0426 20.2934H3.19149C1.4317 20.2934 0 18.8617 0 17.1019V3.48489C0 1.7251 1.4317 0.293396 3.19149 0.293396ZM24.0426 18.1657C24.6292 18.1657 25.1064 17.6885 25.1064 17.1019V3.48489C25.1064 2.89829 24.6292 2.42106 24.0426 2.42106H3.19149C2.60489 2.42106 2.12766 2.89829 2.12766 3.48489V17.1019C2.12766 17.6885 2.60489 18.1657 3.19149 18.1657H24.0426Z" fill="#03B5CB"/>
<path d="M24.9258 1.61981L13.6171 10.0314L2.30835 1.61981L1.03845 3.32699L13.6171 12.6831L26.1957 3.32699L24.9258 1.61981Z" fill="#03B5CB"/>
</svg>
