<svg width="17" height="18" viewBox="0 0 17 18" fill="none" xmlns="http://www.w3.org/2000/svg">
<path fill-rule="evenodd" clip-rule="evenodd" d="M0 5.2934H4V17.2934H0V5.2934ZM1.99006 4.2934H1.9662C0.77336 4.2934 0 3.41211 0 2.29611C0 1.15729 0.796223 0.293396 2.01292 0.293396C3.22863 0.293396 3.97614 1.15512 4 2.29285C4 3.40885 3.22863 4.2934 1.99006 4.2934ZM17 17.2934H12.9868V11.1422C12.9868 9.53238 12.3591 8.43455 10.9786 8.43455C9.92278 8.43455 9.33559 9.17502 9.06228 9.89086C8.95979 10.1463 8.9758 10.5036 8.9758 10.8621V17.2934H5C5 17.2934 5.05125 6.39795 5 5.40766H8.9758V7.27286C9.21068 6.45732 10.4811 5.2934 12.5085 5.2934C15.0238 5.2934 17 7.004 17 10.684V17.2934Z" fill="#03B5CB"/>
</svg>
