<svg width="19" height="19" viewBox="0 0 19 19" fill="none" xmlns="http://www.w3.org/2000/svg">
<path fill-rule="evenodd" clip-rule="evenodd" d="M17.5385 14.25C17.5385 16.063 16.063 17.5385 14.25 17.5385H4.75C2.93696 17.5385 1.46154 16.063 1.46154 14.25V4.75C1.46154 2.93696 2.93696 1.46154 4.75 1.46154H14.25C16.063 1.46154 17.5385 2.93696 17.5385 4.75V14.25ZM14.25 0H4.75C2.13092 0 0 2.13092 0 4.75V14.25C0 16.8691 2.13092 19 4.75 19H14.25C16.8691 19 19 16.8691 19 14.25V4.75C19 2.13092 16.8691 0 14.25 0Z" fill="white"/>
<path fill-rule="evenodd" clip-rule="evenodd" d="M9.49964 13.5759C7.52784 13.5759 5.9242 11.9717 5.9242 10C5.9242 8.02834 7.52784 6.4241 9.49964 6.4241C11.4714 6.4241 13.0758 8.02834 13.0758 10C13.0758 11.9717 11.4714 13.5759 9.49964 13.5759ZM9.49964 5C6.7424 5 4.5 7.24295 4.5 10C4.5 12.757 6.7424 15 9.49964 15C12.2569 15 14.5 12.757 14.5 10C14.5 7.24295 12.2569 5 9.49964 5Z" fill="white"/>
<path fill-rule="evenodd" clip-rule="evenodd" d="M14.7 3C14.3143 3 14 3.3143 14 3.7C14 4.0857 14.3143 4.4 14.7 4.4C15.0857 4.4 15.4 4.0857 15.4 3.7C15.4 3.3143 15.0857 3 14.7 3Z" fill="white"/>
</svg>
