<svg width="36" height="55" viewBox="0 0 36 55" fill="none" xmlns="http://www.w3.org/2000/svg">
<path fill-rule="evenodd" clip-rule="evenodd" d="M11.386 3.06671C12.1168 1.63161 12.2755 1.40174 12.7092 1.19212C13.4289 0.835808 13.7674 0.940891 15.3324 1.93593C16.5919 2.74215 16.9731 2.89923 17.7138 2.88883C18.5391 2.88883 18.9307 2.74269 20.1162 1.98848C21.545 1.07718 21.7569 0.983036 22.2752 1.04598C23.0054 1.11932 23.2803 1.40174 24.0531 2.88883C24.8469 4.41751 25.3553 4.9621 26.2547 5.26587C26.7094 5.41255 27.0269 5.42295 28.3501 5.36001C30.1175 5.27627 30.4771 5.36001 30.9218 5.97794C31.1442 6.28171 31.1547 6.3868 31.1232 8.00962C31.0806 10.0096 31.1868 10.46 31.8534 11.2137C32.1709 11.57 32.6261 11.8628 33.6528 12.3866C35.1552 13.1507 35.4412 13.4232 35.5154 14.1457C35.579 14.6585 35.4838 14.8682 34.6159 16.1982C33.7906 17.4652 33.6423 17.8106 33.6423 18.6064C33.6423 19.4022 33.7906 19.7476 34.6159 21.0147C35.4838 22.3447 35.579 22.5543 35.5154 23.0671C35.4412 23.7896 35.1558 24.0616 33.6528 24.8262C32.0973 25.6117 31.5574 26.1146 31.2504 27.0046C31.1022 27.4545 31.0811 27.7791 31.1448 29.0883C31.2189 30.5228 31.2078 30.6591 31.007 31.057C30.8588 31.3394 30.6364 31.5595 30.351 31.7061C29.9488 31.9054 29.8111 31.9158 28.3612 31.8424C27.0275 31.7795 26.7105 31.8003 26.2553 31.947C25.3663 32.2403 24.8369 32.8167 24.0221 34.3661C23.4192 35.5287 23.2493 35.7585 22.9003 35.9578C22.1275 36.3869 21.81 36.3031 20.2014 35.2769C18.9208 34.4603 18.5717 34.3136 17.7674 34.3136C16.9631 34.3136 16.6141 34.4603 15.3335 35.2769C13.7248 36.3031 13.4073 36.3869 12.6345 35.9578C12.2855 35.7591 12.1162 35.5287 11.5127 34.3661C10.6979 32.8161 10.1685 32.2403 9.27956 31.947C8.8243 31.8008 8.49626 31.7795 7.14155 31.8424C5.60705 31.9054 5.52242 31.9054 5.13077 31.6749C4.39008 31.2458 4.30544 30.9421 4.39008 29.12C4.44318 27.7796 4.43267 27.4441 4.28442 27.0046C3.97741 26.1037 3.427 25.6013 1.882 24.8262C0.390095 24.0726 0.104105 23.8 0.0194701 23.0671C-0.0441446 22.5537 0.0404906 22.3759 0.972031 20.9413C1.73375 19.7476 1.882 19.3705 1.882 18.5539C1.89251 17.8205 1.73375 17.4439 0.918926 16.1976C0.0510008 14.8676 -0.0441446 14.6585 0.0194701 14.1452C0.104105 13.4123 0.389542 13.1403 1.882 12.386C3.427 11.6116 3.97741 11.1086 4.28442 10.2082C4.43267 9.75833 4.44318 9.44416 4.37957 8.13496C4.29493 6.38625 4.37956 6.02994 5.0041 5.59043C5.31111 5.37041 5.41676 5.36001 7.06798 5.39121C9.08926 5.42295 9.54397 5.32881 10.3062 4.65834C10.6664 4.34417 10.9413 3.93586 11.386 3.06671ZM24.2135 9.28653C23.2399 8.62646 21.7159 7.94613 20.5515 7.65276C19.3877 7.35994 17.2286 7.23406 16.1383 7.40209C13.1855 7.86239 10.423 9.48576 8.65558 11.7895C7.91433 12.7528 7.02538 14.5852 6.68684 15.8315C6.44345 16.7636 6.41192 17.0668 6.41192 18.6064C6.41192 20.1455 6.44345 20.4493 6.68684 21.3814C7.02594 22.6276 7.91488 24.4601 8.65558 25.4234C9.31164 26.2717 10.444 27.3505 11.3224 27.9263C12.275 28.5754 13.8095 29.2563 14.9844 29.5705C15.9054 29.8113 16.223 29.8425 17.768 29.8425C19.3135 29.8425 19.6305 29.8113 20.5515 29.5705C21.7265 29.2563 23.261 28.5754 24.2135 27.9263C25.092 27.35 26.2243 26.2717 26.8804 25.4234C27.6216 24.4601 28.5105 22.6276 28.8491 21.3814C29.0925 20.4493 29.124 20.1455 29.124 18.6064C29.124 17.0673 29.0925 16.7636 28.8491 15.8315C28.51 14.5852 27.6211 12.7528 26.8804 11.7895C26.2243 10.9411 25.092 9.86232 24.2135 9.28653Z" fill="#F1F1F1"/>
<path d="M16.3076 9.92525C14.4871 10.229 12.9211 11.0456 11.5237 12.4282C9.77739 14.1561 8.87793 16.2502 8.87793 18.6064C8.87793 20.9626 9.77739 23.0567 11.5237 24.7846C13.4184 26.6587 15.6936 27.5278 18.2973 27.3708C22.7847 27.0878 26.3404 23.5696 26.6264 19.1297C26.7321 17.4335 26.3299 15.7472 25.4626 14.2081C24.859 13.1397 23.293 11.5902 22.2132 10.9931C20.4033 9.9882 18.2658 9.60069 16.3076 9.92525Z" fill="#F1F1F1"/>
<path d="M8.35942 34.701C6.63408 38.4081 1.36401 50.2933 1.36401 50.4711C1.36401 50.7749 1.5543 50.9632 1.8508 50.9632C1.97748 50.9632 3.01523 50.6074 4.15808 50.1778C5.30093 49.7487 6.37021 49.3924 6.54999 49.3924C6.97317 49.3924 7.50255 49.6228 7.78854 49.9265C7.91522 50.0628 8.37048 51.0891 8.80472 52.1991C9.75728 54.6286 9.96914 54.9215 10.477 54.4612C10.5721 54.3774 12.2443 50.7645 14.1915 46.4505C16.1282 42.1359 17.7368 38.6073 17.7689 38.6073C17.8009 38.6073 19.3985 42.1047 21.3141 46.3771C23.2403 50.6496 24.8915 54.2521 24.9971 54.3878C25.2405 54.6812 25.505 54.6916 25.7594 54.419C25.8546 54.3145 26.2993 53.309 26.733 52.1991C27.1667 51.0891 27.6219 50.0628 27.7492 49.9265C28.0352 49.6228 28.564 49.3924 28.9872 49.3924C29.1669 49.3924 30.2362 49.7487 31.3791 50.1778C32.5219 50.6069 33.5591 50.9632 33.6864 50.9632C33.9829 50.9632 34.1731 50.7749 34.1731 50.4711C34.1731 50.1362 27.082 34.3972 26.9449 34.4498C26.8918 34.4602 26.5322 35.0677 26.1405 35.7798C25.3152 37.2981 24.7858 37.8739 23.8017 38.3347C23.1772 38.6281 23.0185 38.6593 22.1085 38.6593C20.9335 38.6593 20.574 38.523 18.9333 37.4656C18.3829 37.1202 17.8646 36.8268 17.7694 36.8268C17.6743 36.8268 17.1554 37.1202 16.605 37.4656C14.9648 38.523 14.6047 38.6593 13.4298 38.6593C12.5198 38.6593 12.3611 38.6281 11.7365 38.3347C10.7524 37.8739 10.2231 37.2981 9.39772 35.7798C9.00607 35.0677 8.64651 34.4602 8.59341 34.4498C8.5392 34.4284 8.43354 34.5439 8.35942 34.701Z" fill="#F1F1F1"/>
</svg>
