<svg width="19" height="20" viewBox="0 0 19 20" fill="none" xmlns="http://www.w3.org/2000/svg">
<path fill-rule="evenodd" clip-rule="evenodd" d="M17.5385 14.5434C17.5385 16.3564 16.063 17.8319 14.25 17.8319H4.75C2.93696 17.8319 1.46154 16.3564 1.46154 14.5434V5.0434C1.46154 3.23036 2.93696 1.75493 4.75 1.75493H14.25C16.063 1.75493 17.5385 3.23036 17.5385 5.0434V14.5434ZM14.25 0.293396H4.75C2.13092 0.293396 0 2.42432 0 5.0434V14.5434C0 17.1625 2.13092 19.2934 4.75 19.2934H14.25C16.8691 19.2934 19 17.1625 19 14.5434V5.0434C19 2.42432 16.8691 0.293396 14.25 0.293396Z" fill="#03B5CB"/>
<path fill-rule="evenodd" clip-rule="evenodd" d="M9.49964 13.8693C7.52784 13.8693 5.9242 12.2651 5.9242 10.2934C5.9242 8.32174 7.52784 6.71749 9.49964 6.71749C11.4714 6.71749 13.0758 8.32174 13.0758 10.2934C13.0758 12.2651 11.4714 13.8693 9.49964 13.8693ZM9.49964 5.2934C6.7424 5.2934 4.5 7.53635 4.5 10.2934C4.5 13.0504 6.7424 15.2934 9.49964 15.2934C12.2569 15.2934 14.5 13.0504 14.5 10.2934C14.5 7.53635 12.2569 5.2934 9.49964 5.2934Z" fill="#03B5CB"/>
<path fill-rule="evenodd" clip-rule="evenodd" d="M14.7 3.2934C14.3143 3.2934 14 3.6077 14 3.9934C14 4.3791 14.3143 4.6934 14.7 4.6934C15.0857 4.6934 15.4 4.3791 15.4 3.9934C15.4 3.6077 15.0857 3.2934 14.7 3.2934Z" fill="#03B5CB"/>
</svg>
