<svg width="21" height="21" viewBox="0 0 21 21" fill="none" xmlns="http://www.w3.org/2000/svg">
<path fill-rule="evenodd" clip-rule="evenodd" d="M1 7H5V21H1V7ZM2.48757 5H2.45775C0.9667 5 0 3.8984 0 2.5034C0 1.07987 0.995278 0 2.51615 0C4.03579 0 4.97018 1.07715 5 2.49932C5 3.89432 4.03579 5 2.48757 5ZM21 21H16.318V13.8236C16.318 11.9455 15.5856 10.6647 13.9751 10.6647C12.7432 10.6647 12.0582 11.5286 11.7393 12.3637C11.6198 12.6617 11.6384 13.0786 11.6384 13.4968V21H7C7 21 7.05979 8.28865 7 7.13331H11.6384V9.30937C11.9125 8.35792 13.3947 7 15.76 7C18.6945 7 21 8.99571 21 13.289V21Z" fill="white"/>
</svg>
